<?xml version="1.0" standalone="yes"?>
<svg xmlns="http://www.w3.org/2000/svg" width="213" height="237">
<path style="fill:#fcfbf8; stroke:none;" d="M0 0L0 237L213 237L213 0L0 0z"/>
<path style="fill:#a3a5ac; stroke:none;" d="M103 2L104 3L103 2z"/>
<path style="fill:#e09a22; stroke:none;" d="M104 2L105 4L97 3L92 4L92 5L94 5L94 6L89 5L89 7L85 6L86 8L83 7L83 9L80 8L81 10L78 9L79 11L76 10L77 12L74 11L69 14L66 16L63 18L62 19L63 21L53 28L57 25L54 46C59.4401 46.2342 65.8802 49.9706 71 49.277C84.853 47.4002 91.6292 36.9608 104 51C112.511 47.9073 119.6 43.8964 129 44.0185C134.39 44.0885 139.831 47.5111 145 47.1219C153.308 46.4964 158.685 39.4828 168 41.1636C177.276 42.8373 189.018 56.1389 182.012 65.7469C176.768 72.9382 168.332 45.2599 158.813 60.3935C156.69 63.7688 160.224 72.6884 159.91 77C158.818 91.9777 148.956 104.562 135 109.771C115.99 116.866 93.0061 104.295 92.0394 83C91.8215 78.2005 97.3699 62.4708 95.1836 59.6034C92.2716 55.7841 85.2143 59.6905 82 61C86.882 82.3468 81.3264 96.6004 62 108C64.9853 113.785 69.3689 119.658 76 121L76 122L72 122L72 123C90.6395 121.531 109.535 125.149 128 120.265C132.85 118.983 143.667 112.229 147 117L143 116L143 117L146 117C141.971 125.088 134.809 132.486 127 137L129 134L117 140L119 142L115 143L115 144C132.594 147.595 146.84 144.97 164 141L162 144L164 140L170 137L170 134L174 129L177 129C176.47 126.351 176.572 125.393 179 126L181 123L180 120L182 121L181 118L183 119L184 117L183 114L185 115L184 112L186 112L185 109L187 110C186.017 107.05 185.513 106.378 188 107L187 103L189 104L188 99L190.509 90.9398L190 65L188 65L189 61L187 61L188 58L187 55L185 55L186 52L184 53L184 52L185 50L185 49L183 50L183 49C182.849 44.8219 179.688 39.0893 176 37L172 32C170.978 26.0147 164.951 20.984 159 20L159 17L156 18L156 15L153 13L150 14L151 12L149 11L147 12L147 10L144 11L145 9L142 10C141.595 7.0842 139.692 7.53275 137 8L138 6L137 6L134 7L134 5L130 6L126 5L126 3L104 2z"/>
<path style="fill:#a3a5ac; stroke:none;" d="M118.667 2.33333L119.333 2.66667L118.667 2.33333z"/>
<path style="fill:#ce791c; stroke:none;" d="M99 3L99 4L105 4L99 3M118 3L118 4L124 4L118 3z"/>
<path style="fill:#a3a5ac; stroke:none;" d="M126 3L127 4L126 3z"/>
<path style="fill:#ce791c; stroke:none;" d="M95 4L95 5L98 5L95 4M126.667 4.33333L127.333 4.66667L126.667 4.33333M91 5L91 6L94 6L91 5M130.667 5.33333L131.333 5.66667L130.667 5.33333z"/>
<path style="fill:#a3a5ac; stroke:none;" d="M134 5L135 6L134 5z"/>
<path style="fill:#ce791c; stroke:none;" d="M87.6667 6.33333L88.3333 6.66667L87.6667 6.33333M134.667 6.33333L135.333 6.66667L134.667 6.33333M84.6667 7.33333L85.3333 7.66667L84.6667 7.33333M121.333 7.66667L121.667 8.33333L121.333 7.66667M137.667 7.33333L138.333 7.66667L137.667 7.33333M82 8L83 9L82 8z"/>
<path style="fill:#3b3a39; stroke:none;" d="M122 8L115 10L115 11L121 12L119 16C124.738 14.2324 127.783 15.2735 133 18L129 14L131 11L122 8z"/>
<path style="fill:#ce791c; stroke:none;" d="M123 8L124 9L123 8M140 8L141 9L140 8M79.6667 9.33333L80.3333 9.66667L79.6667 9.33333M142.667 9.33333L143.333 9.66667L142.667 9.33333M77.6667 10.3333L78.3333 10.6667L77.6667 10.3333M114 10L117 12L117 11L114 10M129 10L129 11L132 12L129 10M144.667 10.3333L145.333 10.6667L144.667 10.3333M75.6667 11.3333L76.3333 11.6667L75.6667 11.3333M147 11L148 12L147 11z"/>
<path style="fill:#a3a5ac; stroke:none;" d="M72 12L73 13L72 12z"/>
<path style="fill:#ce791c; stroke:none;" d="M73.6667 12.3333L74.3333 12.6667L73.6667 12.3333M149 12L150 13L149 12z"/>
<path style="fill:#a3a5ac; stroke:none;" d="M70 13L71 14L70 13z"/>
<path style="fill:#ce791c; stroke:none;" d="M71.6667 13.3333L72.3333 13.6667L71.6667 13.3333M129 13L130 14L129 13M150.667 13.3333L151.333 13.6667L150.667 13.3333M70 14L71 15L70 14M123.667 14.3333L124.333 14.6667L123.667 14.3333M126 14L127 15L126 14M152 14L153 15L152 14z"/>
<path style="fill:#a3a5ac; stroke:none;" d="M67 15L68 16L67 15z"/>
<path style="fill:#ce791c; stroke:none;" d="M69 15L70 16L69 15M118 15L119 16L118 15M120.667 15.3333L121.333 15.6667L120.667 15.3333M128 15L129 16L128 15M154 15L155 16L154 15M67 16L68 17L67 16M130 16L131 17L130 16M155 16L158 18L155 16M65.6667 17.3333L66.3333 17.6667L65.6667 17.3333M131 17L132 18L131 17M64 18L65 19L64 18M158 18L159 19L158 18M63 19L64 20L63 19M159.667 19.3333L160.333 19.6667L159.667 19.3333M60 22L63 20L60 22M161 20L162 21L161 20M162 21L172 31L162 21M59 22L60 23L59 22M58 23L57 25L58 23M56 25L39 50L60 47L60 46L54 46L56 25z"/>
<path style="fill:#a3a5ac; stroke:none;" d="M52 28L53 29L52 28M51 29L52 30L51 29z"/>
<path style="fill:#e09a22; stroke:none;" d="M50 31L51 32L50 31z"/>
<path style="fill:#ce791c; stroke:none;" d="M172 31L174 33L172 31z"/>
<path style="fill:#a3a5ac; stroke:none;" d="M173 31L174 32L173 31z"/>
<path style="fill:#e09a22; stroke:none;" d="M49 32L50 33L49 32M48 33L49 34L48 33z"/>
<path style="fill:#ce791c; stroke:none;" d="M174 34L176 36L174 34z"/>
<path style="fill:#e09a22; stroke:none;" d="M46 36L47 37L46 36z"/>
<path style="fill:#ce791c; stroke:none;" d="M176 36L177 37L176 36z"/>
<path style="fill:#e09a22; stroke:none;" d="M45 37L46 38L45 37z"/>
<path style="fill:#ce791c; stroke:none;" d="M177 38L178 39L177 38z"/>
<path style="fill:#e09a22; stroke:none;" d="M44 39L45 40L44 39z"/>
<path style="fill:#ce791c; stroke:none;" d="M163.667 40.3333L164.333 40.6667L163.667 40.3333M158 41L159 42L158 41z"/>
<path style="fill:#3b3a39; stroke:none;" d="M97 59C93.5359 71.1175 89.494 81.5066 94.8804 94C103.913 114.951 133.444 116.682 148.711 101.699C155.755 94.7853 159.462 84.7825 159.896 75C160.108 70.2168 155.88 62.4624 160.191 58.9699C167.991 52.6524 173.905 59.0745 175 67L182 68C183.955 57.4699 182.839 45.8586 171 41.8542C160.053 38.1514 153.661 47.3728 144 47.2076C137.872 47.1028 132.385 43.6317 126 44.1736C119.359 44.7373 112.21 49.6563 106 49.5864C99.7535 49.5161 95.2189 42.7619 88 43.1049C81.3774 43.4196 76.1395 49.3228 70 49.3434C55.8577 49.3907 44.6792 43.3689 32.0401 54.3287C7.22873 75.8436 27.4211 118.204 60 108.43C72.4475 104.695 82.8356 93.2613 83.9066 80C84.3098 75.0083 81.5947 66.5995 83.3526 62.2137C85.5297 56.7823 92.693 57.9522 97 59z"/>
<path style="fill:#ce791c; stroke:none;" d="M170 41L171 42L170 41M179 41L180 42L179 41z"/>
<path style="fill:#e09a22; stroke:none;" d="M42 42L43 43L42 42z"/>
<path style="fill:#ce791c; stroke:none;" d="M88.6667 42.3333L89.3333 42.6667L88.6667 42.3333M155 42L156 43L155 42M180.333 42.6667L180.667 43.3333L180.333 42.6667M83.6667 43.3333L84.3333 43.6667L83.6667 43.3333M93.6667 43.3333L94.3333 43.6667L93.6667 43.3333M152 43L153 44L152 43M174 43L175 44L174 43z"/>
<path style="fill:#a3a5ac; stroke:none;" d="M181 43L182 44L181 43z"/>
<path style="fill:#e09a22; stroke:none;" d="M41 44L42 45L41 44z"/>
<path style="fill:#ce791c; stroke:none;" d="M96 44L97 45L96 44M122.667 44.3333L123.333 44.6667L122.667 44.3333M132 44L132 45L135 45L132 44M151 44L152 45L151 44M78 45L79 46L78 45M98 45L99 46L98 45M116.667 45.3333L117.333 45.6667L116.667 45.3333M137.667 45.3333L138.333 45.6667L137.667 45.3333M149 45L150 46L149 45M177 45L178 46L177 45M181 45L182 46L181 45z"/>
<path style="fill:#e09a22; stroke:none;" d="M40 46L41 47L40 46z"/>
<path style="fill:#ce791c; stroke:none;" d="M76 46L77 47L76 46M114 46L115 47L114 46M140.667 46.3333L141.333 46.6667L140.667 46.3333M147 46L148 47L147 46M178 46L179 47L178 46M63.6667 47.3333L64.3333 47.6667L63.6667 47.3333M75 47L76 48L75 47z"/>
<path style="fill:#a3a5ac; stroke:none;" d="M76 53L84 47L76 53z"/>
<path style="fill:#ce791c; stroke:none;" d="M111 47L112 48L111 47M143 47L144 48L143 47M146 47L147 48L146 47M179 47L180 48L179 47M182 47L183 48L182 47z"/>
<path style="fill:#e09a22; stroke:none;" d="M39 48L40 49L39 48z"/>
<path style="fill:#ce791c; stroke:none;" d="M66 48L67 49L66 48M73 48L74 49L73 48M102 48L103 49L102 48M109 48L110 49L109 48M183.333 48.6667L183.667 49.3333L183.333 48.6667M68 49L69 50L68 49M72 49L73 50L72 49M107 49L108 50L107 49z"/>
<path style="fill:#a3a5ac; stroke:none;" d="M37 50L38 51L37 50z"/>
<path style="fill:#ce791c; stroke:none;" d="M106 50L107 51L106 50M181 50L182 51L181 50M184.333 51.6667L184.667 52.3333L184.333 51.6667z"/>
<path style="fill:#a3a5ac; stroke:none;" d="M34 52L35 53L34 52M28 66L44 52C36.0227 52.8171 29.1042 57.7389 28 66z"/>
<path style="fill:#ce791c; stroke:none;" d="M182.333 52.6667L182.667 53.3333L182.333 52.6667z"/>
<path style="fill:#a3a5ac; stroke:none;" d="M100 66L112 54C105.824 55.1951 100.158 59.3461 100 66z"/>
<path style="fill:#ce791c; stroke:none;" d="M185 54L186 55L185 54z"/>
<path style="fill:#a3a5ac; stroke:none;" d="M186 54L187 55L186 54M30 55L31 56L30 55M29 56L30 57L29 56z"/>
<path style="fill:#ce791c; stroke:none;" d="M164.667 56.3333L165.333 56.6667L164.667 56.3333M169.667 56.3333L170.333 56.6667L169.667 56.3333M183 56L183 62L184 62L183 56M186.333 56.6667L186.667 57.3333L186.333 56.6667M90 57L90 58L93 58L90 57z"/>
<path style="fill:#a3a5ac; stroke:none;" d="M125 57L125 58L133 58L125 57z"/>
<path style="fill:#ce791c; stroke:none;" d="M162 57L163 58L162 57z"/>
<path style="fill:#a3a5ac; stroke:none;" d="M187 57L188 58L187 57z"/>
<path style="fill:#ce791c; stroke:none;" d="M87 58L88 59L87 58z"/>
<path style="fill:#a3a5ac; stroke:none;" d="M121 58L121 59L124 59L121 58z"/>
<path style="fill:#fcfbf8; stroke:none;" d="M124 58.4676C104.218 62.2059 97.3593 99.6717 122 95.5316C145.059 91.6573 153.075 52.9731 124 58.4676z"/>
<path style="fill:#a3a5ac; stroke:none;" d="M135.667 58.3333L136.333 58.6667L135.667 58.3333z"/>
<path style="fill:#ce791c; stroke:none;" d="M160 58L161 59L160 58z"/>
<path style="fill:#a3a5ac; stroke:none;" d="M27 59L28 60L27 59M50 59L50 60L56 60L50 59z"/>
<path style="fill:#fcfbf8; stroke:none;" d="M56 59.7145C47.2485 59.755 39.0667 63.5204 35.6134 72C31.7539 81.4771 33.6074 94.6408 46 94.9452C55.0719 95.1681 64.0717 89.4296 67.517 81C71.6693 70.8406 68.2393 59.6578 56 59.7145z"/>
<path style="fill:#a3a5ac; stroke:none;" d="M57 59L57 60L62 60L57 59z"/>
<path style="fill:#ce791c; stroke:none;" d="M85 59L86 60L85 59M96 59L97 60L96 59z"/>
<path style="fill:#a3a5ac; stroke:none;" d="M118.667 59.3333L119.333 59.6667L118.667 59.3333M137.667 59.3333L138.333 59.6667L137.667 59.3333z"/>
<path style="fill:#ce791c; stroke:none;" d="M158 59L159 60L158 59M173 59L174 60L173 59M187.333 59.6667L187.667 60.3333L187.333 59.6667z"/>
<path style="fill:#a3a5ac; stroke:none;" d="M26 60L27 61L26 60M47.6667 60.3333L48.3333 60.6667L47.6667 60.3333M62.6667 60.3333L63.3333 60.6667L62.6667 60.3333z"/>
<path style="fill:#ce791c; stroke:none;" d="M83 60L84 61L83 60z"/>
<path style="fill:#a3a5ac; stroke:none;" d="M116.667 60.3333L117.333 60.6667L116.667 60.3333M139 60L140 61L139 60z"/>
<path style="fill:#ce791c; stroke:none;" d="M157 60L158 61L157 60z"/>
<path style="fill:#a3a5ac; stroke:none;" d="M188 60L189 61L188 60M44.6667 61.3333L45.3333 61.6667L44.6667 61.3333M64.6667 61.3333L65.3333 61.6667L64.6667 61.3333z"/>
<path style="fill:#ce791c; stroke:none;" d="M96 61L97 62L96 61z"/>
<path style="fill:#a3a5ac; stroke:none;" d="M115 61L116 62L115 61M140 61L141 62L140 61M25 62L26 63L25 62M43 62L44 63L43 62M66 62L67 63L66 62M113.667 62.3333L114.333 62.6667L113.667 62.3333M141 62L142 63L141 62z"/>
<path style="fill:#ce791c; stroke:none;" d="M157 62L158 63L157 62z"/>
<path style="fill:#a3a5ac; stroke:none;" d="M41 63L42 64L41 63M67 63L68 64L67 63z"/>
<path style="fill:#ce791c; stroke:none;" d="M82 63L83 64L82 63M95 63L96 64L95 63z"/>
<path style="fill:#a3a5ac; stroke:none;" d="M112 63L113 64L112 63z"/>
<path style="fill:#ce791c; stroke:none;" d="M174 63L174 66L175 66L174 63M188.333 63.6667L188.667 64.3333L188.333 63.6667z"/>
<path style="fill:#a3a5ac; stroke:none;" d="M24 64L25 65L24 64M40 64L41 65L40 64M111 64L112 65L111 64M142 64L143 65L142 64z"/>
<path style="fill:#ce791c; stroke:none;" d="M158 64L159 65L158 64z"/>
<path style="fill:#a3a5ac; stroke:none;" d="M189 64L190 65L189 64M39 65L40 66L39 65M68 65L69 66L68 65z"/>
<path style="fill:#ce791c; stroke:none;" d="M94 65L95 66L94 65z"/>
<path style="fill:#a3a5ac; stroke:none;" d="M110.333 65.6667L110.667 66.3333L110.333 65.6667z"/>
<path style="fill:#ce791c; stroke:none;" d="M182.333 65.6667L182.667 66.3333L182.333 65.6667z"/>
<path style="fill:#a3a5ac; stroke:none;" d="M23 66L24 67L23 66M38 66L39 67L38 66z"/>
<path style="fill:#ce791c; stroke:none;" d="M83 66L84 67L83 66z"/>
<path style="fill:#a3a5ac; stroke:none;" d="M143 66L143 69L144 69L143 66M37.3333 67.6667L37.6667 68.3333L37.3333 67.6667M69 67L69 77L70 77L69 67M109 67L110 68L109 67z"/>
<path style="fill:#ce791c; stroke:none;" d="M159 67L159 70L160 70L159 67M177 67L178 68L177 67M189 67L189 70L190 70L189 67z"/>
<path style="fill:#a3a5ac; stroke:none;" d="M22.3333 68.6667L22.6667 69.3333L22.3333 68.6667z"/>
<path style="fill:#ce791c; stroke:none;" d="M93 68L94 69L93 68z"/>
<path style="fill:#a3a5ac; stroke:none;" d="M108.333 68.6667L108.667 69.3333L108.333 68.6667z"/>
<path style="fill:#ce791c; stroke:none;" d="M179.667 68.3333L180.333 68.6667L179.667 68.3333z"/>
<path style="fill:#a3a5ac; stroke:none;" d="M36 69L37 70L36 69M55 70L56 71L55 70M107.333 70.6667L107.667 71.3333L107.333 70.6667M128 70L129 71L128 70M35 71L36 72L35 71M52 71L53 72L52 71z"/>
<path style="fill:#3b3a39; stroke:none;" d="M61 77L57 71C42.8148 72.6189 56.1364 90.5233 61 77z"/>
<path style="fill:#a3a5ac; stroke:none;" d="M57 71L57 76L58 76L57 71z"/>
<path style="fill:#ce791c; stroke:none;" d="M84 71L84 79L85 79L84 71z"/>
<path style="fill:#a3a5ac; stroke:none;" d="M125 71L126 72L125 71z"/>
<path style="fill:#3b3a39; stroke:none;" d="M134 77L130 71C116.269 72.566 127.863 90.1895 134 77z"/>
<path style="fill:#a3a5ac; stroke:none;" d="M130 71L130 76L131 76L130 71z"/>
<path style="fill:#ce791c; stroke:none;" d="M189.333 71.6667L189.667 72.3333L189.333 71.6667z"/>
<path style="fill:#a3a5ac; stroke:none;" d="M21 72L21 75L22 75L21 72z"/>
<path style="fill:#ce791c; stroke:none;" d="M92.3333 72.6667L92.6667 73.3333L92.3333 72.6667z"/>
<path style="fill:#a3a5ac; stroke:none;" d="M106 72L106 75L107 75L106 72M123.333 72.6667L123.667 73.3333L123.333 72.6667M34 73L34 76L35 76L34 73M50 73L51 74L50 73M143 73L143 77L144 77L143 73z"/>
<path style="fill:#ce791c; stroke:none;" d="M190 73L190 91L191 91L190 73z"/>
<path style="fill:#a3a5ac; stroke:none;" d="M49 74L49 79L50 79L49 74M122.333 74.6667L122.667 75.3333L122.333 74.6667M33 76L33 82L34 82L33 76M58 76L58 77L61 77L58 76M105 76L105 87L106 87L105 76M131 76L131 77L134 77L131 76M122 77L122 80L123 80L122 77M68.3333 78.6667L68.6667 79.3333L68.3333 78.6667M133.333 78.6667L133.667 79.3333L133.333 78.6667M142.333 78.6667L142.667 79.3333L142.333 78.6667z"/>
<path style="fill:#ce791c; stroke:none;" d="M159 78L159 81L160 81L159 78z"/>
<path style="fill:#a3a5ac; stroke:none;" d="M60 79L61 80L60 79M50 80L51 81L50 80M123 80L124 81L123 80M132 80L133 81L132 80M51 81L52 82L51 81M59 81L60 82L59 81M67.3333 81.6667L67.6667 82.3333L67.3333 81.6667M124 81L125 82L124 81M141 81L142 82L141 81M52 82L53 83L52 82M57 82L58 83L57 82M125 82L126 83L125 82M130 82L131 83L130 82M191 82L192 83L191 82M33 83L33 87L34 87L33 83M66 83L67 84L66 83z"/>
<path style="fill:#ce791c; stroke:none;" d="M83 83L84 84L83 83z"/>
<path style="fill:#a3a5ac; stroke:none;" d="M140 83L141 84L140 83M139.333 84.6667L139.667 85.3333L139.333 84.6667z"/>
<path style="fill:#ce791c; stroke:none;" d="M158 84L159 85L158 84z"/>
<path style="fill:#a3a5ac; stroke:none;" d="M21 85L21 89L22 89L21 85M65 85L66 86L65 85z"/>
<path style="fill:#ce791c; stroke:none;" d="M92 85L92 88L93 88L92 85z"/>
<path style="fill:#a3a5ac; stroke:none;" d="M64 86L65 87L64 86z"/>
<path style="fill:#ce791c; stroke:none;" d="M82 86L83 87L82 86z"/>
<path style="fill:#a3a5ac; stroke:none;" d="M138 86L139 87L138 86M34 87L34 90L35 90L34 87M63 87L64 88L63 87M137 87L138 88L137 87z"/>
<path style="fill:#ce791c; stroke:none;" d="M157.333 87.6667L157.667 88.3333L157.333 87.6667z"/>
<path style="fill:#a3a5ac; stroke:none;" d="M62 88L63 89L62 88M106.333 88.6667L106.667 89.3333L106.333 88.6667M136 88L137 89L136 88M61 89L62 90L61 89z"/>
<path style="fill:#ce791c; stroke:none;" d="M81 89L82 90L81 89z"/>
<path style="fill:#a3a5ac; stroke:none;" d="M135 89L136 90L135 89M22.3333 90.6667L22.6667 91.3333L22.3333 90.6667M35 90L36 91L35 90M60 90L61 91L60 90z"/>
<path style="fill:#ce791c; stroke:none;" d="M93.3333 90.6667L93.6667 91.3333L93.3333 90.6667z"/>
<path style="fill:#a3a5ac; stroke:none;" d="M107.333 90.6667L107.667 91.3333L107.333 90.6667M134 90L135 91L134 90z"/>
<path style="fill:#ce791c; stroke:none;" d="M156 90L157 91L156 90z"/>
<path style="fill:#a3a5ac; stroke:none;" d="M36 91L37 92L36 91M58.6667 91.3333L59.3333 91.6667L58.6667 91.3333z"/>
<path style="fill:#ce791c; stroke:none;" d="M80 91L81 92L80 91z"/>
<path style="fill:#a3a5ac; stroke:none;" d="M133 91L134 92L133 91M37 92L38 93L37 92M57 92L58 93L57 92M108 92L109 93L108 92M131 92L132 93L131 92z"/>
<path style="fill:#ce791c; stroke:none;" d="M155 92L156 93L155 92z"/>
<path style="fill:#a3a5ac; stroke:none;" d="M23 93L24 94L23 93M38 93L39 94L38 93M54.6667 93.3333L55.3333 93.6667L54.6667 93.3333z"/>
<path style="fill:#ce791c; stroke:none;" d="M79 93L80 94L79 93M94 93L95 94L94 93z"/>
<path style="fill:#a3a5ac; stroke:none;" d="M109.667 93.3333L110.333 93.6667L109.667 93.3333M129.667 93.3333L130.333 93.6667L129.667 93.3333M40.6667 94.3333L41.3333 94.6667L40.6667 94.3333M51.6667 94.3333L52.3333 94.6667L51.6667 94.3333z"/>
<path style="fill:#ce791c; stroke:none;" d="M78 94L79 95L78 94z"/>
<path style="fill:#a3a5ac; stroke:none;" d="M111.667 94.3333L112.333 94.6667L111.667 94.3333M126.667 94.3333L127.333 94.6667L126.667 94.3333z"/>
<path style="fill:#ce791c; stroke:none;" d="M154 94L155 95L154 94M189 94L189 97L190 97L189 94z"/>
<path style="fill:#a3a5ac; stroke:none;" d="M190 94L191 95L190 94M24 95L25 96L24 95M43 95L43 96L49 96L43 95z"/>
<path style="fill:#ce791c; stroke:none;" d="M95 95L96 96L95 95z"/>
<path style="fill:#a3a5ac; stroke:none;" d="M113 95L113 96L116 96L113 95M122 95L122 96L125 96L122 95z"/>
<path style="fill:#ce791c; stroke:none;" d="M77 96L78 97L77 96M76 97L77 98L76 97M96 97L97 98L96 97M152 97L153 98L152 97z"/>
<path style="fill:#a3a5ac; stroke:none;" d="M26 98L27 99L26 98z"/>
<path style="fill:#ce791c; stroke:none;" d="M75 98L76 99L75 98M151 98L152 99L151 98z"/>
<path style="fill:#a3a5ac; stroke:none;" d="M27 99L28 100L27 99z"/>
<path style="fill:#ce791c; stroke:none;" d="M150 99L151 100L150 99M188.333 99.6667L188.667 100.333L188.333 99.6667z"/>
<path style="fill:#a3a5ac; stroke:none;" d="M28 100L29 101L28 100z"/>
<path style="fill:#ce791c; stroke:none;" d="M72 101L73 102L72 101M71 102L72 103L71 102M100 102L101 103L100 102z"/>
<path style="fill:#a3a5ac; stroke:none;" d="M31 103L32 104L31 103z"/>
<path style="fill:#ce791c; stroke:none;" d="M101 103L102 104L101 103M146 103L147 104L146 103M187 103L187 106L188 106L187 103z"/>
<path style="fill:#a3a5ac; stroke:none;" d="M32 104L33 105L32 104z"/>
<path style="fill:#ce791c; stroke:none;" d="M102 104L103 105L102 104M145 104L146 105L145 104z"/>
<path style="fill:#a3a5ac; stroke:none;" d="M33 105L34 106L33 105M35 106L36 107L35 106z"/>
<path style="fill:#ce791c; stroke:none;" d="M142 106L143 107L142 106M186 106L186 109L187 109L186 106M36 107C51.3845 146.869 92.8922 171.354 135 158.19C145.529 154.898 157.111 149.981 164 141C146.233 143.624 133.165 146.418 115 144L115 143L119 142L119 141C112.198 141.682 105.978 144.811 99 144.946C81.2439 145.29 60.5072 132.247 55 115L76 122L76 121L62 108C52.1855 109.903 45.617 109.571 36 107M62 107L63 108L62 107M106 107L107 108L106 107M140 107L141 108L140 107z"/>
<path style="fill:#e09a22; stroke:none;" d="M36 108L37 109L36 108z"/>
<path style="fill:#ce791c; stroke:none;" d="M108 108L109 109L108 108M138 108L139 109L138 108M110 109L111 110L110 109M135 109L136 110L135 109M185.333 109.667L185.667 110.333L185.333 109.667z"/>
<path style="fill:#e09a22; stroke:none;" d="M37.3333 110.667L37.6667 111.333L37.3333 110.667z"/>
<path style="fill:#ce791c; stroke:none;" d="M113 110L114 111L113 110M132.667 110.333L133.333 110.667L132.667 110.333M116 111L116 112L121 112L116 111M126 111L126 112L130 112L126 111M184 112L185 113L184 112z"/>
<path style="fill:#a3a5ac; stroke:none;" d="M185 112L186 113L185 112z"/>
<path style="fill:#e09a22; stroke:none;" d="M38 113L39 114L38 113z"/>
<path style="fill:#ce791c; stroke:none;" d="M76 122L76 123L122 122.725L147 117C145.68 110.838 135.037 117.952 131 119.139C112.504 124.576 94.801 122 76 122M183.333 114.667L183.667 115.333L183.333 114.667z"/>
<path style="fill:#e09a22; stroke:none;" d="M55 115L57 121L58 121L56 117L62 119L62 118L55 115z"/>
<path style="fill:#a3a5ac; stroke:none;" d="M39 116L40 117L39 116z"/>
<path style="fill:#fcfbf8; stroke:none;" d="M55 116L56 117L55 116z"/>
<path style="fill:#e09a22; stroke:none;" d="M40 117L41 118L40 117z"/>
<path style="fill:#fcfbf8; stroke:none;" d="M56 117C71.3522 152.124 128.653 153.257 144 117C123.77 121.794 105.277 127.474 84 124.711C74.2115 123.439 65.4146 119.57 56 117z"/>
<path style="fill:#e09a22; stroke:none;" d="M140.667 117.333L141.333 117.667L140.667 117.333z"/>
<path style="fill:#ce791c; stroke:none;" d="M145 117L127 137C133.361 134.536 146.049 124.652 145 117M182 117L183 118L182 117z"/>
<path style="fill:#e09a22; stroke:none;" d="M138 118L139 119L138 118z"/>
<path style="fill:#ce791c; stroke:none;" d="M181.333 118.667L181.667 119.333L181.333 118.667z"/>
<path style="fill:#e09a22; stroke:none;" d="M41 119L42 120L41 119M63.6667 119.333L64.3333 119.667L63.6667 119.333M135.667 119.333L136.333 119.667L135.667 119.333M143 119L144 120L143 119M66.6667 120.333L67.3333 120.667L66.6667 120.333M131 120L131 121L134 121L131 120M142 120L143 121L142 120z"/>
<path style="fill:#ce791c; stroke:none;" d="M180.333 120.667L180.667 121.333L180.333 120.667z"/>
<path style="fill:#e09a22; stroke:none;" d="M42 121L43 122L42 121M69.6667 121.333L70.3333 121.667L69.6667 121.333M128.667 121.333L129.333 121.667L128.667 121.333M141 121L142 122L141 121M58 122L59 123L58 122M123 122L123 123L126 123L123 122z"/>
<path style="fill:#ce791c; stroke:none;" d="M179 122L180 123L179 122z"/>
<path style="fill:#e09a22; stroke:none;" d="M43 123L44 124L43 123M59 123L60 124L59 123M77 123L77 124L81 124L77 123M116 123L116 124L121 124L116 123M140 123L141 124L140 123M44 124L45 125L44 124M60 124L61 125L60 124M82 124L82 125L87 125L82 124M108 124L108 125L115 125L108 124M139 124L140 125L139 124z"/>
<path style="fill:#ce791c; stroke:none;" d="M178 124L179 125L178 124z"/>
<path style="fill:#e09a22; stroke:none;" d="M138 125L139 126L138 125z"/>
<path style="fill:#ce791c; stroke:none;" d="M177.333 125.667L177.667 126.333L177.333 125.667z"/>
<path style="fill:#e09a22; stroke:none;" d="M45 126L46 127L45 126M137 126L138 127L137 126M46 127L47 128L46 127M62 127L63 128L62 127z"/>
<path style="fill:#ce791c; stroke:none;" d="M176 127L177 128L176 127z"/>
<path style="fill:#a3a5ac; stroke:none;" d="M46 128L47 129L46 128z"/>
<path style="fill:#e09a22; stroke:none;" d="M63 128L64 129L63 128M135 128L136 129L135 128z"/>
<path style="fill:#ce791c; stroke:none;" d="M175 128L176 129L175 128z"/>
<path style="fill:#e09a22; stroke:none;" d="M47 129L48 130L47 129M64 129L65 130L64 129M134 129L135 130L134 129z"/>
<path style="fill:#ce791c; stroke:none;" d="M174.333 129.667L174.667 130.333L174.333 129.667z"/>
<path style="fill:#e09a22; stroke:none;" d="M48 130L49 131L48 130M65 130L66 131L65 130M133 130L134 131L133 130M49 131L50 132L49 131M66 131L67 132L66 131M132 131L133 132L132 131z"/>
<path style="fill:#ce791c; stroke:none;" d="M173 131L174 132L173 131z"/>
<path style="fill:#e09a22; stroke:none;" d="M67 132L68 133L67 132M131 132L132 133L131 132z"/>
<path style="fill:#ce791c; stroke:none;" d="M172 132L171 134L172 132z"/>
<path style="fill:#e09a22; stroke:none;" d="M50 133L51 134L50 133M68 133L69 134L68 133M130 133L131 134L130 133M51 134L52 135L51 134M69 134L70 135L69 134z"/>
<path style="fill:#ce791c; stroke:none;" d="M170 134L169 136L171 136L170 134z"/>
<path style="fill:#e09a22; stroke:none;" d="M52 135L53 136L52 135M71 135L72 136L71 135M53 136L54 137L53 136M72 136L73 137L72 136z"/>
<path style="fill:#ce791c; stroke:none;" d="M168.333 136.667L168.667 137.333L168.333 136.667z"/>
<path style="fill:#e09a22; stroke:none;" d="M54 137L55 138L54 137M73.6667 137.333L74.3333 137.667L73.6667 137.333z"/>
<path style="fill:#ce791c; stroke:none;" d="M119 140L119 141L127 138L119 140z"/>
<path style="fill:#e09a22; stroke:none;" d="M55 138L56 139L55 138M75 138L76 139L75 138z"/>
<path style="fill:#ce791c; stroke:none;" d="M167 138L168 139L167 138z"/>
<path style="fill:#e09a22; stroke:none;" d="M56 139L57 140L56 139M77 139L78 140L77 139z"/>
<path style="fill:#ce791c; stroke:none;" d="M166 139L167 140L166 139z"/>
<path style="fill:#e09a22; stroke:none;" d="M57 140L58 141L57 140M79 140L80 141L79 140z"/>
<path style="fill:#ce791c; stroke:none;" d="M164.667 140.333L165.333 140.667L164.667 140.333z"/>
<path style="fill:#e09a22; stroke:none;" d="M58 141L59 142L58 141M81.6667 141.333L82.3333 141.667L81.6667 141.333M114 141L115 142L114 141M59 142L60 143L59 142M83 142L83 143L86 143L83 142M111.667 142.333L112.333 142.667L111.667 142.333z"/>
<path style="fill:#a3a5ac; stroke:none;" d="M60 143L61 144L60 143z"/>
<path style="fill:#e09a22; stroke:none;" d="M87 143L87 144L90 144L87 143M107 143L107 144L110 144L107 143M62 144L63 145L62 144M93 144L93 145L104 145L93 144z"/>
<path style="fill:#a3a5ac; stroke:none;" d="M161 144L162 145L161 144z"/>
<path style="fill:#e09a22; stroke:none;" d="M63 145L64 146L63 145M159 145L160 146L159 145z"/>
<path style="fill:#a3a5ac; stroke:none;" d="M160 145L161 146L160 145z"/>
<path style="fill:#e09a22; stroke:none;" d="M64 146L65 147L64 146M158 146L159 147L158 146M157 147L158 148L157 147M67 148L68 149L67 148M155 148L156 149L155 148z"/>
<path style="fill:#a3a5ac; stroke:none;" d="M68 149L69 150L68 149z"/>
<path style="fill:#e09a22; stroke:none;" d="M69 149L70 150L69 149M154 149L155 150L154 149M70 150L71 151L70 150M152 150L153 151L152 150M72 151L73 152L72 151z"/>
<path style="fill:#a3a5ac; stroke:none;" d="M151 151L152 152L151 151z"/>
<path style="fill:#e09a22; stroke:none;" d="M74 152L75 153L74 152M149 152L150 153L149 152z"/>
<path style="fill:#a3a5ac; stroke:none;" d="M75 153L76 154L75 153z"/>
<path style="fill:#e09a22; stroke:none;" d="M76 153L77 154L76 153M147 153L148 154L147 153z"/>
<path style="fill:#a3a5ac; stroke:none;" d="M77 154L78 155L77 154z"/>
<path style="fill:#e09a22; stroke:none;" d="M78 154L79 155L78 154z"/>
<path style="fill:#a3a5ac; stroke:none;" d="M145 154L146 155L145 154z"/>
<path style="fill:#e09a22; stroke:none;" d="M80 155L81 156L80 155M142 155L143 156L142 155z"/>
<path style="fill:#a3a5ac; stroke:none;" d="M143 155L144 156L143 155z"/>
<path style="fill:#e09a22; stroke:none;" d="M82 156L83 157L82 156M140 156L141 157L140 156z"/>
<path style="fill:#a3a5ac; stroke:none;" d="M141 156L142 157L141 156M84 157L85 158L84 157z"/>
<path style="fill:#e09a22; stroke:none;" d="M85 157L86 158L85 157M137 157L138 158L137 157z"/>
<path style="fill:#a3a5ac; stroke:none;" d="M138 157L139 158L138 157z"/>
<path style="fill:#e09a22; stroke:none;" d="M88.6667 158.333L89.3333 158.667L88.6667 158.333M133 158L133 159L136 159L133 158M91.6667 159.333L92.3333 159.667L91.6667 159.333M131 159L132 160L131 159z"/>
<path style="fill:#a3a5ac; stroke:none;" d="M95 160L96 161L95 160z"/>
<path style="fill:#e09a22; stroke:none;" d="M96.6667 160.333L97.3333 160.667L96.6667 160.333M126.667 160.333L127.333 160.667L126.667 160.333z"/>
<path style="fill:#a3a5ac; stroke:none;" d="M101 161L102 162L101 161z"/>
<path style="fill:#e09a22; stroke:none;" d="M102 161L102 162L108 162L102 161M116 161L116 162L122 162L116 161z"/>
<path style="fill:#a3a5ac; stroke:none;" d="M47 169L48 170L47 169z"/>
<path style="fill:#e09a22; stroke:none;" d="M48 169L49 170L48 169z"/>
<path style="fill:#ce791c; stroke:none;" d="M49.0008 169.587C35.979 172.999 40.7025 195.13 53.9992 191.332C66.9413 187.635 62.5456 166.039 49.0008 169.587z"/>
<path style="fill:#e09a22; stroke:none;" d="M54.6667 169.333L55.3333 169.667L54.6667 169.333M68 169L68 170L71 170L68 169M75 169L76 170L75 169z"/>
<path style="fill:#ce791c; stroke:none;" d="M72 174L71 174L71 170L68 170L68 191L71 191C71 180.207 73.6428 177.591 79 169L72 174z"/>
<path style="fill:#e09a22; stroke:none;" d="M85.6667 169.333L86.3333 169.667L85.6667 169.333z"/>
<path style="fill:#ce791c; stroke:none;" d="M83 171L83 172C88.9908 171.581 92.8075 171.707 95 178C89.1345 178.049 73.8387 184.842 85.1088 190.806C89.0892 192.912 93.6176 189.678 98 191C98 180.037 98.7986 164.335 83 171z"/>
<path style="fill:#e09a22; stroke:none;" d="M93 169L94 170L93 169M105 169L105 192L109 192L109 191L106 191L106 170L108 173L112 170L109 172L105 169M113 169L114 170L113 169z"/>
<path style="fill:#ce791c; stroke:none;" d="M106 170L106 191L109 191C109 186.136 107.114 172.636 114.997 172.636C122.711 172.636 121 186.233 121 191L124 191C124 184.673 126.541 171.03 118 169.25C112.938 168.195 110.92 172.255 106 170z"/>
<path style="fill:#e09a22; stroke:none;" d="M119 169L120 170L119 169M136 169L137 170L136 169z"/>
<path style="fill:#ce791c; stroke:none;" d="M147 188C145.611 196.746 140.061 199.198 132 197C134.002 203.844 145.285 201.13 148.116 195.977C151.941 189.013 150 177.653 150 170L147 173C129.399 158.952 123.988 192.372 139.998 190.732C142.524 190.474 144.778 189.117 147 188z"/>
<path style="fill:#e09a22; stroke:none;" d="M142 169L143 170L142 169M147 169L147 170L150 170L147 169M162 169L163 170L162 169z"/>
<path style="fill:#ce791c; stroke:none;" d="M173 189C166.191 188.995 160.567 188.694 159 181L175 181C174.475 169.711 159.473 163.689 156.394 177.004C154.29 186.107 165.67 198.628 173 189z"/>
<path style="fill:#e09a22; stroke:none;" d="M168.667 169.333L169.333 169.667L168.667 169.333M45 170L46 171L45 170M57 170L58 171L57 170M78 170L76 172L76 173C78.2508 172.527 79.1178 172.14 78 170M83 170L84 171L83 170M95 170L96 171L95 170z"/>
<path style="fill:#a3a5ac; stroke:none;" d="M121 170L122 171L121 170z"/>
<path style="fill:#e09a22; stroke:none;" d="M134 170L135 171L134 170M144 170L145 171L144 170M160 170L161 171L160 170M171 170L172 171L171 170M44 171L45 172L44 171M50 171L50 172L53 172L50 171M58 171L59 172L58 171M87 171L87 172L91 172L87 171M96 171L97 172L96 171M138 171L138 172L142 172L138 171M145 171L146 172L145 171M164 171L164 172L168 172L164 171M172 171L173 172L172 171M43 172L44 173L43 172M48 172L49 173L48 172z"/>
<path style="fill:#fcfbf8; stroke:none;" d="M49.1088 172.758C41.9991 175.57 44.6512 190.795 52.9807 188.338C61.45 185.839 58.5453 169.026 49.1088 172.758z"/>
<path style="fill:#a3a5ac; stroke:none;" d="M54 172L55 173L54 172z"/>
<path style="fill:#e09a22; stroke:none;" d="M59 172L60 173L59 172M72 172L73 173L72 172M83.6667 172.333L84.3333 172.667L83.6667 172.333z"/>
<path style="fill:#a3a5ac; stroke:none;" d="M92 172L93 173L92 172z"/>
<path style="fill:#e09a22; stroke:none;" d="M112 172L113 173L112 172M117 172L118 173L117 172z"/>
<path style="fill:#fcfbf8; stroke:none;" d="M137.148 173.032C130.625 176.757 134.703 191.614 142.852 186.968C149.337 183.27 145.163 168.456 137.148 173.032z"/>
<path style="fill:#e09a22; stroke:none;" d="M143 172L144 173L143 172M146 172L147 173L146 172M162 172L163 173L162 172z"/>
<path style="fill:#fcfbf8; stroke:none;" d="M159 178L171 178C169.293 169.814 161.975 171.607 159 178z"/>
<path style="fill:#e09a22; stroke:none;" d="M42 173L43 174L42 173M56 173L57 174L56 173M60 173L61 174L60 173M71 173L72 174L71 173M74 173L75 174L74 173z"/>
<path style="fill:#a3a5ac; stroke:none;" d="M93 173L94 174L93 173z"/>
<path style="fill:#e09a22; stroke:none;" d="M97 173L98 174L97 173z"/>
<path style="fill:#a3a5ac; stroke:none;" d="M111 173L112 174L111 173z"/>
<path style="fill:#e09a22; stroke:none;" d="M123.333 173.667L123.667 174.333L123.333 173.667M131 173L132 174L131 173M135 173L136 174L135 173M144 173L145 174L144 173M157 173L158 174L157 173M73 174L74 175L73 174z"/>
<path style="fill:#a3a5ac; stroke:none;" d="M110 174L111 175L110 174z"/>
<path style="fill:#e09a22; stroke:none;" d="M119 174L120 175L119 174M134 174L135 175L134 174z"/>
<path style="fill:#a3a5ac; stroke:none;" d="M160 174L161 175L160 174M170 174L171 175L170 174z"/>
<path style="fill:#e09a22; stroke:none;" d="M41.3333 175.667L41.6667 176.333L41.3333 175.667M45 175L46 176L45 175M57 175L58 176L57 175M61 175L62 176L61 175M72 175L73 176L72 175M94 175L91 177L91 178C93.348 177.706 94.951 177.507 94 175M130 175L131 176L130 175z"/>
<path style="fill:#a3a5ac; stroke:none;" d="M145 175L146 176L145 175z"/>
<path style="fill:#e09a22; stroke:none;" d="M156 175L157 176L156 175M159.333 175.667L159.667 176.333L159.333 175.667M174 175L175 176L174 175z"/>
<path style="fill:#a3a5ac; stroke:none;" d="M109 176L110 177L109 176z"/>
<path style="fill:#e09a22; stroke:none;" d="M133 176L133 179L134 179L133 176M171.333 176.667L171.667 177.333L171.333 176.667z"/>
<path style="fill:#a3a5ac; stroke:none;" d="M90 177L91 178L90 177z"/>
<path style="fill:#e09a22; stroke:none;" d="M98 177L98 191L96 189L95 189L99 192L98 177M120 177L120 192L124 192L124 191L121 191L120 177M44 178L44 182L45 182L44 178M58 178L58 183L59 183L58 178z"/>
<path style="fill:#a3a5ac; stroke:none;" d="M62 178L63 179L62 178z"/>
<path style="fill:#e09a22; stroke:none;" d="M71 178C71 182.57 72.2241 188.262 68 191L68 192L72 192L71 178z"/>
<path style="fill:#a3a5ac; stroke:none;" d="M86 178L87 179L86 178z"/>
<path style="fill:#e09a22; stroke:none;" d="M87 178L88 179L87 178M129 178L129 183L130 183L129 178M146 178L147 179L146 178z"/>
<path style="fill:#a3a5ac; stroke:none;" d="M155 178L156 179L155 178z"/>
<path style="fill:#e09a22; stroke:none;" d="M159 178L159 179L171 179L159 178z"/>
<path style="fill:#a3a5ac; stroke:none;" d="M40 179L40 182L41 182L40 179z"/>
<path style="fill:#e09a22; stroke:none;" d="M62.3333 179.667L62.6667 180.333L62.3333 179.667M84 179L85 180L84 179z"/>
<path style="fill:#a3a5ac; stroke:none;" d="M133 179L133 182L134 182L133 179z"/>
<path style="fill:#e09a22; stroke:none;" d="M155 179L155 183L156 183L155 179M83 180L84 181L83 180M88.6667 180.333L89.3333 180.667L88.6667 180.333z"/>
<path style="fill:#fcfbf8; stroke:none;" d="M94 180C77.7093 181.479 93.8096 196.076 94 180z"/>
<path style="fill:#a3a5ac; stroke:none;" d="M94 180L94 185L95 185L94 180M62 181L63 182L62 181z"/>
<path style="fill:#e09a22; stroke:none;" d="M82 181L83 182L82 181M86 181L87 182L86 181M85 182L86 183L85 182M133.333 182.667L133.667 183.333L133.333 182.667M146 182L147 183L146 182M81 183L82 184L81 183z"/>
<path style="fill:#a3a5ac; stroke:none;" d="M159 183L160 184L159 183z"/>
<path style="fill:#e09a22; stroke:none;" d="M41.3333 184.667L41.6667 185.333L41.3333 184.667M61.3333 184.667L61.6667 185.333L61.3333 184.667M159 184L160 185L159 184M45 185L46 186L45 185M57 185L58 186L57 185M94 185L95 186L94 185M130 185L131 186L130 185M134 185L135 186L134 185M145 185L146 186L145 185M156 185L157 186L156 185M46 186L47 187L46 186z"/>
<path style="fill:#a3a5ac; stroke:none;" d="M56 186L57 187L56 186M135 186L136 187L135 186z"/>
<path style="fill:#e09a22; stroke:none;" d="M144 186L145 187L144 186z"/>
<path style="fill:#a3a5ac; stroke:none;" d="M156 186L157 187L156 186z"/>
<path style="fill:#e09a22; stroke:none;" d="M160 186L161 187L160 186M42 187L43 188L42 187M47 187L48 188L47 187z"/>
<path style="fill:#a3a5ac; stroke:none;" d="M55 187L56 188L55 187z"/>
<path style="fill:#e09a22; stroke:none;" d="M60 187L61 188L60 187M81 187L82 188L81 187M85 187L86 188L85 187M93 187L94 188L93 187M131 187L132 188L131 187M136 187L137 188L136 187M143 187L144 188L143 187M157 187L158 188L157 187M161 187L162 188L161 187M43 188L44 189L43 188M48 188L49 189L48 188M54 188L55 189L54 188M59 188L60 189L59 188z"/>
<path style="fill:#a3a5ac; stroke:none;" d="M81 188L82 189L81 188z"/>
<path style="fill:#e09a22; stroke:none;" d="M86 188L87 189L86 188z"/>
<path style="fill:#a3a5ac; stroke:none;" d="M91 188L92 189L91 188z"/>
<path style="fill:#e09a22; stroke:none;" d="M132 188L133 189L132 188M138 188L138 189L142 189L138 188M145 188L146 192L147 192L145 188M163 188L164 189L163 188M171.667 188.333L172.333 188.667L171.667 188.333M44 189L45 190L44 189M58 189L59 190L58 189M82 189L83 190L82 189M93 189L94 190L93 189M133 189L134 190L133 189M144 189L145 190L144 189M173.333 189.667L173.667 190.333L173.333 189.667z"/>
<path style="fill:#a3a5ac; stroke:none;" d="M45 190L46 191L45 190z"/>
<path style="fill:#e09a22; stroke:none;" d="M46 190L47 191L46 190M56 190L57 191L56 190M83 190L84 191L83 190M92 190L93 191L92 190M135 190L136 191L135 190M142 190L143 191L142 190M149 190L149 194L150 194L149 190M160 190L161 191L160 190M48 191L49 192L48 191M54 191L55 192L54 191M85 191L86 192L85 191M90 191L91 192L90 191M138 191L139 192L138 191z"/>
<path style="fill:#a3a5ac; stroke:none;" d="M139 191L140 192L139 191z"/>
<path style="fill:#e09a22; stroke:none;" d="M162.667 191.333L163.333 191.667L162.667 191.333M170.667 191.333L171.333 191.667L170.667 191.333M145 194L146 195L145 194z"/>
<path style="fill:#a3a5ac; stroke:none;" d="M148 196L149 197L148 196z"/>
<path style="fill:#e09a22; stroke:none;" d="M133.667 197.333L134.333 197.667L133.667 197.333M142 197L143 198L142 197M147 197L148 198L147 197z"/>
<path style="fill:#a3a5ac; stroke:none;" d="M131.333 198.667L131.667 199.333L131.333 198.667z"/>
<path style="fill:#e09a22; stroke:none;" d="M137 198L137 199L140 199L137 198M146 198L147 199L146 198M145 199L146 200L145 199z"/>
<path style="fill:#a3a5ac; stroke:none;" d="M133 200L134 201L133 200z"/>
<path style="fill:#e09a22; stroke:none;" d="M134 200L135 201L134 200M142.667 200.333L143.333 200.667L142.667 200.333z"/>
<path style="fill:#a3a5ac; stroke:none;" d="M32 211L33 212L32 211z"/>
<path style="fill:#e09a22; stroke:none;" d="M33 211L33 212L36 212L33 211M182 211L182 212L185 212L182 211M29 212L29 231L30 231L29 212z"/>
<path style="fill:#ce791c; stroke:none;" d="M30 212L30 231C38.188 230.83 53.6283 220.738 40.7863 213.318C37.6673 211.516 33.4583 212.002 30 212z"/>
<path style="fill:#e09a22; stroke:none;" d="M39.6667 212.333L40.3333 212.667L39.6667 212.333z"/>
<path style="fill:#ce791c; stroke:none;" d="M53 212L47 231C53.2798 226.409 55.7916 220.651 61 231L62 231L56 212L53 212z"/>
<path style="fill:#e09a22; stroke:none;" d="M56.3333 212.667L56.6667 213.333L56.3333 212.667M61 212L61 213L67 214L67 231L68 231L68 213L61 212z"/>
<path style="fill:#ce791c; stroke:none;" d="M62 212L62 213L68 213L68 231L69 231C69 224.439 66.6114 214.338 75 213L62 212z"/>
<path style="fill:#e09a22; stroke:none;" d="M75 212L70 213L70 214L76 213L75 212z"/>
<path style="fill:#a3a5ac; stroke:none;" d="M80 212L81 213L80 212z"/>
<path style="fill:#ce791c; stroke:none;" d="M81 212L75 231C84.1631 224.168 80.8476 224.658 90 231L84 212L81 212z"/>
<path style="fill:#e09a22; stroke:none;" d="M100.333 212.667L100.667 213.333L100.333 212.667z"/>
<path style="fill:#ce791c; stroke:none;" d="M101 212L100 231L101 231L102 214L103 214C103.787 219.332 105.183 227.064 110 230L115 214L116 214L117 231L118 231L117 212C112.018 213.456 110.375 222.274 110 227L103 212L101 212z"/>
<path style="fill:#e09a22; stroke:none;" d="M103 212L104 213L103 212M117 212L117 220L118 220L117 212z"/>
<path style="fill:#ce791c; stroke:none;" d="M123 212L123 231L125 231L125 212L123 212M130 212L130 231L132 231L131 215L144 231L144 212L142 212L142 227L141 227C138.623 221.321 135.65 214.887 130 212z"/>
<path style="fill:#e09a22; stroke:none;" d="M132 212L133 213L132 212z"/>
<path style="fill:#ce791c; stroke:none;" d="M149 212L149 231L151 231L151 212L149 212z"/>
<path style="fill:#e09a22; stroke:none;" d="M155 212L155 231L156 231L155 212z"/>
<path style="fill:#ce791c; stroke:none;" d="M156 212L156 231L157 231L157 215L168 231L169 231L170 212L168 212L168 228L167 228C165.238 222.011 161.694 214.911 156 212z"/>
<path style="fill:#e09a22; stroke:none;" d="M158 212L159 213L158 212z"/>
<path style="fill:#a3a5ac; stroke:none;" d="M178 212L179 213L178 212z"/>
<path style="fill:#e09a22; stroke:none;" d="M179 212L180 213L179 212z"/>
<path style="fill:#ce791c; stroke:none;" d="M189 230L189 221L183 221L183 222L187 222C186.428 239.477 165.324 216.36 182.979 213.485C184.742 213.197 186.296 213.634 188 214C179.667 204.466 165.216 226.515 181.001 230.388C183.606 231.027 186.396 230.322 189 230z"/>
<path style="fill:#a3a5ac; stroke:none;" d="M188 212L189 213L188 212z"/>
<path style="fill:#fcfbf8; stroke:none;" d="M32 213L32 229C45.5086 228.673 45.1859 214.16 32 213z"/>
<path style="fill:#a3a5ac; stroke:none;" d="M36 213L37 214L36 213z"/>
<path style="fill:#e09a22; stroke:none;" d="M37.6667 213.333L38.3333 213.667L37.6667 213.333z"/>
<path style="fill:#a3a5ac; stroke:none;" d="M52 213L53 214L52 213M75 213L76 214L75 213z"/>
<path style="fill:#e09a22; stroke:none;" d="M80 213L81 214L80 213M84.3333 213.667L84.6667 214.333L84.3333 213.667M133 213L134 214L133 213M177 213L178 214L177 213M181.667 213.333L182.333 213.667L181.667 213.333z"/>
<path style="fill:#a3a5ac; stroke:none;" d="M184 213L185 214L184 213z"/>
<path style="fill:#e09a22; stroke:none;" d="M185.667 213.333L186.333 213.667L185.667 213.333M31 214L31 229L32 229L31 214z"/>
<path style="fill:#a3a5ac; stroke:none;" d="M39 214L40 215L39 214z"/>
<path style="fill:#e09a22; stroke:none;" d="M52 214L53 215L52 214M54 214L55 217L56 217L54 214M69 214L69 231L70 231L69 214M82 214L81 217L82 217L82 214M102.333 214.667L102.667 215.333L102.333 214.667M104.333 214.667L104.667 215.333L104.333 214.667M113 214L114 215L113 214M115 214L114 217L115 214z"/>
<path style="fill:#a3a5ac; stroke:none;" d="M179 214L180 215L179 214z"/>
<path style="fill:#e09a22; stroke:none;" d="M43 215L44 216L43 215z"/>
<path style="fill:#fcfbf8; stroke:none;" d="M54 215L52 223L57 223L54 215z"/>
<path style="fill:#e09a22; stroke:none;" d="M57 215L58 216L57 215z"/>
<path style="fill:#a3a5ac; stroke:none;" d="M79 215L80 216L79 215z"/>
<path style="fill:#fcfbf8; stroke:none;" d="M82 215L80 223L85 223L82 215z"/>
<path style="fill:#e09a22; stroke:none;" d="M131 215L131 218L132 218L133 215L131 215M134 215L135 216L134 215M157 215L157 231L158 231L159 215L157 215M160 215L161 216L160 215M177 215L178 216L177 215z"/>
<path style="fill:#a3a5ac; stroke:none;" d="M51 216L52 217L51 216z"/>
<path style="fill:#e09a22; stroke:none;" d="M53.3333 216.667L53.6667 217.333L53.3333 216.667M79 216L80 217L79 216M83.3333 216.667L83.6667 217.333L83.3333 216.667M85.3333 216.667L85.6667 217.333L85.3333 216.667z"/>
<path style="fill:#a3a5ac; stroke:none;" d="M112 216L113 217L112 216M115 216L116 217L115 216M135 216L136 217L135 216z"/>
<path style="fill:#e09a22; stroke:none;" d="M174 216L175 217L174 216M44 217L45 218L44 217M51 217L52 218L51 217M103 217L104 218L103 217M105 217L106 218L105 217M112 217L113 218L112 217M133 217L134 218L133 217M159 217L160 218L159 217M176 217L177 218L176 217M42 218L43 219L42 218M56.3333 218.667L56.6667 219.333L56.3333 218.667M58.3333 218.667L58.6667 219.333L58.3333 218.667M78.3333 218.667L78.6667 219.333L78.3333 218.667M80.3333 218.667L80.6667 219.333L80.3333 218.667M101 218L102 219L101 218M136 218L137 219L136 218M162 218L163 219L162 218M50.3333 219.667L50.6667 220.333L50.3333 219.667M52.3333 219.667L52.6667 220.333L52.3333 219.667M86 219L87 220L86 219M111.333 219.667L111.667 220.333L111.333 219.667M113 219L114 220L113 219z"/>
<path style="fill:#a3a5ac; stroke:none;" d="M134 219L135 220L134 219z"/>
<path style="fill:#e09a22; stroke:none;" d="M160 219L161 220L160 219M173 219L173 224L174 224L173 219M175 219L175 223L176 223L175 219M84 220L85 221L84 220M101 220L101 228L102 228L101 220M104 220L105 221L104 220M106 220L107 221L106 220M135 220L136 221L135 220M163 220L164 221L163 220M57.3333 221.667L57.6667 222.333L57.3333 221.667M59.3333 221.667L59.6667 222.333L59.3333 221.667M77.3333 221.667L77.6667 222.333L77.3333 221.667M79.3333 221.667L79.6667 222.333L79.3333 221.667z"/>
<path style="fill:#a3a5ac; stroke:none;" d="M104 221L105 222L104 221z"/>
<path style="fill:#e09a22; stroke:none;" d="M138 221L139 222L138 221M164 221L165 222L164 221z"/>
<path style="fill:#a3a5ac; stroke:none;" d="M42 222L43 223L42 222z"/>
<path style="fill:#e09a22; stroke:none;" d="M49.3333 222.667L49.6667 223.333L49.3333 222.667M51 222L52 223L51 222M85 222L86 223L85 222M87.3333 222.667L87.6667 223.333L87.3333 222.667z"/>
<path style="fill:#a3a5ac; stroke:none;" d="M99.3333 222.667L99.6667 223.333L99.3333 222.667z"/>
<path style="fill:#e09a22; stroke:none;" d="M110 222L111 223L110 222M112 222L113 223L112 222M136 222L137 223L136 222M162 222L163 223L162 222M183 222L183 223L187 223L183 222M42 223L43 224L42 223M105 223L106 224L105 223M107.333 223.667L107.667 224.333L107.333 223.667M137 223L138 224L137 223M139 223L140 224L139 223M165 223L166 224L165 223M44 224L45 225L44 224M51 224L51 225L58 225L51 224M60 224L61 225L60 224M76.3333 224.667L76.6667 225.333L76.3333 224.667M79 224L79 225L86 225L79 224M99 224L99 231L100 231L99 224M111.333 224.667L111.667 225.333L111.333 224.667z"/>
<path style="fill:#a3a5ac; stroke:none;" d="M140 224L141 225L140 224M163 224L164 225L163 224z"/>
<path style="fill:#e09a22; stroke:none;" d="M48.3333 225.667L48.6667 226.333L48.3333 225.667M58 225L59 226L58 225M78 225L79 226L78 225M86.3333 225.667L86.6667 226.333L86.3333 225.667M88.3333 225.667L88.6667 226.333L88.3333 225.667M109 225L108 227L110 227L109 225z"/>
<path style="fill:#a3a5ac; stroke:none;" d="M118.333 225.667L118.667 226.333L118.333 225.667z"/>
<path style="fill:#e09a22; stroke:none;" d="M138 225L139 226L138 225M140 225L141 226L140 225M164 225L165 226L164 225M166 225L167 226L166 225M176 225L177 226L176 225M43 226L44 227L43 226M50 226L51 227L50 226M106 226L107 227L106 226M174 226L175 227L174 226M177 226L178 227L177 226M40 227L41 228L40 227M59.3333 227.667L59.6667 228.333L59.3333 227.667M61 227L62 228L61 227M75.3333 227.667L75.6667 228.333L75.3333 227.667M110 227L111 228L110 227M118 227L118 231L119 231L118 227z"/>
<path style="fill:#a3a5ac; stroke:none;" d="M139 227L140 228L139 227z"/>
<path style="fill:#e09a22; stroke:none;" d="M142 227L143 228L142 227M165 227L166 228L165 227M167 227L168 228L167 227M175 227L176 228L175 227M178 227L179 228L178 227M38 228L39 229L38 228M47.3333 228.667L47.6667 229.333L47.3333 228.667M49.3333 228.667L49.6667 229.333L49.3333 228.667M77 228L78 229L77 228M89 228L90 229L89 228z"/>
<path style="fill:#a3a5ac; stroke:none;" d="M101.333 228.667L101.667 229.333L101.333 228.667z"/>
<path style="fill:#e09a22; stroke:none;" d="M116 228L116 231L117 231L116 228M140 228L141 229L140 228M166 228L167 229L166 228M176 228L177 229L176 228M179 228L180 229L179 228z"/>
<path style="fill:#a3a5ac; stroke:none;" d="M180 228L181 229L180 228z"/>
<path style="fill:#e09a22; stroke:none;" d="M186 228L187 229L186 228M32 229L32 230L36 230L32 229M40 229L41 230L40 229M87 229L88 230L87 229M107 229L108 230L107 229M177 229L178 230L177 229M182 229L182 230L185 230L182 229M36.6667 230.333L37.3333 230.667L36.6667 230.333z"/>
<path style="fill:#a3a5ac; stroke:none;" d="M38 230L39 231L38 230z"/>
<path style="fill:#e09a22; stroke:none;" d="M60 230L61 231L60 230M62 230L63 231L62 230M74 230L75 231L74 230M108.667 230.333L109.333 230.667L108.667 230.333M141 230L142 231L141 230M167 230L168 231L167 230M169 230L170 231L169 230M179.667 230.333L180.333 230.667L179.667 230.333M185.667 230.333L186.333 230.667L185.667 230.333z"/>
<path style="fill:#a3a5ac; stroke:none;" d="M187 230L188 231L187 230z"/>
</svg>
