<?xml version="1.0" encoding="UTF-8"?>
<svg xmlns="http://www.w3.org/2000/svg" xmlns:xlink="http://www.w3.org/1999/xlink" width="100px" height="100px" viewBox="0 0 100 66" version="1.1">
<g id="surface1">
<path style=" stroke:none;fill-rule:nonzero;fill:rgb(0%,0%,0%);fill-opacity:1;" d="M 42.804688 11.421875 C 45.238281 11.492188 49.238281 11.492188 51.707031 11.421875 C 54.140625 11.382812 52.144531 11.3125 47.238281 11.3125 C 42.332031 11.3125 40.335938 11.382812 42.804688 11.421875 Z M 42.804688 11.421875 "/>
<path style=" stroke:none;fill-rule:nonzero;fill:rgb(0%,0%,0%);fill-opacity:1;" d="M 37.683594 11.78125 C 37.535156 11.886719 37.425781 14.015625 37.425781 16.464844 L 37.425781 20.894531 L 32.523438 20.894531 C 25.582031 20.894531 26.164062 19.777344 26.164062 33.109375 C 26.164062 46.222656 25.546875 45.03125 32.59375 45.03125 L 37.425781 45.03125 L 37.425781 49.464844 C 37.425781 52.417969 37.574219 54.039062 37.863281 54.328125 C 38.191406 54.652344 42.585938 54.761719 55.449219 54.761719 C 70.566406 54.761719 72.675781 54.6875 73.183594 54.183594 C 73.691406 53.679688 73.765625 51.769531 73.691406 37.71875 C 73.65625 28.964844 73.546875 24.28125 73.511719 27.273438 L 73.363281 32.785156 L 56.324219 32.785156 L 56.324219 21.976562 L 54.503906 21.976562 C 53.160156 21.976562 52.6875 21.832031 52.6875 21.472656 C 52.6875 21.183594 52.433594 20.679688 52.109375 20.390625 C 51.636719 19.921875 50.4375 19.8125 44.660156 19.8125 L 37.753906 19.8125 L 37.863281 15.671875 C 37.9375 13.402344 37.972656 11.527344 37.9375 11.527344 C 37.9375 11.527344 37.789062 11.636719 37.683594 11.78125 Z M 37.136719 28.605469 C 37.753906 29.902344 38.410156 30.875 38.589844 30.765625 C 38.773438 30.660156 39.390625 29.613281 39.972656 28.425781 C 41.023438 26.371094 41.132812 26.300781 42.515625 26.300781 C 43.3125 26.300781 43.96875 26.40625 43.96875 26.585938 C 43.96875 26.730469 43.167969 28.136719 42.152344 29.722656 C 41.171875 31.308594 40.335938 32.710938 40.335938 32.890625 C 40.335938 33.035156 41.132812 34.40625 42.078125 35.953125 C 43.058594 37.46875 43.96875 38.945312 44.113281 39.160156 C 44.296875 39.519531 43.933594 39.628906 42.734375 39.628906 L 41.097656 39.628906 L 39.753906 37.105469 L 38.371094 34.585938 L 37.171875 36.636719 C 36.554688 37.792969 35.902344 38.945312 35.71875 39.195312 C 35.539062 39.519531 34.882812 39.628906 33.867188 39.558594 L 32.304688 39.449219 L 34.449219 36.207031 L 36.589844 32.929688 L 35.792969 31.703125 C 35.355469 31.019531 34.484375 29.503906 33.828125 28.351562 L 32.667969 26.300781 L 35.972656 26.300781 Z M 37.136719 28.605469 "/>
</g>
</svg>
