<?xml version="1.0" standalone="yes"?>
<svg xmlns="http://www.w3.org/2000/svg" width="300" height="168">
<path style="fill:#fefeff; stroke:none;" d="M0 0L0 168L300 168L300 0L0 0z"/>
<path style="fill:#608fa8; stroke:none;" d="M33 53L33 59L28 59L28 60L33 60L33 66L35 66L35 60L40 60L40 59L35 59L35 53L33 53z"/>
<path style="fill:#ff993c; stroke:none;" d="M16 59L16 67L8 67L8 70L16 70L16 78L19 78L19 70L27 70L27 67L19 67L19 59L16 59z"/>
<path style="fill:#0c4080; stroke:none;" d="M49 59L50 60L49 59z"/>
<path style="fill:#608fa8; stroke:none;" d="M50 59L49 67L41 67L41 70L49 70L50 78L51 78L52 70L60 70L60 67L52 67L50 59z"/>
<path style="fill:#0c4080; stroke:none;" d="M51 59L52 60L51 59z"/>
<path style="fill:#608fa8; stroke:none;" d="M193 65L193 66L197 66L193 65z"/>
<path style="fill:#0c4080; stroke:none;" d="M193 66L193 101L197 101L197 66L193 66z"/>
<path style="fill:#608fa8; stroke:none;" d="M159 69L160 97L161 97L159 69z"/>
<path style="fill:#0c4080; stroke:none;" d="M160 69C160 75.0748 157.192 90.5537 161.028 95.3966C168.944 105.392 186.449 83.9643 170.981 79.1219C168.457 78.3315 165.586 78.8496 163 79L163 69L160 69z"/>
<path style="fill:#608fa8; stroke:none;" d="M163 69L163 79L164 79L163 69M92 70L92 71L96 71L92 70z"/>
<path style="fill:#0c4080; stroke:none;" d="M92 71L92 82L81 82L81 85L92 85L92 98L96 98L96 85L107 85L107 82L96 82L96 71L92 71z"/>
<path style="fill:#ff993c; stroke:none;" d="M32 73L32 82L23 82C24.4559 86.3866 27.8496 85.9853 32 86L32 95L36 95L36 86C40.1504 85.9853 43.5441 86.3866 45 82L36 82L36 73L32 73z"/>
<path style="fill:#608fa8; stroke:none;" d="M7 77L7 83L2 83L2 85L7 85L7 90L9 90L9 85L15 84L15 83L9 83L9 77L7 77z"/>
<path style="fill:#0c4080; stroke:none;" d="M49 77L50 78L49 77M51 77L52 78L51 77M58 77L58 83L53 83L53 85L58 85L58 91L59 91L60 77L58 77z"/>
<path style="fill:#608fa8; stroke:none;" d="M60 77L59 91C62.2589 88.1523 61.5804 80.7663 60 77M128.667 78.3333L129.333 78.6667L128.667 78.3333z"/>
<path style="fill:#0c4080; stroke:none;" d="M139 78C135.239 78.4002 130.505 77.8202 127.044 79.4483C113.028 86.0416 130.509 104.82 137.972 95.3966C140.79 91.8387 139 82.3629 139 78z"/>
<path style="fill:#608fa8; stroke:none;" d="M132.667 78.3333L133.333 78.6667L132.667 78.3333M135 78L136 79L135 78M139 78L139 96L140 96L139 78M165 78L165 79L168 79L165 78M169.667 78.3333L170.333 78.6667L169.667 78.3333M220 78L220 79L226 79L220 78M253 78L253 79L256 79L253 78z"/>
<path style="fill:#0c4080; stroke:none;" d="M265 78C261.239 78.4002 256.505 77.8202 253.044 79.4483C238.899 86.1021 256.502 104.828 263.972 95.3966C266.79 91.8387 265 82.3629 265 78z"/>
<path style="fill:#608fa8; stroke:none;" d="M258.667 78.3333L259.333 78.6667L258.667 78.3333M261 78L262 79L261 78M281 78L281 79L285 79L281 78M294 78L294 79L298 79L294 78z"/>
<path style="fill:#0c4080; stroke:none;" d="M230 97L230 93C224.419 94.3243 219.788 94.1635 218 88L231 88C229.701 64.3378 200.409 92.9636 221.004 96.7716C223.901 97.3073 227.065 97 230 97z"/>
<path style="fill:#608fa8; stroke:none;" d="M227 79L228 80L227 79M251 79L252 80L251 79z"/>
<path style="fill:#0c4080; stroke:none;" d="M281 79C282.079 83.5307 280.539 91.0454 283.603 94.6821C294.469 107.579 298 85.0907 298 79L294 79C294 96.4258 285 96.4018 285 79L281 79z"/>
<path style="fill:#608fa8; stroke:none;" d="M124 80L125 81L124 80M174 80L175 81L174 80M216 80L217 81L216 80M250 80L251 81L250 80M281 80L281 93L282 93L281 80M215 81L216 82L215 81M249 81L250 82L249 81M128 82L126 85L128 82z"/>
<path style="fill:#fefeff; stroke:none;" d="M135 94C135 92.0056 135.07 89.9927 134.981 88C134.421 75.5455 119.784 88.6728 130.084 93.2577C131.643 93.9516 133.341 93.9089 135 94z"/>
<path style="fill:#608fa8; stroke:none;" d="M134 82L135 83L134 82M163 82L165 94L165 82L163 82z"/>
<path style="fill:#fefeff; stroke:none;" d="M165.603 83.0471C161.511 86.0325 164.65 97.2161 170.566 92.2531C174.78 88.7183 170.565 79.427 165.603 83.0471z"/>
<path style="fill:#608fa8; stroke:none;" d="M170 82L171 83L170 82M220 82L221 83L220 82z"/>
<path style="fill:#fefeff; stroke:none;" d="M219 86L227 86C224.791 82.0071 220.685 81.2127 219 86z"/>
<path style="fill:#608fa8; stroke:none;" d="M225 82L226 83L225 82M230 82L231 83L230 82M254 82L255 83L254 82z"/>
<path style="fill:#fefeff; stroke:none;" d="M261 94C261 92.0056 261.07 89.9927 260.981 88C260.409 75.289 245.347 88.6335 256.034 93.2577C257.616 93.9421 259.321 93.908 261 94z"/>
<path style="fill:#608fa8; stroke:none;" d="M260 82L261 83L260 82z"/>
<path style="fill:#0c4080; stroke:none;" d="M61 83L61 85L66 85L66 83L61 83z"/>
<path style="fill:#608fa8; stroke:none;" d="M122 83L123 84L122 83M135 83L135 94L136 94L135 83M171 83L172 84L171 83M176.333 83.6667L176.667 84.3333L176.333 83.6667M214 83L215 84L214 83M226 83L227 84L226 83M248 83L249 84L248 83M261 83L261 92L262 92L261 83M218.333 84.6667L218.667 85.3333L218.333 84.6667M252 84L253 85L252 84M81 85L81 86L92 86L81 85M96 85L96 86L107 86L96 85M172 85L173 86L172 85M231 85C228.261 89.2241 222.57 88 218 88L218 89L232 89L231 85M213 86L213 90L214 90L213 86M247 86L247 90L248 90L247 86M251.333 87.6667L251.667 88.3333L251.333 87.6667z"/>
<path style="fill:#f4421a; stroke:none;" d="M16 89L16 98L8 98L8 100L16 100L16 108L19 108L19 100L27 100L27 98L19 98L19 89L16 89z"/>
<path style="fill:#0c4080; stroke:none;" d="M49 89L49 98L41 98L41 100L49 100L49 108L52 108L52 100L60 100L60 98L52 98L52 89L49 89z"/>
<path style="fill:#608fa8; stroke:none;" d="M126 90L127 91L126 90M172 90L173 91L172 90M122 91L123 92L122 91M176 91L177 92L176 91M218 91L219 92L218 91M252 91L253 92L252 91M285.333 91.6667L285.667 92.3333L285.333 91.6667M127 92L128 93L127 92M171 92L172 93L171 92M214 92L215 93L214 92M219 92L220 93L219 92M248 92L249 93L248 92M253 92L254 93L253 92M293 92L294 93L293 92M129 93L130 94L129 93M169 93L170 94L169 93M175 93L176 94L175 93M220 93L221 94L220 93M228 93L229 94L228 93M230 93L230 96L231 96L230 93M255 93L256 94L255 93M286 93L287 94L286 93M297 93L298 94L297 93M282 94L283 95L282 94M288 94L288 95L292 95L288 94M173 95L174 96L173 95M283 95L284 96L283 95M126 96L127 97L126 96M138 96L139 97L138 96M172 96L173 97L172 96M218 96L219 97L218 96M252 96L253 97L252 96M264 96L265 97L264 96M294 96L295 97L294 96z"/>
<path style="fill:#ff993c; stroke:none;" d="M8 97L8 98L16 98L8 97M19 97L19 98L27 98L19 97z"/>
<path style="fill:#608fa8; stroke:none;" d="M41 97L41 98L49 98L41 97M52 97L52 98L60 98L52 97M93.6667 97.3333L94.3333 97.6667L93.6667 97.3333M129 97L129 98L136 98L129 97M163 97L163 98L170 98L163 97M221 97L221 98L228 98L221 97M255 97L255 98L261 98L255 97M288 97L288 98L292 98L288 97z"/>
<path style="fill:#0c4080; stroke:none;" d="M33 101L33 107L28 107L28 109L33 109L33 115L35 115L35 109L40 109L40 107L35 107L35 101L33 101z"/>
<path style="fill:#608fa8; stroke:none;" d="M27.3333 107.667L27.6667 108.333L27.3333 107.667M33 107L33 109L35 109L35 107L33 107M40.3333 107.667L40.6667 108.333L40.3333 107.667z"/>
<path style="fill:#ff993c; stroke:none;" d="M16 108L16 109L19 109L16 108z"/>
<path style="fill:#608fa8; stroke:none;" d="M49 108L49 109L52 109L49 108M32 109L33 110L32 109M35 109L36 110L35 109z"/>
</svg>
