<?xml version="1.0" standalone="yes"?>
<svg xmlns="http://www.w3.org/2000/svg" width="2084" height="2084">
<path style="fill:#ffffff; stroke:none;" d="M0 0L0 2084L2084 2084L2084 0L0 0z"/>
<path style="fill:#aeafb3; stroke:none;" d="M950 1332L950 1229C926.195 1225.48 901.681 1213.26 880 1203.31C796.515 1164.98 708.177 1086.46 728.801 985C731.919 969.66 737.878 954.738 745.309 941C759.064 915.568 779.028 893.988 801 875.424C842.195 840.621 892.811 817.715 944 801.975C1059.73 766.39 1192.56 767.05 1309 799.424C1371.39 816.77 1434.34 849.16 1470.31 905C1538.02 1010.12 1489.95 1157.14 1375 1205L1375 1206C1387.91 1212.43 1399.1 1226.54 1404 1240C1438.15 1218.92 1469.7 1191.63 1495.58 1161C1514.38 1138.74 1530.51 1113.81 1542 1087C1551.09 1065.79 1557.36 1043.84 1560.58 1021C1577.27 902.523 1499.67 800.15 1405 738.344C1227.58 622.516 979.246 611.153 784 685.424C727.161 707.046 672.872 737.12 627 777.285C599.153 801.667 574.714 829.985 556.012 862C542.261 885.538 531.897 911.298 526.211 938C522.024 957.659 520.999 976.97 521 997C521.004 1051.86 545.255 1104.91 577.627 1148C642.206 1233.97 748.341 1288.21 851 1313.87C882.641 1321.78 917.176 1331.91 950 1332z"/>
<path style="fill:#ffffff; stroke:none;" d="M950 1229L950 856L1232 856C1292.82 856 1354.17 852.438 1407 888.344C1473.22 933.346 1488.93 1032.12 1448.55 1100C1429.65 1131.76 1399.93 1154.03 1366 1167.6C1351.02 1173.59 1333.27 1179.66 1317 1180C1328.65 1188.72 1347.65 1190.98 1361 1197.32C1365.64 1199.52 1371.59 1205.08 1377 1204.23C1387.73 1202.54 1400.15 1192.23 1409 1186.33C1441.43 1164.71 1468.3 1135.86 1484.14 1100C1521.83 1014.68 1497.21 910.118 1423 853.235C1377.3 818.208 1321.77 800.352 1266 789.2C1149.07 765.818 1021.06 771.273 909 813.576C858.37 832.69 807.032 861.446 771.428 903C757.973 918.703 745.975 935.809 738.012 955C732.08 969.296 727.646 984.55 726.17 1000C717.126 1094.65 798.851 1167.59 878 1202.86C899.901 1212.62 925.785 1226.89 950 1229z"/>
<path style="fill:#aeafb3; stroke:none;" d="M950 856L950 857L1313 857L1281 856L1207 856L950 856z"/>
<path style="fill:#2066b8; stroke:none;" d="M950 857L950 1443L1128 1443L1128 1214L1166 1214C1172.58 1214 1179.87 1213.01 1186 1215.8C1206.58 1225.15 1219.59 1249.21 1230.28 1268C1253.98 1309.67 1275.85 1352.6 1298.22 1395C1303.68 1405.35 1309.37 1415.6 1314.74 1426C1317.21 1430.78 1319.5 1437.8 1323.63 1441.4C1326.98 1444.31 1333.88 1443 1338 1443L1376 1443L1525 1443C1499.39 1394.88 1468.79 1349.15 1441.42 1302C1430.53 1283.23 1419.32 1264.64 1408.2 1246C1402.12 1235.82 1397.17 1224.71 1388.83 1216.09C1371.84 1198.54 1339.07 1184.55 1315 1181C1325.53 1177.43 1337.21 1176.65 1348 1173.57C1376.75 1165.37 1406.04 1150.93 1426.83 1128.96C1474.55 1078.53 1484.22 990.961 1448.55 931C1433.16 905.137 1409.05 886.692 1382 874.309C1331.51 851.189 1274.98 857 1221 857L950 857z"/>
<path style="fill:#626262; stroke:none;" d="M1317 857L1318 858L1317 857z"/>
<path style="fill:#aeafb3; stroke:none;" d="M1318 857L1318 858L1322 858L1318 857M1326 858L1326 859L1329 859L1326 858M1332 859L1332 860L1335 860L1332 859M1337 860L1337 861L1340 861L1337 860M1342.67 861.333L1343.33 861.667L1342.67 861.333M1346.67 862.333L1347.33 862.667L1346.67 862.333M1350.67 863.333L1351.33 863.667L1350.67 863.333M1354.67 864.333L1355.33 864.667L1354.67 864.333M1357.67 865.333L1358.33 865.667L1357.67 865.333M1361 866L1362 867L1361 866M1364 867L1365 868L1364 867M1367 868L1368 869L1367 868M1369.67 869.333L1370.33 869.667L1369.67 869.333M1372 870L1373 871L1372 870M1375 871L1376 872L1375 871M1377 872L1378 873L1377 872M1380 873L1381 874L1380 873M1382 874L1383 875L1382 874M1384 875L1385 876L1384 875M1386 876L1387 877L1386 876M1388 877L1389 878L1388 877M1390 878L1391 879L1390 878M1392 879L1393 880L1392 879M1394 880L1395 881L1394 880M1396 881L1397 882L1396 881M1399 883L1400 884L1399 883M1401 884L1402 885L1401 884M1404 886L1405 887L1404 886M1407 888L1408 889L1407 888M1410 890L1411 891L1410 890M1414 893L1415 894L1414 893M1418 896L1419 897L1418 896M1419 897L1420 898L1419 897M1420 898L1421 899L1420 898M1425 902L1426 903L1425 902M1426 903L1427 904L1426 903M1427 904L1428 905L1427 904M1428 905L1429 906L1428 905M1429 906L1430 907L1429 906M1430 907L1431 908L1430 907M1431 908L1432 909L1431 908M1436 914L1437 915L1436 914M1437 915L1438 916L1437 915M1438 916L1439 917L1438 916M1440 919L1441 920L1440 919M1441 920L1442 921L1441 920M1443 923L1444 924L1443 923M1444 924L1445 925L1444 924M1445 926L1446 927L1445 926M1446 927L1447 928L1446 927M1447 929L1448 930L1447 929M1449 932L1450 933L1449 932M1450 934L1451 935L1450 934M1451 936L1452 937L1451 936M1452 938L1453 939L1452 938M1453 940L1454 941L1453 940M1454 942L1455 943L1454 942M1455 944L1456 945L1455 944M1456 946L1457 947L1456 946M1457 948L1458 949L1457 948M1458 951L1459 952L1458 951M1459.33 953.667L1459.67 954.333L1459.33 953.667M1460.33 956.667L1460.67 957.333L1460.33 956.667M1461.33 959.667L1461.67 960.333L1461.33 959.667M1462.33 962.667L1462.67 963.333L1462.33 962.667M1463 966L1464 967L1463 966M1464.33 969.667L1464.67 970.333L1464.33 969.667M1465 973L1465 976L1466 976L1465 973M1466 978L1466 981L1467 981L1466 978M1129 984L1129 1081L1130 1081L1130 1014L1129 984z"/>
<path style="fill:#ffffff; stroke:none;" d="M1130 984L1130 1048L1129 1082C1140.08 1085.28 1154.46 1083 1166 1083L1221 1083C1235.1 1083 1249.13 1083.52 1262 1076.68C1291.12 1061.18 1295.37 1013.85 1269 993.529C1255.42 983.061 1237.18 984 1221 984L1130 984z"/>
<path style="fill:#aeafb3; stroke:none;" d="M1242 984L1242 985L1247 985L1242 984M1467 984L1467 987L1468 987L1467 984M1250.67 985.333L1251.33 985.667L1250.67 985.333M1254 986L1255 987L1254 986M1257 987L1258 988L1257 987M1260 988L1261 989L1260 988M1262 989L1263 990L1262 989M1264 990L1265 991L1264 990M1468 991L1468 996L1469 996L1468 991M1267 992L1268 993L1267 992M1270 994L1271 995L1270 994M1271 995L1272 996L1271 995M1272 996L1273 997L1272 996M1273 997L1274 998L1273 997M1274 998L1275 999L1274 998M1275 999L1276 1000L1275 999M1276 1000L1277 1001L1276 1000M1278 1003L1279 1004L1278 1003M1469 1003L1469 1026L1470 1026L1469 1003M1279 1004L1280 1005L1279 1004M1280 1006L1281 1007L1280 1006M1281 1008L1282 1009L1281 1008M1282 1010L1283 1011L1282 1010M1283 1013L1284 1014L1283 1013M1284.33 1016.67L1284.67 1017.33L1284.33 1016.67M1285 1020L1285 1023L1286 1023L1285 1020M1286 1029L1286 1037L1287 1037L1286 1029M1468 1033L1468 1038L1469 1038L1468 1033M1285 1042L1285 1045L1286 1045L1285 1042M1467 1042L1467 1045L1468 1045L1467 1042M1284.33 1048.67L1284.67 1049.33L1284.33 1048.67M1466 1048L1466 1051L1467 1051L1466 1048M1283.33 1051.67L1283.67 1052.33L1283.33 1051.67M1282 1054L1283 1055L1282 1054M1465.33 1054.67L1465.67 1055.33L1465.33 1054.67M1281 1056L1282 1057L1281 1056M1280 1058L1281 1059L1280 1058M1464.33 1058.67L1464.67 1059.33L1464.33 1058.67M1279 1060L1280 1061L1279 1060M1463.33 1062.67L1463.67 1063.33L1463.33 1062.67M1277 1063L1278 1064L1277 1063M1462.33 1066.67L1462.67 1067.33L1462.33 1066.67M1274 1067L1275 1068L1274 1067M1273 1068L1274 1069L1273 1068M1272 1069L1273 1070L1272 1069M1461.33 1069.67L1461.67 1070.33L1461.33 1069.67M1268 1072L1269 1073L1268 1072M1460.33 1072.67L1460.67 1073.33L1460.33 1072.67M1267 1073L1268 1074L1267 1073M1265 1074L1266 1075L1265 1074M1264 1075L1265 1076L1264 1075M1459.33 1075.67L1459.67 1076.33L1459.33 1075.67M1262 1076L1263 1077L1262 1076M1260 1077L1261 1078L1260 1077M1258 1078L1259 1079L1258 1078M1458.33 1078.67L1458.67 1079.33L1458.33 1078.67M1255 1079L1256 1080L1255 1079M1252.67 1080.33L1253.33 1080.67L1252.67 1080.33M1248.67 1081.33L1249.33 1081.67L1248.67 1081.33M1457 1081L1458 1082L1457 1081M1129 1082C1133.34 1086.96 1150.56 1084 1157 1084L1238 1084L1238 1083L1166 1083L1129 1082M1243 1082L1243 1083L1246 1083L1243 1082M1456.33 1083.67L1456.67 1084.33L1456.33 1083.67M1455 1086L1456 1087L1455 1086M1454 1088L1455 1089L1454 1088M1453 1090L1454 1091L1453 1090M1452 1092L1453 1093L1452 1092M1451 1094L1452 1095L1451 1094M1450 1096L1451 1097L1450 1096M1449 1098L1450 1099L1449 1098M1448 1100L1449 1101L1448 1100M1447 1101L1448 1102L1447 1101M1446 1103L1447 1104L1446 1103M1444 1106L1445 1107L1444 1106M1442 1109L1443 1110L1442 1109M1440 1112L1441 1113L1440 1112M1439 1113L1440 1114L1439 1113M1437 1116L1438 1117L1437 1116M1436 1117L1437 1118L1436 1117M1433 1121L1434 1122L1433 1121M1432 1122L1433 1123L1432 1122M1431 1123L1432 1124L1431 1123M1430 1124L1431 1125L1430 1124M1429 1125L1430 1126L1429 1125M1421 1133L1422 1134L1421 1133M1420 1134L1421 1135L1420 1134M1419 1135L1420 1136L1419 1135M1418 1136L1419 1137L1418 1136M1417 1137L1418 1138L1417 1137M1413 1140L1414 1141L1413 1140M1412 1141L1413 1142L1412 1141M1409 1143L1410 1144L1409 1143M1408 1144L1409 1145L1408 1144M1405 1146L1406 1147L1405 1146M1404 1147L1405 1148L1404 1147M1402 1148L1403 1149L1402 1148M1401 1149L1402 1150L1401 1149M1399 1150L1400 1151L1399 1150M1398 1151L1399 1152L1398 1151M1396 1152L1397 1153L1396 1152M1393 1154L1394 1155L1393 1154M1391 1155L1392 1156L1391 1155M1389 1156L1390 1157L1389 1156M1386 1158L1387 1159L1386 1158M1384 1159L1385 1160L1384 1159M1382 1160L1383 1161L1382 1160M1380 1161L1381 1162L1380 1161M1378 1162L1379 1163L1378 1162M1375 1163L1376 1164L1375 1163M1373 1164L1374 1165L1373 1164M1371 1165L1372 1166L1371 1165M1368 1166L1369 1167L1368 1166M1366 1167L1367 1168L1366 1167M1363 1168L1364 1169L1363 1168M1360.67 1169.33L1361.33 1169.67L1360.67 1169.33M1357.67 1170.33L1358.33 1170.67L1357.67 1170.33M1354.67 1171.33L1355.33 1171.67L1354.67 1171.33M1351.67 1172.33L1352.33 1172.67L1351.67 1172.33M1348 1173L1349 1174L1348 1173M1344.67 1174.33L1345.33 1174.67L1344.67 1174.33M1340.67 1175.33L1341.33 1175.67L1340.67 1175.33M1336.67 1176.33L1337.33 1176.67L1336.67 1176.33M1332.67 1177.33L1333.33 1177.67L1332.67 1177.33M1327.67 1178.33L1328.33 1178.67L1327.67 1178.33M1320 1179L1320 1180L1324 1180L1320 1179M1315.67 1180.33L1316.33 1180.67L1315.67 1180.33M1318 1181L1319 1182L1318 1181M1321 1182L1322 1183L1321 1182M1324 1183L1325 1184L1324 1183M1327 1184L1328 1185L1327 1184M1330 1185L1331 1186L1330 1185M1333 1186L1334 1187L1333 1186M1336 1187L1337 1188L1336 1187M1338.67 1188.33L1339.33 1188.67L1338.67 1188.33M1341 1189L1342 1190L1341 1189M1344 1190L1345 1191L1344 1190M1346.67 1191.33L1347.33 1191.67L1346.67 1191.33M1349 1192L1350 1193L1349 1192M1351.67 1193.33L1352.33 1193.67L1351.67 1193.33M1354 1194L1355 1195L1354 1194M1356 1195L1357 1196L1356 1195M1358.67 1196.33L1359.33 1196.67L1358.67 1196.33M1361 1197L1362 1198L1361 1197M1363 1198L1364 1199L1363 1198M1365 1199L1366 1200L1365 1199M1368 1201L1369 1202L1368 1201M1370 1202L1371 1203L1370 1202M1372 1203L1373 1204L1372 1203M1373 1204L1374 1205L1373 1204z"/>
<path style="fill:#626262; stroke:none;" d="M1378 1207L1379 1208L1378 1207M1379 1208L1380 1209L1379 1208M1382 1210L1383 1211L1382 1210M1383 1211L1384 1212L1383 1211M1384 1212L1385 1213L1384 1212z"/>
<path style="fill:#ffffff; stroke:none;" d="M1128 1214L1128 1253L1217 1248C1211.85 1234.41 1196.58 1217.88 1182 1214.53C1165.55 1210.75 1144.88 1214 1128 1214z"/>
<path style="fill:#aeafb3; stroke:none;" d="M1182.67 1214.33L1183.33 1214.67L1182.67 1214.33M1185 1215L1186 1216L1185 1215M1187 1216L1188 1217L1187 1216M1189 1217L1190 1218L1189 1217M1191 1218L1192 1219L1191 1218M1192 1219L1193 1220L1192 1219z"/>
<path style="fill:#626262; stroke:none;" d="M1391 1219L1392 1220L1391 1219M1392 1220L1393 1221L1392 1220z"/>
<path style="fill:#aeafb3; stroke:none;" d="M1195 1221L1196 1222L1195 1221z"/>
<path style="fill:#626262; stroke:none;" d="M1393 1221L1394 1222L1393 1221z"/>
<path style="fill:#aeafb3; stroke:none;" d="M1196 1222L1197 1223L1196 1222z"/>
<path style="fill:#626262; stroke:none;" d="M1395 1224L1396 1225L1395 1224z"/>
<path style="fill:#aeafb3; stroke:none;" d="M1200 1225L1201 1226L1200 1225z"/>
<path style="fill:#626262; stroke:none;" d="M1396 1225L1397 1226L1396 1225z"/>
<path style="fill:#aeafb3; stroke:none;" d="M1201 1226L1202 1227L1201 1226M1202 1227L1203 1228L1202 1227z"/>
<path style="fill:#626262; stroke:none;" d="M1397 1227L1398 1228L1397 1227z"/>
<path style="fill:#aeafb3; stroke:none;" d="M1203 1228L1204 1229L1203 1228z"/>
<path style="fill:#626262; stroke:none;" d="M1399 1230L1400 1231L1399 1230z"/>
<path style="fill:#aeafb3; stroke:none;" d="M1206 1232L1207 1233L1206 1232z"/>
<path style="fill:#626262; stroke:none;" d="M1400 1232L1401 1233L1400 1232z"/>
<path style="fill:#aeafb3; stroke:none;" d="M1207 1233L1208 1234L1207 1233M1208 1234L1209 1235L1208 1234z"/>
<path style="fill:#626262; stroke:none;" d="M1401 1234L1402 1235L1401 1234M1402 1236L1403 1237L1402 1236z"/>
<path style="fill:#aeafb3; stroke:none;" d="M1210 1237L1211 1238L1210 1237z"/>
<path style="fill:#626262; stroke:none;" d="M1403 1237L1404 1238L1403 1237z"/>
<path style="fill:#aeafb3; stroke:none;" d="M1211 1238L1212 1239L1211 1238M1213 1241L1214 1242L1213 1241M1405 1241L1406 1242L1405 1241M1214 1242L1215 1243L1214 1242z"/>
<path style="fill:#626262; stroke:none;" d="M1406 1243L1407 1244L1406 1243z"/>
<path style="fill:#aeafb3; stroke:none;" d="M1215 1244L1216 1245L1215 1244M1407 1244L1408 1245L1407 1244M1216 1245L1217 1246L1216 1245M1408 1246L1409 1247L1408 1246M1128 1253L1128 1333C1170.52 1332.12 1210.56 1315.1 1252 1309L1218 1247C1189.85 1254.28 1156.94 1253 1128 1253z"/>
<path style="fill:#626262; stroke:none;" d="M1218 1248L1219 1249L1218 1248z"/>
<path style="fill:#aeafb3; stroke:none;" d="M1409 1248L1410 1249L1409 1248M1410 1249L1411 1250L1410 1249z"/>
<path style="fill:#626262; stroke:none;" d="M1219 1250L1220 1251L1219 1250M1220 1251L1221 1252L1220 1251z"/>
<path style="fill:#aeafb3; stroke:none;" d="M1411 1251L1412 1252L1411 1251z"/>
<path style="fill:#626262; stroke:none;" d="M1221 1253L1222 1254L1221 1253z"/>
<path style="fill:#aeafb3; stroke:none;" d="M1412 1253L1413 1254L1412 1253M1413 1254L1414 1255L1413 1254z"/>
<path style="fill:#626262; stroke:none;" d="M1223 1256L1224 1257L1223 1256z"/>
<path style="fill:#aeafb3; stroke:none;" d="M1414 1256L1415 1257L1414 1256M1415 1258L1416 1259L1415 1258z"/>
<path style="fill:#626262; stroke:none;" d="M1225 1259L1226 1260L1225 1259M1226 1261L1227 1262L1226 1261z"/>
<path style="fill:#aeafb3; stroke:none;" d="M1417 1261L1418 1262L1417 1261M1418 1263L1419 1264L1418 1263z"/>
<path style="fill:#626262; stroke:none;" d="M1228 1264L1229 1265L1228 1264M1229 1266L1230 1267L1229 1266z"/>
<path style="fill:#aeafb3; stroke:none;" d="M1420 1266L1421 1267L1420 1266M1421 1268L1422 1269L1421 1268z"/>
<path style="fill:#626262; stroke:none;" d="M1232 1271L1233 1272L1232 1271z"/>
<path style="fill:#aeafb3; stroke:none;" d="M1423 1271L1424 1272L1423 1271z"/>
<path style="fill:#626262; stroke:none;" d="M1233 1273L1234 1274L1233 1273z"/>
<path style="fill:#aeafb3; stroke:none;" d="M1424 1273L1425 1274L1424 1273z"/>
<path style="fill:#626262; stroke:none;" d="M1234 1275L1235 1276L1234 1275z"/>
<path style="fill:#aeafb3; stroke:none;" d="M1425 1275L1426 1276L1425 1275M1426 1276L1427 1277L1426 1276z"/>
<path style="fill:#626262; stroke:none;" d="M1235 1277L1236 1278L1235 1277z"/>
<path style="fill:#aeafb3; stroke:none;" d="M1427 1278L1428 1279L1427 1278z"/>
<path style="fill:#626262; stroke:none;" d="M1236 1279L1237 1280L1236 1279z"/>
<path style="fill:#aeafb3; stroke:none;" d="M1428 1280L1429 1281L1428 1280z"/>
<path style="fill:#626262; stroke:none;" d="M1237 1281L1238 1282L1237 1281z"/>
<path style="fill:#aeafb3; stroke:none;" d="M1429 1281L1430 1282L1429 1281M1430 1283L1431 1284L1430 1283M1431 1285L1432 1286L1431 1285z"/>
<path style="fill:#626262; stroke:none;" d="M1240 1286L1241 1287L1240 1286M1241 1288L1242 1289L1241 1288z"/>
<path style="fill:#aeafb3; stroke:none;" d="M1433 1288L1434 1289L1433 1288z"/>
<path style="fill:#626262; stroke:none;" d="M1242 1290L1243 1291L1242 1290z"/>
<path style="fill:#aeafb3; stroke:none;" d="M1434 1290L1435 1291L1434 1290z"/>
<path style="fill:#626262; stroke:none;" d="M1243 1292L1244 1293L1243 1292z"/>
<path style="fill:#aeafb3; stroke:none;" d="M1436 1293L1437 1294L1436 1293z"/>
<path style="fill:#626262; stroke:none;" d="M1244 1294L1245 1295L1244 1294z"/>
<path style="fill:#aeafb3; stroke:none;" d="M1437 1295L1438 1296L1437 1295z"/>
<path style="fill:#626262; stroke:none;" d="M1245 1296L1246 1297L1245 1296z"/>
<path style="fill:#aeafb3; stroke:none;" d="M1439 1298L1440 1299L1439 1298M1440 1300L1441 1301L1440 1300z"/>
<path style="fill:#626262; stroke:none;" d="M1248 1301L1249 1302L1248 1301z"/>
<path style="fill:#aeafb3; stroke:none;" d="M1441 1302L1442 1303L1441 1302z"/>
<path style="fill:#626262; stroke:none;" d="M1249 1303L1250 1304L1249 1303z"/>
<path style="fill:#aeafb3; stroke:none;" d="M1442 1303L1443 1304L1442 1303z"/>
<path style="fill:#626262; stroke:none;" d="M1250 1305L1251 1306L1250 1305z"/>
<path style="fill:#aeafb3; stroke:none;" d="M1443 1305L1444 1306L1443 1305z"/>
<path style="fill:#626262; stroke:none;" d="M1251 1307L1252 1308L1251 1307z"/>
<path style="fill:#aeafb3; stroke:none;" d="M1444 1307L1445 1308L1444 1307M1445 1308L1446 1309L1445 1308M1252 1309L1253 1310L1252 1309M1446 1310L1447 1311L1446 1310M1253 1311L1254 1312L1253 1311M1447 1312L1448 1313L1447 1312M1448 1313L1449 1314L1448 1313M1255 1314L1256 1315L1255 1314M1449 1315L1450 1316L1449 1315M1256 1316L1257 1317L1256 1316M1450 1317L1451 1318L1450 1317M1257 1318L1258 1319L1257 1318M1258 1320L1259 1321L1258 1320M1452 1320L1453 1321L1452 1320M1259 1322L1260 1323L1259 1322M1453 1322L1454 1323L1453 1322M1260 1324L1261 1325L1260 1324M1455 1325L1456 1326L1455 1325M1261 1326L1262 1327L1261 1326M1456 1327L1457 1328L1456 1327M1263 1329L1264 1330L1263 1329z"/>
<path style="fill:#626262; stroke:none;" d="M1457 1329L1458 1330L1457 1329z"/>
<path style="fill:#aeafb3; stroke:none;" d="M1458 1330L1459 1331L1458 1330M1264 1331L1265 1332L1264 1331M1459 1332L1460 1333L1459 1332M1265 1333L1266 1334L1265 1333M1460 1334L1461 1335L1460 1334M1266 1335L1267 1336L1266 1335M1461 1335L1462 1336L1461 1335M1267 1337L1268 1338L1267 1337M1462 1337L1463 1338L1462 1337M1268 1339L1269 1340L1268 1339M1463 1339L1464 1340L1463 1339M1464 1340L1465 1341L1464 1340M1269 1341L1270 1342L1269 1341M1465 1342L1466 1343L1465 1342M1270 1343L1271 1344L1270 1343M1271 1344L1272 1345L1271 1344M1466 1344L1467 1345L1466 1344M1272 1346L1273 1347L1272 1346M1468 1347L1469 1348L1468 1347M1273 1348L1274 1349L1273 1348M1469 1349L1470 1350L1469 1349M1274 1350L1275 1351L1274 1350M1275 1352L1276 1353L1275 1352M1471 1352L1472 1353L1471 1352M1276 1354L1277 1355L1276 1354M1472 1354L1473 1355L1472 1354M1277 1356L1278 1357L1277 1356M1474 1357L1475 1358L1474 1357M1278 1358L1279 1359L1278 1358M1279 1359L1280 1360L1279 1359M1475 1359L1476 1360L1475 1359M1280 1361L1281 1362L1280 1361z"/>
<path style="fill:#626262; stroke:none;" d="M1476 1361L1477 1362L1476 1361z"/>
<path style="fill:#aeafb3; stroke:none;" d="M1477 1362L1478 1363L1477 1362M1281 1363L1282 1364L1281 1363M1478 1364L1479 1365L1478 1364M1282 1365L1283 1366L1282 1365M1479 1366L1480 1367L1479 1366M1283 1367L1284 1368L1283 1367M1480 1367L1481 1368L1480 1367M1284 1369L1285 1370L1284 1369M1481 1369L1482 1370L1481 1369M1285 1371L1286 1372L1285 1371M1482 1371L1483 1372L1482 1371M1286 1373L1287 1374L1286 1373M1287 1374L1288 1375L1287 1374M1484 1374L1485 1375L1484 1374M1288 1376L1289 1377L1288 1376M1485 1376L1486 1377L1485 1376M1289 1378L1290 1379L1289 1378M1487 1379L1488 1380L1487 1379M1290 1380L1291 1381L1290 1380M1488 1381L1489 1382L1488 1381M1291 1382L1292 1383L1291 1382M1292 1384L1293 1385L1292 1384M1490 1384L1491 1385L1490 1384M1293 1386L1294 1387L1293 1386M1491 1386L1492 1387L1491 1386M1294 1388L1295 1389L1294 1388z"/>
<path style="fill:#626262; stroke:none;" d="M1492 1388L1493 1389L1492 1388z"/>
<path style="fill:#aeafb3; stroke:none;" d="M1493 1389L1494 1390L1493 1389M1296 1391L1297 1392L1296 1391M1494 1391L1495 1392L1494 1391M1297 1393L1298 1394L1297 1393z"/>
<path style="fill:#626262; stroke:none;" d="M1495 1393L1496 1394L1495 1393z"/>
<path style="fill:#aeafb3; stroke:none;" d="M1496 1394L1497 1395L1496 1394M1298 1395L1299 1396L1298 1395M1497 1396L1498 1397L1497 1396M1299 1397L1300 1398L1299 1397M1498 1398L1499 1399L1498 1398M1300 1399L1301 1400L1300 1399M1499 1399L1500 1400L1499 1399M1301 1401L1302 1402L1301 1401M1500 1401L1501 1402L1500 1401M1302 1403L1303 1404L1302 1403M1501 1403L1502 1404L1501 1403M1304 1406L1305 1407L1304 1406M1503 1406L1504 1407L1503 1406M1305 1408L1306 1409L1305 1408M1504 1408L1505 1409L1504 1408M1306 1410L1307 1411L1306 1410M1506 1411L1507 1412L1506 1411M1307 1412L1308 1413L1307 1412M1507 1413L1508 1414L1507 1413M1308 1414L1309 1415L1308 1414M1309 1416L1310 1417L1309 1416M1509 1416L1510 1417L1509 1416M1310 1418L1311 1419L1310 1418M1510 1418L1511 1419L1510 1418z"/>
<path style="fill:#626262; stroke:none;" d="M1511 1420L1512 1421L1511 1420z"/>
<path style="fill:#aeafb3; stroke:none;" d="M1312 1421L1313 1422L1312 1421M1512 1421L1513 1422L1512 1421M1313 1423L1314 1424L1313 1423M1513 1423L1514 1424L1513 1423M1314 1425L1315 1426L1314 1425M1514 1425L1515 1426L1514 1425M1515 1426L1516 1427L1515 1426M1315 1427L1316 1428L1315 1427M1516 1428L1517 1429L1516 1428M1316 1429L1317 1430L1316 1429M1517 1430L1518 1431L1517 1430M1317 1431L1318 1432L1317 1431M1318 1433L1319 1434L1318 1433M1519 1433L1520 1434L1519 1433M1319 1435L1320 1436L1319 1435M1520 1435L1521 1436L1520 1435M1320 1436L1321 1437L1320 1436M1321 1438L1322 1439L1321 1438M1522 1438L1523 1439L1522 1438M1322 1440L1323 1441L1322 1440M1523 1440L1524 1441L1523 1440M1323 1442L1324 1443L1323 1442M950 1443L950 1444L1127 1444L1110 1443L1074 1443L950 1443M1324 1443L1324 1444L1525 1444L1506 1443L1465 1443L1324 1443M693 1925L693 1926L703 1925L693 1925M772 1924L772 1947L773 1947L773 1925L776 1926L772 1924M823 1924L823 1934L824 1934L824 1925L827 1926L823 1924M856 1924L856 1925L862 1926L856 1924M869 1925L869 1926L873 1925L873 1947L874 1947L874 1924L869 1925M946 1930L947 1930L947 1925L957 1925C951.67 1922.76 946.486 1923.76 946 1930M991 1924L991 1925L996 1925L991 1924M1006 1925L1006 1926L1011 1925L1006 1925M1113 1925L1113 1926L1126 1925L1126 1927C1119.66 1927 1114.84 1927.42 1117 1935L1118 1935L1117 1928L1127 1928L1127 1924L1113 1925M1232 1924L1232 1947L1233 1947L1233 1925L1236 1926L1232 1924M1266 1924L1266 1925L1272 1925L1266 1924M1280 1924L1280 1925L1283 1926L1280 1924M1321 1924L1321 1947L1322 1947C1322 1940.56 1320 1930.28 1324 1925L1321 1924M1350 1924L1350 1928L1362 1928L1362 1927L1351 1927L1351 1925L1366 1926L1350 1924M1368 1928L1369 1928L1369 1925L1372 1927C1372.66 1923.07 1368.74 1925.18 1368 1928z"/>
<path style="fill:#626262; stroke:none;" d="M694 1925L694 1947C698.615 1947 703.932 1947.36 707.775 1944.3C713.626 1939.63 712.561 1929.61 705.981 1926.18C702.471 1924.35 697.829 1925 694 1925z"/>
<path style="fill:#aeafb3; stroke:none;" d="M705 1925L706 1926L705 1925z"/>
<path style="fill:#626262; stroke:none;" d="M773 1925L773 1947L775 1947L775 1925L773 1925M824 1925L824 1934C816.157 1928.43 805.996 1937.33 813.167 1945C816.693 1948.77 821.921 1945.69 826 1947L826 1925L824 1925z"/>
<path style="fill:#aeafb3; stroke:none;" d="M837 1925L837 1947L838 1947L837 1925z"/>
<path style="fill:#626262; stroke:none;" d="M838 1925L838 1947L841 1947L841 1939C846.695 1938.87 857.465 1933.48 849.566 1927.01C846.458 1924.46 841.744 1925 838 1925z"/>
<path style="fill:#aeafb3; stroke:none;" d="M847.667 1925.33L848.333 1925.67L847.667 1925.33z"/>
<path style="fill:#626262; stroke:none;" d="M856 1925L856 1947L860 1947L859 1932L873 1947L873 1925L870 1925L870 1940C866.373 1934.07 863.724 1925.6 856 1925z"/>
<path style="fill:#aeafb3; stroke:none;" d="M884.667 1925.33L885.333 1925.67L884.667 1925.33z"/>
<path style="fill:#626262; stroke:none;" d="M889 1934L889 1938L896 1938C891.689 1943.66 878.159 1943.11 882.086 1934.02C885.226 1926.75 892.507 1931.95 897 1928C883.105 1920.72 868.773 1938.21 884.005 1945.68C889.571 1948.41 905.252 1940.95 898.356 1935.03C896.219 1933.19 891.608 1934 889 1934z"/>
<path style="fill:#aeafb3; stroke:none;" d="M891.667 1925.33L892.333 1925.67L891.667 1925.33M910 1925L910 1947L911 1947L910 1925z"/>
<path style="fill:#626262; stroke:none;" d="M911 1925L911 1947L914 1947L914 1939C919.695 1938.87 930.465 1933.48 922.566 1927.01C919.458 1924.46 914.744 1925 911 1925z"/>
<path style="fill:#aeafb3; stroke:none;" d="M920.667 1925.33L921.333 1925.67L920.667 1925.33M928 1929L933 1926L928 1929z"/>
<path style="fill:#626262; stroke:none;" d="M928 1940C931.914 1953.61 949.411 1941.93 938.943 1935.07C936.85 1933.7 934.317 1932.9 932 1932L932 1930L938 1931L942 1930C939.249 1925.41 928.549 1922.75 928.752 1931C928.804 1933.13 944.404 1945.73 932.044 1941.27C930.632 1940.76 929.465 1940.36 928 1940z"/>
<path style="fill:#aeafb3; stroke:none;" d="M937.667 1925.33L938.333 1925.67L937.667 1925.33z"/>
<path style="fill:#626262; stroke:none;" d="M947 1925L947 1947C951.866 1947 957.72 1947.58 961.772 1944.3C967.103 1939.98 965.911 1929.36 959.956 1926.18C956.242 1924.2 951.069 1925 947 1925z"/>
<path style="fill:#aeafb3; stroke:none;" d="M959 1925L960 1926L959 1925M978.667 1925.33L979.333 1925.67L978.667 1925.33z"/>
<path style="fill:#626262; stroke:none;" d="M986 1939C982.71 1944.29 979.022 1940.23 974 1941C979.39 1950.32 994.235 1944.26 987.397 1936.65C985.178 1934.18 981.004 1933.17 978 1932L978 1930L987 1931L988 1930C984.015 1922.41 971.365 1926.68 976.608 1933.78C978.726 1936.64 982.825 1937.77 986 1939z"/>
<path style="fill:#aeafb3; stroke:none;" d="M984 1925L985 1926L984 1925z"/>
<path style="fill:#626262; stroke:none;" d="M991 1925C992.522 1928.95 996.088 1946.36 1001.08 1946.36C1005.87 1946.36 1009.73 1928.9 1011 1925C1004.25 1926.12 1003.44 1934.51 1001 1940L996 1925L991 1925z"/>
<path style="fill:#aeafb3; stroke:none;" d="M1019.67 1925.33L1020.33 1925.67L1019.67 1925.33z"/>
<path style="fill:#626262; stroke:none;" d="M1024 1934L1024 1938L1031 1938C1026.69 1943.66 1013.16 1943.11 1017.09 1934.02C1020.23 1926.75 1027.51 1931.95 1032 1928C1018.11 1920.72 1003.77 1938.21 1019 1945.68C1024.57 1948.41 1040.25 1940.95 1033.36 1935.03C1031.22 1933.19 1026.61 1934 1024 1934z"/>
<path style="fill:#aeafb3; stroke:none;" d="M1026.67 1925.33L1027.33 1925.67L1026.67 1925.33M1045 1925L1045 1947L1046 1947L1045 1925z"/>
<path style="fill:#626262; stroke:none;" d="M1046 1925L1046 1947L1059 1947L1059 1943L1049 1943L1049 1938L1058 1938L1058 1934L1049 1934L1049 1929L1059 1929L1059 1925L1046 1925z"/>
<path style="fill:#aeafb3; stroke:none;" d="M1059 1925L1059 1929L1060 1929L1059 1925M1063 1925L1063 1929L1064 1929L1063 1925z"/>
<path style="fill:#626262; stroke:none;" d="M1064 1925L1064 1947L1068 1947L1068 1939C1074.16 1938.85 1083.87 1932.87 1075.77 1926.74C1072.57 1924.32 1067.77 1925 1064 1925z"/>
<path style="fill:#aeafb3; stroke:none;" d="M1074 1925L1075 1926L1074 1925M1085.67 1925.33L1086.33 1925.67L1085.67 1925.33z"/>
<path style="fill:#626262; stroke:none;" d="M1093 1939C1089.71 1944.29 1086.02 1940.23 1081 1941C1086.39 1950.32 1101.24 1944.26 1094.4 1936.65C1092.18 1934.18 1088 1933.17 1085 1932L1085 1930L1094 1931L1095 1930C1091.01 1922.41 1078.36 1926.68 1083.61 1933.78C1085.73 1936.64 1089.83 1937.77 1093 1939z"/>
<path style="fill:#aeafb3; stroke:none;" d="M1091 1925L1092 1926L1091 1925z"/>
<path style="fill:#626262; stroke:none;" d="M1114 1925L1114 1947L1116 1947C1116.03 1939.84 1117.52 1937.09 1125 1937L1125 1935C1113.9 1934.87 1115.83 1927.04 1126 1927L1126 1925L1114 1925M1233 1925L1233 1947L1235 1947L1235 1925L1233 1925z"/>
<path style="fill:#aeafb3; stroke:none;" d="M1264 1925L1263 1927L1264 1925z"/>
<path style="fill:#626262; stroke:none;" d="M1262 1941C1263.77 1946.95 1274.23 1950.06 1275.62 1941.98C1276.25 1938.33 1258.84 1924.93 1271.84 1928.01C1272.85 1928.25 1274.03 1928.7 1275 1929C1272.32 1924.14 1261.92 1923.38 1262.8 1930.91C1263.4 1936.03 1269.94 1935.71 1272.25 1939.39C1275.11 1943.94 1268.64 1944.21 1266.04 1942.98C1264.66 1942.32 1263.41 1941.61 1262 1941z"/>
<path style="fill:#aeafb3; stroke:none;" d="M1273 1925L1274 1926L1273 1925z"/>
<path style="fill:#626262; stroke:none;" d="M1279 1925L1283 1927L1279 1925M1322 1925L1322 1947L1324 1947L1324 1925L1322 1925M1351 1925L1351 1927L1362 1927L1350 1947L1365 1947L1365 1945L1354 1945L1365 1925L1351 1925M1369 1925L1369 1928L1372 1928L1372 1925L1369 1925z"/>
<path style="fill:#aeafb3; stroke:none;" d="M707 1926L708 1927L707 1926M849 1926L850 1927L849 1926M855 1926L855 1936L856 1936L855 1926M882 1926L883 1927L882 1926M894 1926L895 1927L894 1926M922 1926L923 1927L922 1926M961 1926L962 1927L961 1926M976 1926L977 1927L976 1926M986 1926L987 1927L986 1926M991 1926L992 1927L991 1926M1010.33 1926.67L1010.67 1927.33L1010.33 1926.67M1017 1926L1018 1927L1017 1926M1029 1926L1030 1927L1029 1926M1076 1926L1077 1927L1076 1926M1083 1926L1084 1927L1083 1926M1093 1926L1094 1927L1093 1926M1274 1926L1275 1927L1274 1926M1324 1926L1324 1929L1325 1929L1324 1926M702 1945L702 1944L697 1944L697 1928L704 1928C693.506 1923.64 692.335 1944.25 702 1945M708 1927L709 1928L708 1927M775 1927L775 1945L776 1945L775 1927M862 1927L863 1928L862 1927M881 1927L882 1928L881 1927M896 1927L897 1928L896 1927M962 1927L963 1928L962 1927M987 1927L988 1928L987 1927M996 1927L997 1928L996 1927M1005.33 1927.67L1005.67 1928.33L1005.33 1927.67M1016 1927L1017 1928L1016 1927M1031 1927L1032 1928L1031 1927M1077 1927L1078 1928L1077 1927M1094 1927L1095 1928L1094 1927M1113 1927L1114 1928L1113 1927z"/>
<path style="fill:#626262; stroke:none;" d="M1201 1927L1199 1932L1199 1933L1199 1934C1202.75 1938.95 1199.08 1945.74 1207 1947C1204.14 1941.34 1201.57 1937.97 1207 1933L1203 1927L1201 1927z"/>
<path style="fill:#aeafb3; stroke:none;" d="M1203 1927L1203 1931L1204 1931L1203 1927M1235 1927L1235 1931L1236 1931L1235 1927M1266 1927L1267 1928L1266 1927M1271 1927L1272 1928L1271 1927M1275.33 1927.67L1275.67 1928.33L1275.33 1927.67M1279 1927L1280 1928L1279 1927M1282 1927L1283 1928L1282 1927M693 1928L693 1944L694 1944L693 1928z"/>
<path style="fill:#ffffff; stroke:none;" d="M697 1928L697 1944C711.726 1943.87 711.845 1928.05 697 1928z"/>
<path style="fill:#aeafb3; stroke:none;" d="M705 1928L706 1929L705 1928M709 1928L710 1929L709 1928M826 1928L826 1944L827 1944L826 1928M851 1928L852 1929L851 1928M869 1928L869 1940L870 1940L869 1928M880 1928L881 1929L880 1928M924 1928L925 1929L924 1928M941 1928L942 1929L941 1928M951 1928L951 1929L957 1929L951 1928M963 1928L964 1929L963 1928M988.333 1928.67L988.667 1929.33L988.333 1928.67M992.333 1928.67L992.667 1929.33L992.333 1928.67M1015 1928L1016 1929L1015 1928M1095.33 1928.67L1095.67 1929.33L1095.33 1928.67M1262 1928L1263 1929L1262 1928M1265 1928L1266 1929L1265 1928M1272 1928L1273 1929L1272 1928M1280.67 1928.33L1281.33 1928.67L1280.67 1928.33M1364 1928L1365 1929L1364 1928M1370 1928L1371 1929L1370 1928M706 1929L707 1930L706 1929M710 1929L711 1930L710 1929M841 1929L841 1935L842 1935L841 1929z"/>
<path style="fill:#ffffff; stroke:none;" d="M842 1929L842 1935C848.534 1934.49 848.534 1929.51 842 1929z"/>
<path style="fill:#aeafb3; stroke:none;" d="M847 1929L848 1930L847 1929M863 1929L864 1930L863 1929M879 1929L880 1930L879 1929M885.667 1929.33L886.333 1929.67L885.667 1929.33M891 1929L892 1930L891 1929M896 1929L897 1930L896 1929M914 1929L914 1935L915 1935L914 1929z"/>
<path style="fill:#ffffff; stroke:none;" d="M915 1929L915 1935C921.534 1934.49 921.534 1929.51 915 1929z"/>
<path style="fill:#aeafb3; stroke:none;" d="M920 1929L921 1930L920 1929M933 1929L934 1930L933 1929M937 1929L938 1930L937 1929M942 1929L943 1930L942 1929z"/>
<path style="fill:#ffffff; stroke:none;" d="M951 1929L951 1943C963.448 1942.7 963.619 1929.15 951 1929z"/>
<path style="fill:#aeafb3; stroke:none;" d="M958 1929L959 1930L958 1929M974 1929L974 1932L975 1932L974 1929M979 1929L980 1930L979 1929M983 1929L984 1930L983 1929M1009 1929L1010 1930L1009 1929M1014 1929L1015 1930L1014 1929M1020.67 1929.33L1021.33 1929.67L1020.67 1929.33M1026 1929L1027 1930L1026 1929M1031 1929L1032 1930L1031 1929M1049 1929L1049 1934L1050 1934L1049 1929z"/>
<path style="fill:#ffffff; stroke:none;" d="M1068 1929L1068 1935C1074.95 1934.47 1074.95 1929.53 1068 1929z"/>
<path style="fill:#aeafb3; stroke:none;" d="M1073 1929L1074 1930L1073 1929M1078 1929L1079 1930L1078 1929M1081 1929L1081 1932L1082 1932L1081 1929M1086 1929L1087 1930L1086 1929M1090 1929L1091 1930L1090 1929M1113 1929L1113 1934L1114 1934L1113 1929M1273.67 1929.33L1274.33 1929.67L1273.67 1929.33M1360 1929L1361 1930L1360 1929M707 1930L708 1931L707 1930M852 1930L852 1934L853 1934L852 1930M864 1930L865 1931L864 1930M878 1930L879 1931L878 1930M893 1930L894 1931L893 1930M895 1930L896 1931L895 1930M925 1930L925 1934L926 1934L925 1930M932 1930L933 1931L932 1930M940.667 1930.33L941.333 1930.67L940.667 1930.33M959 1930L960 1931L959 1930M964 1930L965 1931L964 1930M978.333 1930.67L978.667 1931.33L978.333 1930.67M984 1930L985 1931L984 1930M987 1930L988 1931L987 1930M997 1930L998 1931L997 1930M1004.33 1930.67L1004.67 1931.33L1004.33 1930.67M1013 1930L1014 1931L1013 1930M1028 1930L1029 1931L1028 1930M1030 1930L1031 1931L1030 1930M1063 1930L1063 1942L1064 1942L1063 1930M1074 1930L1075 1931L1074 1930M1085.33 1930.67L1085.67 1931.33L1085.33 1930.67M1091 1930L1092 1931L1091 1930M1094 1930L1095 1931L1094 1930M1324.33 1930.67L1324.67 1931.33L1324.33 1930.67M1359 1930L1360 1931L1359 1930M719 1931L719 1932L725 1932L719 1931M731 1931L730 1934L731 1934L731 1931M741 1931L741 1932L744 1933L741 1931M751 1931L750 1933L751 1931M756 1931L755 1947L756 1947L758 1932L756 1931M758 1934L766 1932C762.629 1930.64 760.475 1931.47 758 1934M783 1931L783 1932L789 1932L783 1931M799 1931L799 1932L805 1932L799 1931M815 1931L815 1932L821 1932L815 1931M848.333 1931.67L848.667 1932.33L848.333 1931.67M921.333 1931.67L921.667 1932.33L921.333 1931.67M946 1931L946 1934L947 1934L946 1931M960 1931L961 1932L960 1931M993.333 1931.67L993.667 1932.33L993.333 1931.67M1133 1931L1133 1932L1139 1932L1133 1931M1147 1931L1148 1934L1149 1934L1147 1931M1151 1931L1151 1932L1155 1932L1151 1931M1158 1931L1157 1947L1158 1947L1160 1932L1158 1931M1163 1931L1163 1932L1170 1934L1163 1931M1172 1931L1172 1932L1180 1934L1172 1931M1186 1931L1186 1932L1193 1932L1186 1931M1199.67 1931.33L1200.33 1931.67L1199.67 1931.33M1204 1931L1204 1932L1207 1932L1204 1931M1213 1931L1213 1932L1219 1932L1213 1931M1245 1931L1245 1932L1250 1932L1245 1931M1262.33 1931.67L1262.67 1932.33L1262.33 1931.67M1265 1931L1266 1932L1265 1931M1280 1931L1279 1947L1280 1947L1280 1932L1282 1932L1282 1947L1283 1947L1282 1931L1280 1931M1288 1931L1289 1932L1288 1931M1289 1934L1297 1932C1293.63 1930.64 1291.48 1931.47 1289 1934M1307 1931L1307 1932L1312 1932L1307 1931M1316 1931L1317 1950L1318 1950L1316 1931M1331 1931L1331 1932L1337 1932L1331 1931M1362 1931L1363 1932L1362 1931M1369 1931L1370 1932L1369 1931M1371 1931L1372 1932L1371 1931M1376 1931L1375 1954L1379 1954L1379 1945L1378 1945L1378 1953L1376 1953L1376 1932L1380 1933L1376 1931M1381 1931L1381 1932L1386 1932L1381 1931M708 1932L709 1933L708 1932M711.333 1932.67L711.667 1933.33L711.333 1932.67M717 1932L718 1933L717 1932z"/>
<path style="fill:#626262; stroke:none;" d="M718.214 1932.74C709.744 1936.56 716.246 1949.91 724.891 1946.26C733.508 1942.62 727.347 1928.62 718.214 1932.74z"/>
<path style="fill:#aeafb3; stroke:none;" d="M726 1932L727 1933L726 1932z"/>
<path style="fill:#626262; stroke:none;" d="M731 1932L735 1947L742 1936L746 1947L748 1947L753 1932C749.067 1934.4 748.384 1938.61 748 1943L747 1943C745.543 1938.52 744.854 1933.57 740 1932L737 1943L736 1943L731 1932z"/>
<path style="fill:#aeafb3; stroke:none;" d="M733.333 1932.67L733.667 1933.33L733.333 1932.67z"/>
<path style="fill:#626262; stroke:none;" d="M756 1932L756 1947L758 1947C758.002 1932.56 766 1932.34 766 1947L768 1947C768 1941.2 768.712 1926.65 759 1934L756 1932z"/>
<path style="fill:#aeafb3; stroke:none;" d="M781 1932L782 1933L781 1932z"/>
<path style="fill:#626262; stroke:none;" d="M782.214 1932.74C773.744 1936.56 780.246 1949.91 788.891 1946.26C797.508 1942.62 791.347 1928.62 782.214 1932.74z"/>
<path style="fill:#aeafb3; stroke:none;" d="M790 1932L791 1933L790 1932M797 1932L796 1935L797 1936L800 1935L800 1934L797 1935L797 1932z"/>
<path style="fill:#626262; stroke:none;" d="M797 1935C801.654 1934.02 803.797 1934.36 807 1938C802.84 1937.26 790.067 1940.62 798.318 1945.97C801.144 1947.8 805.722 1946.23 809 1947C809 1941.35 804.544 1923.36 797 1935z"/>
<path style="fill:#aeafb3; stroke:none;" d="M806 1932L807 1933L806 1932M814 1932L815 1933L814 1932M859 1932L859 1935L860 1935L861 1932L859 1932M865 1932L866 1933L865 1932M877 1932L877 1935L878 1935L877 1932M882 1932L883 1933L882 1932M928 1932L929 1933L928 1932M965 1932L965 1940L966 1940L965 1932M979 1932L980 1933L979 1932M1008 1932L1009 1933L1008 1932M1012 1932L1012 1935L1013 1935L1012 1932M1017 1932L1018 1933L1017 1932M1086 1932L1087 1933L1086 1932M1131 1932L1132 1933L1131 1932z"/>
<path style="fill:#626262; stroke:none;" d="M1132.21 1932.74C1123.74 1936.56 1130.25 1949.91 1138.89 1946.26C1147.51 1942.62 1141.35 1928.62 1132.21 1932.74z"/>
<path style="fill:#aeafb3; stroke:none;" d="M1140 1932L1141 1933L1140 1932M1145.33 1932.67L1145.67 1933.33L1145.33 1932.67z"/>
<path style="fill:#626262; stroke:none;" d="M1146 1932L1146 1947L1148 1947C1148.01 1940.2 1148.85 1936.59 1155 1933L1155 1932L1149 1934L1146 1932M1158 1932L1158 1947L1160 1947C1160 1932.58 1168 1932.37 1168 1947L1170 1947C1170 1932.56 1178 1932.34 1178 1947L1180 1947C1180 1940.88 1179.85 1926.55 1170 1934L1169 1934C1166.13 1931.84 1163.87 1931.84 1161 1934L1158 1932z"/>
<path style="fill:#aeafb3; stroke:none;" d="M1161 1932L1162 1933L1161 1932z"/>
<path style="fill:#626262; stroke:none;" d="M1184 1935C1188.75 1934.3 1190.9 1933.94 1194 1938C1179.09 1935.55 1184.35 1951.52 1193 1945L1196 1947C1196 1941.26 1191.89 1922.82 1184 1935z"/>
<path style="fill:#aeafb3; stroke:none;" d="M1198.33 1932.67L1198.67 1933.33L1198.33 1932.67M1207.33 1932.67L1207.67 1933.33L1207.33 1932.67z"/>
<path style="fill:#626262; stroke:none;" d="M1220 1942L1220 1944L1210 1943C1217.49 1952 1227.62 1940.48 1213 1937L1213 1934L1222 1935C1219.02 1931.95 1208.03 1931.01 1212.05 1937.7C1213.56 1940.23 1217.43 1941.03 1220 1942z"/>
<path style="fill:#aeafb3; stroke:none;" d="M1220 1932L1221 1933L1220 1932M1235.33 1932.67L1235.67 1933.33L1235.33 1932.67M1239 1932L1239 1947L1240 1947L1239 1932z"/>
<path style="fill:#626262; stroke:none;" d="M1240 1932L1240 1947L1242 1947C1242 1932.56 1250 1932.34 1250 1947L1252 1947C1252 1941.2 1252.71 1926.65 1243 1934L1240 1932z"/>
<path style="fill:#aeafb3; stroke:none;" d="M1243 1932L1244 1933L1243 1932M1266 1932L1267 1933L1266 1932z"/>
<path style="fill:#626262; stroke:none;" d="M1280 1932L1280 1947L1282 1947L1282 1932L1280 1932z"/>
<path style="fill:#aeafb3; stroke:none;" d="M1286 1932L1286 1947L1287 1947L1286 1932z"/>
<path style="fill:#626262; stroke:none;" d="M1287 1932L1287 1947L1289 1947C1289 1932.56 1297 1932.34 1297 1947L1299 1947C1299 1941.2 1299.71 1926.65 1290 1934L1287 1932z"/>
<path style="fill:#aeafb3; stroke:none;" d="M1305 1932L1303 1936L1304 1936L1305 1932z"/>
<path style="fill:#626262; stroke:none;" d="M1315 1945C1313.87 1952.13 1309.5 1951.1 1304 1949C1305.6 1954.07 1312.78 1956 1315.97 1950.77C1318.74 1946.24 1317 1937.17 1317 1932L1314 1934C1301.95 1924.88 1298.51 1953.75 1315 1945z"/>
<path style="fill:#aeafb3; stroke:none;" d="M1313 1932L1314 1933L1313 1932M1329 1932L1327 1935L1329 1932z"/>
<path style="fill:#626262; stroke:none;" d="M1341 1943C1335.48 1944.11 1332.73 1944.88 1329 1940L1341 1940C1340.26 1933.41 1330.97 1927.61 1327.6 1936.06C1323.77 1945.69 1335.18 1949.6 1341 1943z"/>
<path style="fill:#aeafb3; stroke:none;" d="M1338 1932L1339 1933L1338 1932M1358 1932L1359 1933L1358 1932M1361 1932L1362 1933L1361 1932z"/>
<path style="fill:#626262; stroke:none;" d="M1369 1932L1369 1947L1372 1947L1372 1932L1369 1932M1376 1932L1376 1953L1378 1953L1378 1945C1385.61 1948.66 1396.3 1940.92 1388.35 1933.74C1385.31 1931 1379.76 1932.22 1376 1932z"/>
<path style="fill:#aeafb3; stroke:none;" d="M1387 1932L1388 1933L1387 1932M721 1933L722 1934L721 1933M727 1933L728 1934L727 1933M739.333 1933.67L739.667 1934.33L739.333 1933.67M762 1933L763 1934L762 1933M785 1933L786 1934L785 1933M791 1933L792 1934L791 1933M801.667 1933.33L802.333 1933.67L801.667 1933.33M807 1933L808 1934L807 1933M818 1933L819 1934L818 1933M861 1933L862 1934L861 1933M881 1933L881 1939L882 1939L881 1933M935 1933L936 1934L935 1933M961 1933L961 1938L962 1938L961 1933M975 1933L976 1934L975 1933M981.667 1933.33L982.333 1933.67L981.667 1933.33M998 1933L999 1934L998 1933M1003 1933L1004 1934L1003 1933M1016 1933L1016 1939L1017 1939L1016 1933M1074 1933L1075 1934L1074 1933M1082 1933L1083 1934L1082 1933M1088.67 1933.33L1089.33 1933.67L1088.67 1933.33M1135 1933L1136 1934L1135 1933M1141 1933L1142 1934L1141 1933M1154 1933L1155 1934L1154 1933M1160 1933L1161 1934L1160 1933M1164 1933L1165 1934L1164 1933M1174 1933L1175 1934L1174 1933M1189 1933L1190 1934L1189 1933M1215.67 1933.33L1216.33 1933.67L1215.67 1933.33M1221 1933L1222 1934L1221 1933M1242 1933L1243 1934L1242 1933M1246 1933L1247 1934L1246 1933M1268 1933L1269 1934L1268 1933M1293 1933L1294 1934L1293 1933M1310 1933L1311 1934L1310 1933M1314 1933L1315 1934L1314 1933M1324 1933L1324 1945L1325 1945L1324 1933M1333 1933L1334 1934L1333 1933M1339 1933L1340 1934L1339 1933M1357 1933L1358 1934L1357 1933M1383 1933L1384 1934L1383 1933M715 1934L716 1935L715 1934M719 1934L720 1935L719 1934z"/>
<path style="fill:#ffffff; stroke:none;" d="M720.224 1934.8C714.704 1936.84 718.102 1945.82 723.683 1943.38C728.183 1941.4 725.269 1932.94 720.224 1934.8z"/>
<path style="fill:#aeafb3; stroke:none;" d="M724 1934L725 1935L724 1934M749.333 1934.67L749.667 1935.33L749.333 1934.67M752 1934L753 1935L752 1934M760 1934L761 1935L760 1934M764 1934L765 1935L764 1934M768 1934L768 1947L769 1947L768 1934M779 1934L780 1935L779 1934M783 1934L784 1935L783 1934z"/>
<path style="fill:#ffffff; stroke:none;" d="M784.224 1934.8C778.704 1936.84 782.102 1945.82 787.683 1943.38C792.183 1941.4 789.269 1932.94 784.224 1934.8z"/>
<path style="fill:#aeafb3; stroke:none;" d="M788 1934L789 1935L788 1934M804 1934L805 1935L804 1934M808.333 1934.67L808.667 1935.33L808.333 1934.67M812 1934L813 1935L812 1934M816 1934L817 1935L816 1934z"/>
<path style="fill:#ffffff; stroke:none;" d="M817.224 1934.8C811.761 1936.82 815.078 1945.86 820.567 1943.38C825.039 1941.35 822.328 1932.92 817.224 1934.8z"/>
<path style="fill:#aeafb3; stroke:none;" d="M866 1934L867 1935L866 1934M888 1934L888 1938L889 1938L888 1934M899 1934L900 1935L899 1934M929 1934L930 1935L929 1934M938 1934L939 1935L938 1934M976 1934L977 1935L976 1934M984 1934L985 1935L984 1934M994.333 1934.67L994.667 1935.33L994.333 1934.67M1007.33 1934.67L1007.67 1935.33L1007.33 1934.67M1023 1934L1023 1938L1024 1938L1023 1934M1034 1934L1035 1935L1034 1934M1058 1934L1058 1938L1059 1938L1058 1934M1073 1934L1074 1935L1073 1934M1078 1934L1079 1935L1078 1934M1083 1934L1084 1935L1083 1934M1091.67 1934.33L1092.33 1934.67L1091.67 1934.33M1119 1934L1119 1935L1124 1935L1119 1934M1129 1934L1130 1935L1129 1934M1133 1934L1134 1935L1133 1934z"/>
<path style="fill:#ffffff; stroke:none;" d="M1134.22 1934.8C1128.69 1936.84 1132.08 1945.75 1137.72 1943.38C1142.6 1941.32 1139.32 1932.92 1134.22 1934.8z"/>
<path style="fill:#aeafb3; stroke:none;" d="M1138 1934L1139 1935L1138 1934M1151 1934L1152 1935L1151 1934M1153 1934L1154 1935L1153 1934M1166 1934L1167 1935L1166 1934M1172 1934L1173 1935L1172 1934M1176 1934L1177 1935L1176 1934M1195 1934L1196 1935L1195 1934M1199.67 1934.33L1200.33 1934.67L1199.67 1934.33M1204 1934L1204 1935L1207 1935L1204 1934M1210 1934L1210 1938L1211 1938L1210 1934M1213 1934L1213 1937L1214 1937L1213 1934M1218 1934L1219 1935L1218 1934M1248 1934L1249 1935L1248 1934M1252 1934L1252 1947L1253 1947L1252 1934M1264 1934L1265 1935L1264 1934M1271 1934L1272 1935L1271 1934M1291 1934L1292 1935L1291 1934M1295 1934L1296 1935L1295 1934M1299 1934L1299 1947L1300 1947L1299 1934M1307 1934L1306 1936L1307 1934z"/>
<path style="fill:#ffffff; stroke:none;" d="M1308.32 1935.09C1303.53 1937.75 1307.28 1946.54 1312.57 1942.97C1316.76 1940.13 1312.92 1932.52 1308.32 1935.09z"/>
<path style="fill:#aeafb3; stroke:none;" d="M1312 1934L1313 1935L1312 1934M1331 1934L1330 1936L1331 1934z"/>
<path style="fill:#ffffff; stroke:none;" d="M1330 1937L1338 1937C1335.07 1934.06 1332.93 1934.06 1330 1937z"/>
<path style="fill:#aeafb3; stroke:none;" d="M1336 1934L1337 1935L1336 1934M1360 1934L1361 1935L1360 1934M1380 1934L1379 1936L1380 1934z"/>
<path style="fill:#ffffff; stroke:none;" d="M1381.31 1935.07C1376.53 1937.92 1380.3 1946.48 1385.68 1942.97C1390.08 1940.1 1386.11 1932.22 1381.31 1935.07z"/>
<path style="fill:#aeafb3; stroke:none;" d="M1385 1934L1386 1935L1385 1934M1389 1934L1390 1935L1389 1934M714.333 1935.67L714.667 1936.33L714.333 1935.67M725 1935L726 1936L725 1935M728 1935L729 1936L728 1935M731.333 1935.67L731.667 1936.33L731.333 1935.67M734.333 1935.67L734.667 1936.33L734.333 1935.67M744 1935L745 1936L744 1935M765 1935L766 1936L765 1935M778.333 1935.67L778.667 1936.33L778.333 1935.67M789 1935L790 1936L789 1935M792 1935L793 1936L792 1935M805 1935L806 1936L805 1935M811.333 1935.67L811.667 1936.33L811.333 1935.67M851 1935L852 1936L851 1935M862 1935L863 1936L862 1935M867 1935L868 1936L867 1935M924 1935L925 1936L924 1935M940 1935L941 1936L940 1935M946 1935L946 1939L947 1939L946 1935M977 1935L978 1936L977 1935M986 1935L987 1936L986 1935M1084 1935L1085 1936L1084 1935M1093 1935L1094 1936L1093 1935M1113 1935L1113 1947L1114 1947L1113 1935M1125 1935L1117 1937L1117 1938C1119.62 1938 1126.54 1939.09 1125 1935M1128.33 1935.67L1128.67 1936.33L1128.33 1935.67M1139 1935L1140 1936L1139 1935M1142 1935L1143 1936L1142 1935M1145 1935L1145 1941L1146 1941L1145 1935M1171 1935L1172 1936L1171 1935M1177 1935L1177 1947L1178 1947L1177 1935M1180 1935L1180 1947L1181 1947L1180 1935M1185 1935L1186 1936L1185 1935M1203 1935L1203 1942L1204 1942L1203 1935M1219.67 1935.33L1220.33 1935.67L1219.67 1935.33M1235 1935L1235 1947L1236 1947L1235 1935M1249 1935L1250 1936L1249 1935M1265 1935L1266 1936L1265 1935M1273 1935L1274 1936L1273 1935M1296 1935L1297 1936L1296 1935M1313 1935L1314 1936L1313 1935M1337 1935L1338 1936L1337 1935M1340 1935L1341 1936L1340 1935M1359 1935L1360 1936L1359 1935M717 1936L718 1937L717 1936M741 1936L742 1937L741 1936M758 1936L758 1942L759 1942L758 1936M781 1936L782 1937L781 1936M814 1936L815 1937L814 1936M932.667 1936.33L933.333 1936.67L932.667 1936.33M941 1936L942 1937L941 1936M979 1936L980 1937L979 1936M999 1936L1000 1937L999 1936M1002 1936L1003 1937L1002 1936M1077 1936L1078 1937L1077 1936M1086 1936L1087 1937L1086 1936M1131 1936L1132 1937L1131 1936M1160 1936L1160 1946L1161 1946L1160 1936M1167 1936L1167 1947L1168 1947L1167 1936M1170 1936L1170 1941L1171 1941L1170 1936M1193 1936L1191 1937L1191 1938L1193 1936M1196 1936L1196 1947L1197 1947L1196 1936M1242.33 1936.67L1242.67 1937.33L1242.33 1936.67M1268 1936L1269 1937L1268 1936M1274 1936L1275 1937L1274 1936M1289 1936L1289 1942L1290 1942L1289 1936M1314 1936L1315 1937L1314 1936M1355 1936L1356 1937L1355 1936M1387 1936L1388 1937L1387 1936M1390 1936L1391 1937L1390 1936M726 1937L726 1942L727 1942L726 1937M729 1937L729 1942L730 1942L729 1937M738 1937L739 1938L738 1937M742 1937L743 1938L742 1937M751 1937L752 1938L751 1937M790 1937L790 1942L791 1942L790 1937M793 1937L793 1942L794 1942L793 1937M798.667 1937.33L799.333 1937.67L798.667 1937.33M804 1937L804 1938L807 1938L804 1937M823 1937L823 1941L824 1941L823 1937M849 1937L850 1938L849 1937M855 1937L855 1947L856 1947L855 1937M863 1937L864 1938L863 1937M877 1937L877 1940L878 1940L877 1937M922 1937L923 1938L922 1937M935.667 1937.33L936.333 1937.67L935.667 1937.33M942 1937L943 1938L942 1937M982 1937L983 1938L982 1937M995 1937L996 1938L995 1937M1006.33 1937.67L1006.67 1938.33L1006.33 1937.67M1012 1937L1012 1940L1013 1940L1012 1937M1076 1937L1077 1938L1076 1937M1089 1937L1090 1938L1089 1937M1140.33 1937.67L1140.67 1938.33L1140.33 1937.67M1143 1937L1143 1942L1144 1942L1143 1937M1148 1937L1148 1947L1149 1947L1148 1937M1186.67 1937.33L1187.33 1937.67L1186.67 1937.33M1215 1937L1216 1938L1215 1937M1270 1937L1271 1938L1270 1937M1275 1937L1276 1938L1275 1937M1302 1937L1302 1942L1303 1942L1302 1937M1305 1937L1305 1942L1306 1942L1305 1937M1326 1937L1326 1942L1327 1942L1326 1937M1330 1937L1330 1938L1338 1938L1330 1937M1341 1937L1341 1940L1342 1940L1341 1937M1354 1937L1355 1938L1354 1937M1378 1937L1378 1942L1379 1942L1378 1937M708.333 1938.67L708.667 1939.33L708.333 1938.67M711.333 1938.67L711.667 1939.33L711.333 1938.67M716.333 1938.67L716.667 1939.33L716.333 1938.67M732.333 1938.67L732.667 1939.33L732.333 1938.67M740.333 1938.67L740.667 1939.33L740.333 1938.67M745 1938L746 1939L745 1938M748 1938L749 1939L748 1938M780.333 1938.67L780.667 1939.33L780.333 1938.67M797 1938L798 1939L797 1938M813.333 1938.67L813.667 1939.33L813.333 1938.67M847.667 1938.33L848.333 1938.67L847.667 1938.33M864 1938L865 1939L864 1938M895.333 1938.67L895.667 1939.33L895.333 1938.67M899.333 1938.67L899.667 1939.33L899.333 1938.67M920.667 1938.33L921.333 1938.67L920.667 1938.33M937 1938L938 1939L937 1938M984 1938L985 1939L984 1938M989 1938L989 1943L990 1943L989 1938M1030.33 1938.67L1030.67 1939.33L1030.33 1938.67M1034.33 1938.67L1034.67 1939.33L1034.33 1938.67M1049 1938L1049 1943L1050 1943L1049 1938M1074 1938L1075 1939L1074 1938M1091 1938L1092 1939L1091 1938M1096 1938L1096 1943L1097 1943L1096 1938M1116 1938L1116 1947L1117 1947L1116 1938M1130.33 1938.67L1130.67 1939.33L1130.33 1938.67M1184 1938L1185 1939L1184 1938M1211 1938L1212 1939L1211 1938M1218.67 1938.33L1219.33 1938.67L1218.67 1938.33M1272 1938L1273 1939L1272 1938M1357 1938L1358 1939L1357 1938M735.333 1939.67L735.667 1940.33L735.333 1939.67M800 1939L800 1940L805 1940L800 1939M841 1939L841 1947L842 1947L841 1939M882 1939L883 1940L882 1939M914 1939L914 1947L915 1947L914 1939M930 1939L932 1941L932 1939L930 1939M938 1939L939 1940L938 1939M960 1939L961 1940L960 1939M976.667 1939.33L977.333 1939.67L976.667 1939.33M985.333 1939.67L985.667 1940.33L985.333 1939.67M1000.67 1939.33L1001.33 1939.67L1000.67 1939.33M1017 1939L1018 1940L1017 1939M1083.67 1939.33L1084.33 1939.67L1083.67 1939.33M1092.33 1939.67L1092.67 1940.33L1092.33 1939.67M1183 1939L1184 1940L1183 1939M1188 1939L1188 1940L1192 1940L1188 1939M1212 1939L1213 1940L1212 1939M1220 1939L1221 1940L1220 1939M1242 1939L1242 1942L1243 1942L1242 1939M1273 1939L1273 1943L1274 1943L1273 1939M1276 1939L1276 1943L1277 1943L1276 1939M1353 1939L1354 1940L1353 1939M1356 1939L1357 1940L1356 1939M737 1940L738 1941L737 1940M743 1940L744 1941L743 1940M750.333 1940.67L750.667 1941.33L750.333 1940.67M795 1940L795 1944L796 1944L795 1940z"/>
<path style="fill:#ffffff; stroke:none;" d="M799 1940C799.957 1945.72 804.169 1944.78 806 1940L799 1940z"/>
<path style="fill:#aeafb3; stroke:none;" d="M865 1940L866 1941L865 1940M894 1940L895 1941L894 1940M927.333 1940.67L927.667 1941.33L927.333 1940.67M946 1940L946 1943L947 1943L946 1940M974 1940L975 1941L974 1940M978 1940L979 1941L978 1940M996 1940L997 1941L996 1940M1005 1940L1006 1941L1005 1940M1029 1940L1030 1941L1029 1940M1081 1940L1082 1941L1081 1940M1085 1940L1086 1941L1085 1940M1140.33 1940.67L1140.67 1941.33L1140.33 1940.67M1186 1940L1187 1941L1186 1940z"/>
<path style="fill:#ffffff; stroke:none;" d="M1186 1944C1189.89 1944.5 1191.79 1943.84 1193 1940C1189.31 1940.12 1187.22 1940.31 1186 1944z"/>
<path style="fill:#aeafb3; stroke:none;" d="M1193.33 1940.67L1193.67 1941.33L1193.33 1940.67M1215.67 1940.33L1216.33 1940.67L1215.67 1940.33M1263 1940L1264 1941L1263 1940M1329.33 1940.67L1329.67 1941.33L1329.33 1940.67M1352 1940L1353 1941L1352 1940M710 1941L711 1942L710 1941M733.333 1941.67L733.667 1942.33L733.333 1941.67M739.333 1941.67L739.667 1942.33L739.333 1941.67M746 1941L748 1943L748 1941L746 1941M798 1941L798 1944L799 1944L798 1941M878 1941L879 1942L878 1941M884 1941L885 1942L884 1941M893 1941L894 1942L893 1941M898 1941L899 1942L898 1941M932 1941L933 1942L932 1941M938 1941L939 1942L938 1941M964 1941L965 1942L964 1941M1013 1941L1014 1942L1013 1941M1019 1941L1020 1942L1019 1941M1028 1941L1029 1942L1028 1941M1033 1941L1034 1942L1033 1941M1218 1941L1219 1942L1218 1941M1222 1941L1222 1944L1223 1944L1222 1941M1261.33 1941.67L1261.67 1942.33L1261.33 1941.67M1264 1941L1265 1942L1264 1941M1314.33 1941.67L1314.67 1942.33L1314.33 1941.67M1355 1941L1356 1942L1355 1941M1390.33 1941.67L1390.67 1942.33L1390.33 1941.67M706 1942L707 1943L706 1942M714 1942L715 1943L714 1942M717 1942L718 1943L717 1942M736 1942L737 1943L736 1942M778 1942L779 1943L778 1942M781 1942L782 1943L781 1942M805 1942L806 1943L805 1942M811 1942L812 1943L811 1942M814 1942L815 1943L814 1942M822 1942L823 1943L822 1942M866 1942L867 1943L866 1942M879 1942L880 1943L879 1942M885.667 1942.33L886.333 1942.67L885.667 1942.33M891.667 1942.33L892.333 1942.67L891.667 1942.33M933 1942L934 1943L933 1942M937 1942L938 1943L937 1942M957 1942L958 1943L957 1942M974 1942L975 1943L974 1942M980 1942L981 1943L980 1942M984 1942L985 1943L984 1942M1014 1942L1015 1943L1014 1942M1020.67 1942.33L1021.33 1942.67L1020.67 1942.33M1026.67 1942.33L1027.33 1942.67L1026.67 1942.33M1081 1942L1082 1943L1081 1942M1087 1942L1088 1943L1087 1942M1091 1942L1092 1943L1091 1942M1128 1942L1129 1943L1128 1942M1131 1942L1132 1943L1131 1942M1145 1942L1146 1943L1145 1942M1211.67 1942.33L1212.33 1942.67L1211.67 1942.33M1219.33 1942.67L1219.67 1943.33L1219.33 1942.67M1338.67 1942.33L1339.33 1942.67L1338.67 1942.33M1354 1942L1355 1943L1354 1942M1387 1942L1388 1943L1387 1942M704 1943L705 1944L704 1943M718 1943L719 1944L718 1943M728 1943L729 1944L728 1943M744.333 1943.67L744.667 1944.33L744.333 1943.67M749.333 1943.67L749.667 1944.33L749.333 1943.67M758 1943L758 1947L759 1947L758 1943M782 1943L783 1944L782 1943M792 1943L793 1944L792 1943M815 1943L816 1944L815 1943M867 1943L868 1944L867 1943M880 1943L881 1944L880 1943M897 1943L898 1944L897 1943M928 1943L929 1944L928 1943M942 1943L943 1944L942 1943M997 1943L998 1944L997 1943M1004 1943L1005 1944L1004 1943M1015 1943L1016 1944L1015 1943M1032 1943L1033 1944L1032 1943M1059 1943L1059 1947L1060 1947L1059 1943M1063 1943L1063 1947L1064 1947L1063 1943M1132 1943L1133 1944L1132 1943M1142 1943L1143 1944L1142 1943M1170 1943L1171 1944L1170 1943M1192 1943L1193 1944L1192 1943M1242 1943L1243 1944L1242 1943M1272 1943L1273 1944L1272 1943M1289 1943L1290 1944L1289 1943M1303 1943L1304 1944L1303 1943M1313 1943L1314 1944L1313 1943M1327 1943L1328 1944L1327 1943M1337 1943L1338 1944L1337 1943M1350 1943L1351 1944L1350 1943M1386 1943L1387 1944L1386 1943M715 1944L716 1945L715 1944M719 1944L719 1945L724 1945L719 1944M734.333 1944.67L734.667 1945.33L734.333 1944.67M779 1944L780 1945L779 1944M783 1944L783 1945L788 1945L783 1944M799 1944L800 1945L799 1944M803 1944L804 1945L803 1944M812 1944L813 1945L812 1944M816 1944L816 1945L821 1945L816 1944M881 1944L882 1945L881 1944M896 1944L897 1945L896 1944M929 1944L930 1945L929 1944M941 1944L942 1945L941 1944M1016 1944L1017 1945L1016 1944M1031 1944L1032 1945L1031 1944M1129 1944L1130 1945L1129 1944M1133 1944L1133 1945L1138 1945L1133 1944M1145 1944L1145 1947L1146 1947L1145 1944M1183 1944L1184 1945L1183 1944M1187 1944L1188 1945L1187 1944M1190 1944L1191 1945L1190 1944M1205.67 1944.33L1206.33 1944.67L1205.67 1944.33M1210 1944L1211 1945L1210 1944M1214 1944L1215 1945L1214 1944M1218 1944L1219 1945L1218 1944M1267 1944L1268 1945L1267 1944M1269 1944L1269 1945L1272 1945L1269 1944M1275 1944L1276 1945L1275 1944M1308 1944L1308 1945L1313 1945L1308 1944M1332 1944L1332 1945L1337 1945L1332 1944M1340 1944L1341 1945L1340 1944M1354 1944L1354 1945L1365 1947C1366.7 1942.49 1356.79 1944 1354 1944M1381 1944L1381 1945L1386 1945L1381 1944M1389 1944L1390 1945L1389 1944M693 1945L694 1946L693 1945M706 1945L707 1946L706 1945M716 1945L717 1946L716 1945M738 1945L739 1946L738 1945M780 1945L781 1946L780 1945M796 1945L797 1946L796 1945M805 1945L807 1947L807 1945L805 1945M813 1945L814 1946L813 1945M823.333 1945.67L823.667 1946.33L823.333 1945.67M826 1945L827 1946L826 1945M868 1945L869 1946L868 1945M882 1945L883 1946L882 1945M894 1945L895 1946L894 1945M930 1945L931 1946L930 1945M940 1945L941 1946L940 1945M946.333 1945.67L946.667 1946.33L946.333 1945.67M960 1945L961 1946L960 1945M977 1945L978 1946L977 1945M998.333 1945.67L998.667 1946.33L998.333 1945.67M1017 1945L1018 1946L1017 1945M1029 1945L1030 1946L1029 1945M1084 1945L1085 1946L1084 1945M1130 1945L1131 1946L1130 1945M1170 1945L1171 1946L1170 1945M1193 1945L1194 1946L1193 1945M1201 1945L1202 1946L1201 1945M1207.33 1945.67L1207.67 1946.33L1207.33 1945.67M1211 1945L1212 1946L1211 1945M1221 1945L1222 1946L1221 1945M1242 1945L1243 1946L1242 1945M1263 1945L1264 1946L1263 1945M1274 1945L1275 1946L1274 1945M1289 1945L1290 1946L1289 1945M1314 1945L1315 1946L1314 1945M1339 1945L1340 1946L1339 1945M1388 1945L1389 1946L1388 1945M703.667 1946.33L704.333 1946.67L703.667 1946.33M717 1946L718 1947L717 1946M725 1946L726 1947L725 1946M745 1946L746 1947L745 1946M748 1946L749 1947L748 1946M775 1946L776 1947L775 1946M781 1946L782 1947L781 1946M789 1946L790 1947L789 1946M797 1946L798 1947L797 1946M804 1946L805 1947L804 1946M814 1946L815 1947L814 1946M821 1946L822 1947L821 1946M884.667 1946.33L885.333 1946.67L884.667 1946.33M891.667 1946.33L892.333 1946.67L891.667 1946.33M932 1946L933 1947L932 1946M938 1946L939 1947L938 1946M957.667 1946.33L958.333 1946.67L957.667 1946.33M978.667 1946.33L979.333 1946.67L978.667 1946.33M984.667 1946.33L985.333 1946.67L984.667 1946.33M1003 1946L1004 1947L1003 1946M1019.67 1946.33L1020.33 1946.67L1019.67 1946.33M1026.67 1946.33L1027.33 1946.67L1026.67 1946.33M1085.67 1946.33L1086.33 1946.67L1085.67 1946.33M1091.67 1946.33L1092.33 1946.67L1091.67 1946.33M1131 1946L1132 1947L1131 1946M1139 1946L1140 1947L1139 1946M1185 1946L1186 1947L1185 1946M1202 1946L1203 1947L1202 1946M1212 1946L1213 1947L1212 1946M1220 1946L1221 1947L1220 1946M1265 1946L1266 1947L1265 1946M1273 1946L1274 1947L1273 1946M1306 1946L1307 1947L1306 1946M1313 1946L1314 1947L1313 1946M1330 1946L1331 1947L1330 1946M1337.67 1946.33L1338.33 1946.67L1337.67 1946.33M1380 1946L1381 1947L1380 1946M1387 1946L1388 1947L1387 1946M720 1947L720 1948L724 1948L720 1947M784 1947L784 1948L788 1948L784 1947M799 1947L799 1948L803 1948L799 1947M816 1947L816 1948L820 1948L816 1947M1134 1947L1134 1948L1138 1948L1134 1947M1187 1947L1187 1948L1191 1948L1187 1947M1205 1947L1206 1948L1205 1947M1214 1947L1214 1948L1218 1948L1214 1947M1267 1947L1267 1948L1271 1948L1267 1947M1308 1947L1308 1948L1312 1948L1308 1947M1332 1947L1332 1948L1336 1948L1332 1947M1382 1947L1382 1948L1386 1948L1382 1947M1314.33 1948.67L1314.67 1949.33L1314.33 1948.67M1303.33 1949.67L1303.67 1950.33L1303.33 1949.67M1313 1950L1314 1951L1313 1950M1308 1951L1308 1952L1312 1952L1308 1951M1315 1952L1316 1953L1315 1952M1306 1953L1307 1954L1306 1953M1313 1953L1314 1954L1313 1953M1309 1954L1310 1955L1309 1954z"/>
<path style="fill:#626262; stroke:none;" d="M1220 1967L1220 2016L1231 2016C1231 2009.96 1231.28 2006.07 1237 2003C1241.85 2013.89 1247.96 2016 1259 2016L1245.87 1996L1258 1980C1244.75 1980.5 1240.49 1986.64 1230 1994L1231 1967L1220 1967z"/>
<path style="fill:#aeafb3; stroke:none;" d="M1103.67 1968.33L1104.33 1968.67L1103.67 1968.33z"/>
<path style="fill:#626262; stroke:none;" d="M1094 2003C1084.53 2019.93 1123.69 2020.87 1128.35 2006C1131.83 1994.9 1121.77 1990.35 1113 1988.13C1109.87 1987.33 1101.97 1985.93 1103.35 1981.04C1105.63 1972.98 1119.19 1978.69 1124 1980L1127 1972C1116.11 1966.29 1083.95 1966.39 1091.89 1987C1096.2 1998.16 1110.21 1992.85 1116.34 2000.65C1119.13 2004.2 1113.92 2007.11 1111 2007.64C1105.12 2008.71 1099.05 2005.58 1094 2003z"/>
<path style="fill:#aeafb3; stroke:none;" d="M1116.67 1968.33L1117.33 1968.67L1116.67 1968.33M858 1971L871 1971C867.673 1968.48 860.955 1967.62 858 1971M899 1969L899 1970L910 1971L899 1969M1100 1969L1101 1970L1100 1969M1121 1969L1122 1970L1121 1969z"/>
<path style="fill:#626262; stroke:none;" d="M859 1970L871.719 2001L877.994 2014.4L887.775 2015.68L894.85 2004L909 1970L898 1970L884 2002C878.343 1988.21 875.776 1970 859 1970z"/>
<path style="fill:#aeafb3; stroke:none;" d="M1098 1970L1099 1971L1098 1970M1124 1970L1125 1971L1124 1970M1126 1971L1127 1972L1126 1971M859 1972L860 1973L859 1972M871 1972L872 1973L871 1972M897 1972L898 1973L897 1972M908 1972L909 1973L908 1972M993 1972L993 1981L994 1981L993 1972z"/>
<path style="fill:#626262; stroke:none;" d="M994 1972L994 1981L988 1981L988 1989L994 1989C994 2005.24 994.002 2020 1015 2015L1013 2007C1001.73 2009.32 1004 1996.52 1004 1989L1013 1989L1013 1981L1004 1981L1004 1972L994 1972z"/>
<path style="fill:#aeafb3; stroke:none;" d="M1022 1973L1022 1974L1029 1976L1030 1976L1033 1975L1022 1973M1036.67 1972.33L1037.33 1972.67L1036.67 1972.33z"/>
<path style="fill:#626262; stroke:none;" d="M1033 1973L1033 1974L1045 1974L1033 1973z"/>
<path style="fill:#aeafb3; stroke:none;" d="M1040.67 1972.33L1041.33 1972.67L1040.67 1972.33M1044 1972L1045 1973L1044 1972M1044 1974L1044 1975L1047 1976L1055 1974L1055 1973L1044 1974M1095 1972L1096 1973L1095 1972z"/>
<path style="fill:#626262; stroke:none;" d="M1023 1973L1024 1974L1023 1973M1053 1973L1054 1974L1053 1973z"/>
<path style="fill:#aeafb3; stroke:none;" d="M1094 1973L1095 1974L1094 1973M872 1974L873 1975L872 1974M896 1974L897 1975L896 1974M907 1974L908 1975L907 1974z"/>
<path style="fill:#626262; stroke:none;" d="M1030.67 1974.33L1031.33 1974.67L1030.67 1974.33z"/>
<path style="fill:#ffffff; stroke:none;" d="M1018 1994L1019 1994C1020.65 1984.89 1027.97 1978.36 1037 1977L1037 1974C1025.95 1974.97 1018.5 1982.99 1018 1994z"/>
<path style="fill:#aeafb3; stroke:none;" d="M1037 1974L1038 1975L1037 1974z"/>
<path style="fill:#ffffff; stroke:none;" d="M1038 1974L1038 1975L1038 1976C1050.65 1974.54 1052.68 1988.12 1060 1994C1058.16 1981.53 1050.18 1974.97 1038 1974z"/>
<path style="fill:#aeafb3; stroke:none;" d="M1039 1974L1040 1975L1039 1974z"/>
<path style="fill:#626262; stroke:none;" d="M1046 1974L1047 1975L1046 1974z"/>
<path style="fill:#aeafb3; stroke:none;" d="M1093 1974L1094 1975L1093 1974M1126 1974L1127 1975L1126 1974z"/>
<path style="fill:#626262; stroke:none;" d="M1028 1975L1029 1976L1028 1975z"/>
<path style="fill:#f9551a; stroke:none;" d="M1037 1975C1032.46 1979.01 1026.45 1979.74 1022.65 1985.02C1010.61 2001.73 1029.75 2023.49 1048 2014.31C1063.86 2006.34 1060.27 1981.12 1043 1978L1044 1975L1037 1975z"/>
<path style="fill:#aeafb3; stroke:none;" d="M1040 1975L1041 1976L1040 1975z"/>
<path style="fill:#626262; stroke:none;" d="M1048 1975L1049 1976L1048 1975z"/>
<path style="fill:#aeafb3; stroke:none;" d="M1049.33 1975.67L1049.67 1976.33L1049.33 1975.67M895 1976L896 1977L895 1976M1026.33 1976.67L1026.67 1977.33L1026.33 1976.67z"/>
<path style="fill:#626262; stroke:none;" d="M1027 1976L1028 1977L1027 1976z"/>
<path style="fill:#aeafb3; stroke:none;" d="M1038 1976L1039 1977L1038 1976M1043 1976L1043 1978L1045 1978L1043 1976z"/>
<path style="fill:#626262; stroke:none;" d="M1050 1976L1051 1977L1050 1976z"/>
<path style="fill:#aeafb3; stroke:none;" d="M1092 1976L1093 1977L1092 1976M1125 1976L1126 1977L1125 1976M861 1977L862 1978L861 1977M873 1977L874 1978L873 1977M906 1977L907 1978L906 1977z"/>
<path style="fill:#626262; stroke:none;" d="M1025 1977L1026 1978L1025 1977z"/>
<path style="fill:#aeafb3; stroke:none;" d="M1033 1977L1034 1978L1033 1977z"/>
<path style="fill:#626262; stroke:none;" d="M1051 1977L1052 1978L1051 1977z"/>
<path style="fill:#aeafb3; stroke:none;" d="M1052 1977L1057 1982L1052 1977M1105.67 1977.33L1106.33 1977.67L1105.67 1977.33M1115.67 1977.33L1116.33 1977.67L1115.67 1977.33M1023 1978L1022 1980L1023 1978z"/>
<path style="fill:#626262; stroke:none;" d="M1024 1978L1025 1979L1024 1978z"/>
<path style="fill:#aeafb3; stroke:none;" d="M1030 1978L1031 1979L1030 1978M1046 1978L1047 1979L1046 1978M1091 1978L1092 1979L1091 1978M1119 1978L1120 1979L1119 1978M1124.33 1978.67L1124.67 1979.33L1124.33 1978.67M862 1979L863 1980L862 1979M874 1979L875 1980L874 1979M894 1979L895 1980L894 1979M905 1979L906 1980L905 1979M922 1979L922 1980L925 1980L922 1979z"/>
<path style="fill:#626262; stroke:none;" d="M918 2001L945 2001C944.996 1994.79 944.599 1988.92 939.787 1984.34C928.538 1973.63 909.74 1981.2 907.595 1995.83C905.378 2010.95 920.201 2017.74 933 2015.79C936.286 2015.28 943.484 2012.64 940.338 2008.15C937.426 2004 932.802 2007.67 929 2007.85C923.836 2008.09 920.515 2005.13 918 2001z"/>
<path style="fill:#aeafb3; stroke:none;" d="M926 1979L927 1980L926 1979M928 1979L928 1980L931 1980L928 1979M965 1979L965 1980L968 1980L965 1979z"/>
<path style="fill:#626262; stroke:none;" d="M977 2003C971.594 2009.82 960.378 2008.12 960.378 1998C960.378 1987.88 971.594 1986.18 977 1993C984.687 1989.77 986.346 1983.84 977 1980.8C970.208 1978.59 961.86 1979.34 956.105 1983.8C938.365 1997.54 957.609 2020.27 976 2015.44C985.386 2012.98 985.74 2006.22 977 2003z"/>
<path style="fill:#aeafb3; stroke:none;" d="M970 1979L970 1980L974 1980L970 1979z"/>
<path style="fill:#626262; stroke:none;" d="M1023 1979L1024 1980L1023 1979z"/>
<path style="fill:#aeafb3; stroke:none;" d="M1028 1979L1029 1980L1028 1979M1048 1979L1049 1980L1048 1979M1121 1979L1122 1980L1121 1979M1148 1979L1148 1980L1152 1980L1148 1979z"/>
<path style="fill:#626262; stroke:none;" d="M1168 2012C1163.4 2000.26 1150.65 2013.15 1144 2001L1171 2001C1170.95 1982.86 1147.48 1969.36 1136.01 1988C1122.64 2009.71 1151.47 2021.6 1168 2012z"/>
<path style="fill:#aeafb3; stroke:none;" d="M1153 1979L1153 1980L1157 1980L1153 1979M1190 1979L1190 1980L1193 1980L1190 1979z"/>
<path style="fill:#626262; stroke:none;" d="M1186 2001L1213 2001C1212.98 1994.53 1212.28 1987.97 1206.9 1983.56C1196.33 1974.91 1178.56 1980.54 1175.87 1993.96C1172.68 2009.91 1186.98 2017.69 1201 2015.81C1204.36 2015.36 1211.53 2012.73 1208.34 2008.15C1205.44 2003.99 1200.8 2007.67 1197 2007.85C1191.89 2008.09 1188.32 2005.24 1186 2001z"/>
<path style="fill:#aeafb3; stroke:none;" d="M1195 1979L1195 1980L1199 1980L1195 1979M919 1980L920 1981L919 1980M933 1980L934 1981L933 1980M961.667 1980.33L962.333 1980.67L961.667 1980.33M976.667 1980.33L977.333 1980.67L976.667 1980.33M1004 1980L1005 1981L1004 1980z"/>
<path style="fill:#626262; stroke:none;" d="M1022 1980L1023 1981L1022 1980z"/>
<path style="fill:#aeafb3; stroke:none;" d="M1050 1980L1051 1981L1050 1980z"/>
<path style="fill:#626262; stroke:none;" d="M1065 1980L1065 2016L1075 2016C1075 2006.27 1072.34 1988.72 1087 1990L1087 1980L1075 1984C1073.44 1979.3 1069.35 1980 1065 1980z"/>
<path style="fill:#aeafb3; stroke:none;" d="M1074 1980L1075 1981L1074 1980M1081.67 1980.33L1082.33 1980.67L1081.67 1980.33M1102 1980L1103 1981L1102 1980M1123 1980L1124 1981L1123 1980M1144.67 1980.33L1145.33 1980.67L1144.67 1980.33M1159 1980L1160 1981L1159 1980M1187 1980L1188 1981L1187 1980M1201 1980L1202 1981L1201 1980M1245.67 1980.33L1246.33 1980.67L1245.67 1980.33M1253 1980L1254 1981L1253 1980M1258 1980L1259 1981L1258 1980M863 1981L864 1982L863 1981M875.333 1981.67L875.667 1982.33L875.333 1981.67M893 1981L894 1982L893 1981M904 1981L905 1982L904 1981M959 1981L960 1982L959 1981M979 1981L980 1982L979 1981z"/>
<path style="fill:#626262; stroke:none;" d="M1021 1981L1020 1983L1021 1981z"/>
<path style="fill:#aeafb3; stroke:none;" d="M1051 1981L1052 1982L1051 1981z"/>
<path style="fill:#626262; stroke:none;" d="M1055 1981L1056 1982L1055 1981z"/>
<path style="fill:#aeafb3; stroke:none;" d="M1079 1981L1080 1982L1079 1981M1142 1981L1143 1982L1142 1981M1161 1981L1162 1982L1161 1981M1244 1981L1245 1982L1244 1981M1257 1981L1258 1982L1257 1981M915 1982L916 1983L915 1982M937 1982L938 1983L937 1982M957 1982L958 1983L957 1982M1021 1982L1022 1983L1021 1982M1024 1982L1025 1983L1024 1982M1035 1982L1036 1983L1035 1982M1041 1982L1041 1983L1045 1983L1041 1982z"/>
<path style="fill:#626262; stroke:none;" d="M1056 1982L1057 1983L1056 1982z"/>
<path style="fill:#aeafb3; stroke:none;" d="M1077 1982L1078 1983L1077 1982M1163 1982L1164 1983L1163 1982M1183 1982L1184 1983L1183 1982M1205 1982L1206 1983L1205 1982M1243 1982L1244 1983L1243 1982M1256 1982L1257 1983L1256 1982M892 1983L893 1984L892 1983M956 1983L957 1984L956 1983M982 1983L983 1984L982 1983M1019.67 1983.33L1020.33 1983.67L1019.67 1983.33M1037 1983L1037 1984L1040 1984L1037 1983M1056.67 1983.33L1057.33 1983.67L1056.67 1983.33M1102 1983L1103 1984L1102 1983M1139 1983L1140 1984L1139 1983M1242 1983L1243 1984L1242 1983M1255 1983L1256 1984L1255 1983M864 1984L865 1985L864 1984M876 1984L877 1985L876 1984M903 1984L904 1985L903 1984M912 1984L913 1985L912 1984M983 1984L984 1985L983 1984z"/>
<path style="fill:#626262; stroke:none;" d="M1019 1984L1020 1985L1019 1984z"/>
<path style="fill:#aeafb3; stroke:none;" d="M1031 1984L1032 1985L1031 1984z"/>
<path style="fill:#ffffff; stroke:none;" d="M1032.02 1984.68C1020.26 1987.09 1028.63 2014.61 1041 2011.55C1047.33 2009.99 1053.63 1993.57 1050.13 1988.11C1047.13 1983.43 1036.96 1983.66 1032.02 1984.68z"/>
<path style="fill:#aeafb3; stroke:none;" d="M1035 1984L1036 1985L1035 1984M1041 1984L1042 1985L1041 1984M1046 1984L1047 1985L1046 1984M1054 1984L1055 1985L1054 1984z"/>
<path style="fill:#626262; stroke:none;" d="M1057 1984L1058 1985L1057 1984z"/>
<path style="fill:#aeafb3; stroke:none;" d="M1138 1984L1139 1985L1138 1984M1180 1984L1181 1985L1180 1984M1241 1984L1242 1985L1241 1984M1254 1984L1255 1985L1254 1984M1018.67 1985.33L1019.33 1985.67L1018.67 1985.33M1037 1985L1038 1986L1037 1985M1039 1985L1040 1986L1039 1985M1048 1985L1049 1986L1048 1985z"/>
<path style="fill:#626262; stroke:none;" d="M1058.33 1985.67L1058.67 1986.33L1058.33 1985.67z"/>
<path style="fill:#aeafb3; stroke:none;" d="M1104 1985L1105 1986L1104 1985M1137 1985L1138 1986L1137 1985M1179 1985L1180 1986L1179 1985M1240 1985L1241 1986L1240 1985M1253 1985L1254 1986L1253 1985M865 1986L866 1987L865 1986M877 1986L878 1987L877 1986M891 1986L892 1987L891 1986M902 1986L903 1987L902 1986z"/>
<path style="fill:#626262; stroke:none;" d="M1018 1986L1019 1987L1018 1986z"/>
<path style="fill:#aeafb3; stroke:none;" d="M1021 1986L1022 1987L1021 1986M1049 1986L1050 1987L1049 1986M1091 1986L1092 1987L1091 1986M1106.67 1986.33L1107.33 1986.67L1106.67 1986.33M1136 1986L1137 1987L1136 1986M1167 1986L1168 1987L1167 1986M1239 1986L1240 1987L1239 1986M1252 1986L1253 1987L1252 1986M924 1987L924 1988L929 1988L924 1987M942 1987L943 1988L942 1987M952 1987L953 1988L952 1987M985.333 1987.67L985.667 1988.33L985.333 1987.67M1018 1987L1017 1989L1019 1989L1018 1987M1044 1987L1048 1991L1044 1987M1050 1987L1051 1988L1050 1987M1056 1987L1057 1988L1056 1987M1058.67 1987.33L1059.33 1987.67L1058.67 1987.33M1110 1987L1111 1988L1110 1987M1150 1987L1150 1988L1155 1988L1150 1987M1168 1987L1169 1988L1168 1987M1192 1987L1192 1988L1197 1988L1192 1987M1210 1987L1211 1988L1210 1987M1251 1987L1252 1988L1251 1987M1294 1987L1294 1988L1297 1988L1294 1987M866 1988L867 1989L866 1988M878.333 1988.67L878.667 1989.33L878.333 1988.67M890 1988L891 1989L890 1988M901 1988L902 1989L901 1988M909 1988L910 1989L909 1988M922 1988L923 1989L922 1988z"/>
<path style="fill:#ffffff; stroke:none;" d="M918 1995L935 1995C931.9 1985.99 921.137 1985.99 918 1995z"/>
<path style="fill:#aeafb3; stroke:none;" d="M966.667 1988.33L967.333 1988.67L966.667 1988.33M971.667 1988.33L972.333 1988.67L971.667 1988.33M1020 1988L1021 1989L1020 1988M1026 1988L1027 1989L1026 1988M1032.67 1988.33L1033.33 1988.67L1032.67 1988.33z"/>
<path style="fill:#626262; stroke:none;" d="M1042 1988C1040.4 1997.51 1051.89 1990.89 1042 1988M1059 1988L1060 1989L1059 1988z"/>
<path style="fill:#aeafb3; stroke:none;" d="M1114.67 1988.33L1115.33 1988.67L1114.67 1988.33M1135 1988L1136 1989L1135 1988z"/>
<path style="fill:#ffffff; stroke:none;" d="M1144 1995L1161 1995C1157.5 1986.3 1147.19 1985.73 1144 1995z"/>
<path style="fill:#aeafb3; stroke:none;" d="M1156 1988L1157 1989L1156 1988M1177 1988L1178 1989L1177 1988M1190 1988L1191 1989L1190 1988z"/>
<path style="fill:#ffffff; stroke:none;" d="M1186 1995L1203 1995C1199.89 1986.06 1189.11 1986.06 1186 1995z"/>
<path style="fill:#aeafb3; stroke:none;" d="M1198 1988L1199 1989L1198 1988M1250 1988L1251 1989L1250 1988M1289 1988L1290 1989L1289 1988z"/>
<path style="fill:#626262; stroke:none;" d="M1307 2015C1305.81 2013.46 1304.89 2011.91 1302.94 2011.21C1299.69 2010.04 1296.38 2012.47 1293.02 2011.24C1285.67 2008.57 1285.68 1998.43 1293.02 1995.76C1298.12 1993.9 1301.17 1996.83 1306 1993C1287.02 1969.65 1264.32 2020.67 1296 2018.89C1300.05 2018.66 1303.46 2016.81 1307 2015z"/>
<path style="fill:#aeafb3; stroke:none;" d="M1300 1988L1301 1989L1300 1988M1320 1988L1321 1989L1320 1988z"/>
<path style="fill:#626262; stroke:none;" d="M1321 1988.53C1301.84 1993.1 1308.49 2022.89 1328 2018.47C1347.42 2014.07 1340.38 1983.92 1321 1988.53z"/>
<path style="fill:#aeafb3; stroke:none;" d="M1328 1988L1329 1989L1328 1988M692.333 1989.67L692.667 1990.33L692.333 1989.67z"/>
<path style="fill:#626262; stroke:none;" d="M693 1989L702 2019C713.032 2018.99 715.112 2011.19 716 2001L717 2001L722 2019C735.439 2018.99 738.339 2000.5 741 1989L733 1989L726 2010C723.872 2002.5 723.124 1990.03 714 1989L707 2010C703.358 2001.54 704.249 1989.13 693 1989z"/>
<path style="fill:#aeafb3; stroke:none;" d="M700 1989L701 1990L700 1989M713 1989L714 1990L713 1989M715 1989L716 1990L715 1989M719 1989L720 1990L719 1989M739 1989L740 1990L739 1989z"/>
<path style="fill:#626262; stroke:none;" d="M747 1989C749.661 2000.5 752.561 2018.99 766 2019L771 2001L772 2001C772.882 2011.11 775.092 2018.99 786 2019C787.289 2013.43 797.004 1995.3 793.879 1990.6C792.28 1988.2 788.651 1989.35 787.303 1991.32C783.811 1996.41 783.452 2004.3 781 2010C777.687 2002.3 778.318 1989.34 768 1989L762 2010C757.349 2001.14 759.128 1989.04 747 1989z"/>
<path style="fill:#aeafb3; stroke:none;" d="M774 1989L775 1990L774 1989M787 1989L788 1990L787 1989M794 1989L796 1991L796 1989L794 1989M801.333 1989.67L801.667 1990.33L801.333 1989.67z"/>
<path style="fill:#626262; stroke:none;" d="M802 1989C802.906 1995.14 809.376 2025.05 819.49 2017.97C824.103 2014.74 823.301 2006.23 827 2002L831 2019C844.332 2018.99 847.999 2000.63 850 1989L842 1989L836 2010L829 1989C818.875 1989.83 819.488 2002.12 816 2010C813.079 2001.02 812.968 1989.64 802 1989z"/>
<path style="fill:#aeafb3; stroke:none;" d="M805 1989L806 1990L805 1989M809 1989L810 1990L809 1989M822 1989L823 1990L822 1989M826 1989L827 1990L826 1989M850 1989L851 1990L850 1989M920 1989L921 1990L920 1989M932 1989L933 1990L932 1989M943 1989L944 1990L943 1989M951 1989L952 1990L951 1989M964 1989L965 1990L964 1989M974 1989L975 1990L974 1989M984 1989L985 1990L984 1989M993 1989L993 2007L994 2007L993 1989z"/>
<path style="fill:#626262; stroke:none;" d="M1017.33 1989.67L1017.67 1990.33L1017.33 1989.67z"/>
<path style="fill:#aeafb3; stroke:none;" d="M1030 1989L1031 1990L1030 1989z"/>
<path style="fill:#626262; stroke:none;" d="M1030 1990L1034 1994C1034.55 1990.45 1033.55 1989.45 1030 1990z"/>
<path style="fill:#aeafb3; stroke:none;" d="M1041 1989L1042 1990L1041 1989M1059 1989L1060 1993L1061 1993L1059 1989M1083 1989L1083 1990L1086 1990L1083 1989M1118 1989L1119 1990L1118 1989M1146 1989L1147 1990L1146 1989M1169 1989L1170 1990L1169 1989M1188 1989L1189 1990L1188 1989M1200 1989L1201 1990L1200 1989M1211 1989L1212 1990L1211 1989M1249 1989L1250 1990L1249 1989M1317 1989L1318 1990L1317 1989M1331 1989L1332 1990L1331 1989M1345 1989L1346 1990L1345 1989z"/>
<path style="fill:#626262; stroke:none;" d="M1345 2019L1352 2019C1352 2013.38 1349.52 1997.51 1358.03 1996.66C1367.26 1995.74 1365 2013.73 1365 2019L1372 2019C1372 2013.74 1369.4 1996.64 1378 1996.64C1386.6 1996.64 1384 2013.74 1384 2019L1391 2019C1391 2008.26 1392.99 1982.57 1374 1990C1371.68 1990.91 1369.9 1992.44 1368 1994C1364.51 1987.52 1357.49 1988.64 1352 1992C1349.41 1988.02 1345.49 1989.26 1345.06 1994.02C1344.31 2002.21 1345 2010.77 1345 2019z"/>
<path style="fill:#aeafb3; stroke:none;" d="M1351 1989L1352 1990L1351 1989M1356 1989L1357 1990L1356 1989M1363.67 1989.33L1364.33 1989.67L1363.67 1989.33M1374 1989L1375 1990L1374 1989M1382.67 1989.33L1383.33 1989.67L1382.67 1989.33M720.333 1990.67L720.667 1991.33L720.333 1990.67M732.333 1990.67L732.667 1991.33L732.333 1990.67M755 1990L756 1991L755 1990M767.333 1990.67L767.667 1991.33L767.333 1990.67M829 1990L830 1991L829 1990M889 1990L890 1991L889 1990M908.333 1990.67L908.667 1991.33L908.333 1990.67M919 1990L920 1991L919 1990M933 1990L934 1991L933 1990M975 1990L976 1991L975 1990M982 1990L983 1991L982 1990M1019.33 1990.67L1019.67 1991.33L1019.33 1990.67M1035.33 1990.67L1035.67 1991.33L1035.33 1990.67M1051 1990L1052 1991L1051 1990M1057 1990L1058 1991L1057 1990M1080 1990L1081 1991L1080 1990M1093 1990L1094 1991L1093 1990M1121 1990L1122 1991L1121 1990M1134 1990L1135 1991L1134 1990M1145 1990L1146 1991L1145 1990M1176 1990L1177 1991L1176 1990M1187 1990L1188 1991L1187 1990M1201 1990L1202 1991L1201 1990M1285 1990L1286 1991L1285 1990M1304 1990L1305 1991L1304 1990M1315 1990L1316 1991L1315 1990M1333 1990L1334 1991L1333 1990M1372 1990L1373 1991L1372 1990M1385 1990L1386 1991L1385 1990M712.333 1991.67L712.667 1992.33L712.333 1991.67M740 1991L741 1992L740 1991M747.333 1991.67L747.667 1992.33L747.333 1991.67M775.333 1991.67L775.667 1992.33L775.333 1991.67M810.333 1991.67L810.667 1992.33L810.333 1991.67M841 1991L842 1992L841 1991M867 1991L868 1992L867 1991M879 1991L880 1992L879 1991M944 1991L945 1992L944 1991M950 1991L951 1992L950 1991M962 1991L963 1992L962 1991M976 1991L977 1992L976 1991M980 1991L981 1992L980 1991M1017 1991L1016 1994L1018 1997L1019 1997L1017 1991M1025.33 1991.67L1025.67 1992.33L1025.33 1991.67M1078 1991L1079 1992L1078 1991M1094 1991L1095 1992L1094 1991M1212.33 1991.67L1212.67 1992.33L1212.33 1991.67M1305 1991L1306 1992L1305 1991M1314 1991L1315 1992L1314 1991M1334 1991L1335 1992L1334 1991M701 1992L702 1993L701 1992M786 1992L787 1993L786 1992M802.333 1992.67L802.667 1993.33L802.333 1992.67M821.333 1992.67L821.667 1993.33L821.333 1992.67M849 1992L850 1993L849 1992M918 1992L919 1993L918 1992M934 1992L935 1993L934 1992M961 1992L962 1993L961 1992M978 1992L979 1993L978 1992M1030 1992L1031 1993L1030 1992M1047 1992L1048 1993L1047 1992M1077 1992L1078 1993L1077 1992M1124 1992L1125 1993L1124 1992M1133 1992L1133 1995L1134 1995L1133 1992M1144 1992L1145 1993L1144 1992M1160.33 1992.67L1160.67 1993.33L1160.33 1992.67M1170 1992L1171 1993L1170 1992M1186 1992L1187 1993L1186 1992M1202 1992L1203 1993L1202 1992M1313 1992L1314 1993L1313 1992M693 1993L694 1994L693 1993M721.333 1993.67L721.667 1994.33L721.333 1993.67M731.333 1993.67L731.667 1994.33L731.333 1993.67M756.333 1993.67L756.667 1994.33L756.333 1993.67M766.333 1993.67L766.667 1994.33L766.333 1993.67M794 1993L795 1994L794 1993M830 1993L831 1994L830 1993M868 1993L869 1994L868 1993M880 1993L881 1994L880 1993M888 1993L889 1994L888 1993M899 1993L900 1994L899 1993M907 1993L907 1996L908 1996L907 1993M1031 1993L1032 1994L1031 1993M1051 1993L1052 1994L1051 1993z"/>
<path style="fill:#626262; stroke:none;" d="M1060 1993L1059 1996L1062 1996L1060 1993z"/>
<path style="fill:#aeafb3; stroke:none;" d="M1097 1993L1098 1994L1097 1993M1175 1993L1175 1996L1176 1996L1175 1993M1230 1993L1231 1994L1230 1993M1282 1993L1283 1994L1282 1993M1312 1993L1313 1994L1312 1993M1336 1993L1337 1994L1336 1993M1368 1993L1369 1994L1368 1993M739 1994L740 1995L739 1994M748 1994L749 1995L748 1994M840 1994L841 1995L840 1994M848.333 1994.67L848.667 1995.33L848.333 1994.67z"/>
<path style="fill:#626262; stroke:none;" d="M1016 1994L1016 1996L1018 1996L1018 1994L1016 1994z"/>
<path style="fill:#aeafb3; stroke:none;" d="M1043 1994L1043 1995L1046 1995L1043 1994M1058 1994L1058 2000L1059 2000L1058 1994M1076 1994L1077 1995L1076 1994M1099 1994L1100 1995L1099 1994M1147 1994L1148 1995L1147 1994M1311 1994L1312 1995L1311 1994M1337 1994L1338 1995L1337 1994M1389 1994L1390 1995L1389 1994M702.333 1995.67L702.667 1996.33L702.333 1995.67M711 1995L712 1996L711 1995M776 1995L777 1996L776 1995M785.333 1995.67L785.667 1996.33L785.333 1995.67M803.333 1995.67L803.667 1996.33L803.333 1995.67M811 1995L812 1996L811 1995M820.333 1995.67L820.667 1996.33L820.333 1995.67M869 1995L870 1996L869 1995M887 1995L888 1996L887 1995M898 1995L899 1996L898 1995M949 1995L949 2001L950 2001L949 1995M960.333 1995.67L960.667 1996.33L960.333 1995.67M1026 1995L1027 1996L1026 1995M1102 1995L1103 1996L1102 1995M1127 1995L1128 1996L1127 1995M1292 1995L1293 1996L1292 1995M1298 1995L1299 1996L1298 1995M1321 1995L1322 1996L1321 1995z"/>
<path style="fill:#ffffff; stroke:none;" d="M1322.04 1995.76C1313.2 1999.07 1317.49 2014.79 1326.96 2011.24C1335.8 2007.93 1331.51 1992.21 1322.04 1995.76z"/>
<path style="fill:#aeafb3; stroke:none;" d="M1327 1995L1328 1996L1327 1995M694 1996L695 1997L694 1996M730.333 1996.67L730.667 1997.33L730.333 1996.67M757.333 1996.67L757.667 1997.33L757.333 1996.67M793 1996L794 1997L793 1996M831.333 1996.67L831.667 1997.33L831.333 1996.67M881 1996L882 1997L881 1996M945 1996L945 1999L946 1999L945 1996M1075 1996L1075 1999L1076 1999L1075 1996M1105 1996L1105 1997L1108 1997L1105 1996M1290 1996L1291 1997L1290 1996M1300 1996L1301 1997L1300 1996M1310 1996L1311 1997L1310 1996M1338 1996L1339 1997L1338 1996M1375.67 1996.33L1376.33 1996.67L1375.67 1996.33M1380 1996L1381 1997L1380 1996M1390.33 1996.67L1390.67 1997.33L1390.33 1996.67M722.333 1997.67L722.667 1998.33L722.333 1997.67M738 1997L739 1998L738 1997M749 1997L750 1998L749 1997M765 1997L766 1998L765 1997M839.333 1997.67L839.667 1998.33L839.333 1997.67M847.333 1997.67L847.667 1998.33L847.333 1997.67M886 1997L887 1998L886 1997M897 1997L898 1998L897 1997M907 1997L908 1998L907 1997M1110 1997L1111 1998L1110 1997M1128 1997L1129 1998L1128 1997M1175 1997L1176 1998L1175 1997M1280 1997L1281 1998L1280 1997M1354 1997L1355 1998L1354 1997M1362 1997L1363 1998L1362 1997M1374 1997L1375 1998L1374 1997M703.333 1998.67L703.667 1999.33L703.333 1998.67M710.333 1998.67L710.667 1999.33L710.333 1998.67M777.333 1998.67L777.667 1999.33L777.333 1998.67M784.333 1998.67L784.667 1999.33L784.333 1998.67M792.333 1998.67L792.667 1999.33L792.333 1998.67M804 1998L805 1999L804 1998M812 1998L813 1999L812 1998M870 1998L871 1999L870 1998M882 1998L883 1999L882 1998M1113 1998L1114 1999L1113 1998M1288 1998L1289 1999L1288 1998M1339.33 1998.67L1339.67 1999.33L1339.33 1998.67M1373 1998L1374 1999L1373 1998M1382 1998L1383 1999L1382 1998M695 1999L696 2000L695 1999M819 1999L820 2000L819 1999M960.333 1999.67L960.667 2000.33L960.333 1999.67M1246 1999L1247 2000L1246 1999M1309.33 1999.67L1309.67 2000.33L1309.33 1999.67M1317 1999L1318 2000L1317 1999M1331 1999L1332 2000L1331 1999M723.333 2000.67L723.667 2001.33L723.333 2000.67M729 2000L730 2001L729 2000M737 2000L738 2001L737 2000M750 2000L751 2001L750 2000M758 2000L759 2001L758 2000M764.333 2000.67L764.667 2001.33L764.333 2000.67M832 2000L833 2001L832 2000M838.333 2000.67L838.667 2001.33L838.333 2000.67M846.333 2000.67L846.667 2001.33L846.333 2000.67M871 2000L872 2001L871 2000M883 2000L884 2001L883 2000M896 2000L897 2001L896 2000M907 2000L907 2003L908 2003L907 2000M1048 2000L1048 2004L1049 2004L1048 2000M1117 2000L1118 2001L1117 2000M1247 2000L1248 2001L1247 2000M1287.33 2000.67L1287.67 2001.33L1287.33 2000.67M1372 2000L1373 2001L1372 2000M1383.33 2000.67L1383.67 2001.33L1383.33 2000.67M696.333 2001.67L696.667 2002.33L696.333 2001.67M716.333 2001.67L716.667 2002.33L716.333 2001.67M771.333 2001.67L771.667 2002.33L771.333 2001.67M791.333 2001.67L791.667 2002.33L791.333 2001.67M805 2001L806 2002L805 2001M813.333 2001.67L813.667 2002.33L813.333 2001.67M1175.33 2001.67L1175.67 2002.33L1175.33 2001.67M1352 2001L1352 2019L1353 2019L1352 2001M704 2002L705 2003L704 2002M709 2002L710 2003L709 2002M778 2002L779 2003L778 2002M783 2002L784 2003L783 2002M818.333 2002.67L818.667 2003.33L818.333 2002.67M825 2002L827 2004L827 2002L825 2002M872 2002L873 2003L872 2002M895 2002L896 2003L895 2002M918 2002L919 2003L918 2002M1019 2002L1020 2003L1019 2002M1133.33 2002.67L1133.67 2003.33L1133.33 2002.67M1144 2002L1145 2003L1144 2002M1186 2002L1187 2003L1186 2002M1279 2002L1279 2005L1280 2005L1279 2002M1316 2002L1317 2003L1316 2002M1332 2002L1332 2005L1333 2005L1332 2002M1364 2002L1364 2019L1365 2019L1364 2002M717.333 2003.67L717.667 2004.33L717.333 2003.67M728.333 2003.67L728.667 2004.33L728.333 2003.67M736 2003L737 2004L736 2003M751 2003L752 2004L751 2003M759.333 2003.67L759.667 2004.33L759.333 2003.67M770.333 2003.67L770.667 2004.33L770.333 2003.67M833.333 2003.67L833.667 2004.33L833.333 2003.67M845 2003L846 2004L845 2003M961 2003L962 2004L961 2003M1057 2003L1058 2004L1057 2003M1093 2003L1094 2004L1093 2003M1236 2003L1237 2004L1236 2003M1249 2003L1250 2004L1249 2003M697.333 2004.67L697.667 2005.33L697.333 2004.67M724 2004L725 2005L724 2004M763 2004L764 2005L763 2004M790.333 2004.67L790.667 2005.33L790.333 2004.67M806 2004L807 2005L806 2004M814.333 2004.67L814.667 2005.33L814.333 2004.67M837 2004L838 2005L837 2004M894 2004L895 2005L894 2004M908.333 2004.67L908.667 2005.33L908.333 2004.67M937 2004L938 2005L937 2004M950 2004L951 2005L950 2004M962 2004L963 2005L962 2004M976 2004L977 2005L976 2004M980 2004L981 2005L980 2004M1096 2004L1097 2005L1096 2004M1145 2004L1146 2005L1145 2004M1176.33 2004.67L1176.67 2005.33L1176.33 2004.67M1187 2004L1188 2005L1187 2004M1233 2004L1234 2005L1233 2004M1250 2004L1251 2005L1250 2004M1316 2004L1317 2005L1316 2004M705.333 2005.67L705.667 2006.33L705.333 2005.67M708.333 2005.67L708.667 2006.33L708.333 2005.67M715 2005L716 2006L715 2005M735.333 2005.67L735.667 2006.33L735.333 2005.67M752.333 2005.67L752.667 2006.33L752.333 2005.67M772 2005L773 2006L772 2005M779.333 2005.67L779.667 2006.33L779.333 2005.67M782.333 2005.67L782.667 2006.33L782.333 2005.67M824.333 2005.67L824.667 2006.33L824.333 2005.67M873 2005L874 2006L873 2005M920 2005L921 2006L920 2005M963 2005L964 2006L963 2005M975 2005L976 2006L975 2005M982 2005L983 2006L982 2005M1004 2005L1005 2006L1004 2005M1029 2005L1030 2006L1029 2005M1056 2005L1057 2006L1056 2005M1092 2005L1093 2006L1092 2005M1098 2005L1099 2006L1098 2005M1134 2005L1135 2006L1134 2005M1146 2005L1147 2006L1146 2005M1161 2005L1162 2006L1161 2005M1188 2005L1189 2006L1188 2005M1232 2005L1233 2006L1232 2005M1287.33 2005.67L1287.67 2006.33L1287.33 2005.67M727.333 2006.67L727.667 2007.33L727.333 2006.67M760.333 2006.67L760.667 2007.33L760.333 2006.67M817 2006L818 2007L817 2006M827.333 2006.67L827.667 2007.33L827.333 2006.67M844 2006L845 2007L844 2006M934 2006L935 2007L934 2006M951 2006L952 2007L951 2006M964 2006L965 2007L964 2006M974 2006L975 2007L974 2006M984 2006L985 2007L984 2006M1047 2006L1048 2007L1047 2006M1101 2006L1102 2007L1101 2006M1115 2006L1116 2007L1115 2006M1128 2006L1129 2007L1128 2006M1202 2006L1203 2007L1202 2006M1231 2006L1232 2007L1231 2006M1309.33 2006.67L1309.67 2007.33L1309.33 2006.67M698.333 2007.67L698.667 2008.33L698.333 2007.67M718 2007L719 2008L718 2007M725.333 2007.67L725.667 2008.33L725.333 2007.67M762.333 2007.67L762.667 2008.33L762.333 2007.67M769.333 2007.67L769.667 2008.33L769.333 2007.67M789.333 2007.67L789.667 2008.33L789.333 2007.67M807 2007L808 2008L807 2007M834 2007L835 2008L834 2007M836.333 2007.67L836.667 2008.33L836.333 2007.67M874 2007L875 2008L874 2007M893 2007L894 2008L893 2007M909 2007L910 2008L909 2007M924 2007L925 2008L924 2007M931.667 2007.33L932.333 2007.67L931.667 2007.33M966.667 2007.33L967.333 2007.67L966.667 2007.33M971.667 2007.33L972.333 2007.67L971.667 2007.33M985.333 2007.67L985.667 2008.33L985.333 2007.67M1006 2007L1007 2008L1006 2007M1011 2007L1012 2008L1011 2007M1055 2007L1056 2008L1055 2007M1091 2007L1092 2008L1091 2007M1105 2007L1105 2008L1108 2008L1105 2007M1110 2007L1110 2008L1113 2008L1110 2007M1135 2007L1136 2008L1135 2007M1150 2007L1151 2008L1150 2007M1157 2007L1158 2008L1157 2007M1177 2007L1178 2008L1177 2007M1192 2007L1193 2008L1192 2007M1199.67 2007.33L1200.33 2007.67L1199.67 2007.33M1239 2007L1240 2008L1239 2007M1317 2007L1318 2008L1317 2007M1331 2007L1332 2008L1331 2007M1339.33 2007.67L1339.67 2008.33L1339.33 2007.67M706 2008L706 2010L708 2010L706 2008M714.333 2008.67L714.667 2009.33L714.333 2008.67M734.333 2008.67L734.667 2009.33L734.333 2008.67M753.333 2008.67L753.667 2009.33L753.333 2008.67M773.333 2008.67L773.667 2009.33L773.333 2008.67M781 2008L780 2010L782 2010L781 2008M815 2008L816 2009L815 2008M910 2008L911 2009L910 2008M952 2008L953 2009L952 2008M1013 2008L1014 2009L1013 2008M1022 2008L1023 2009L1022 2008M1127 2008L1128 2009L1127 2008M1166 2008L1167 2009L1166 2008M1178 2008L1179 2009L1178 2008M1240 2008L1241 2009L1240 2008M1253 2008L1254 2009L1253 2008M1288 2008L1289 2009L1288 2008M816 2009L817 2010L816 2009M823.333 2009.67L823.667 2010.33L823.333 2009.67M843 2009L844 2010L843 2009M875 2009L876 2010L875 2009M892 2009L893 2010L892 2009M953 2009L954 2010L953 2009M994 2009L995 2010L994 2009M1090 2009L1090 2012L1091 2012L1090 2009M1167 2009L1168 2010L1167 2009M1254 2009L1255 2010L1254 2009M1280 2009L1281 2010L1280 2009M1289 2009L1290 2010L1289 2009M1301 2009L1302 2010L1301 2009M1318 2009L1319 2010L1318 2009M1330 2009L1331 2010L1330 2009M699 2010L700 2011L699 2010M719.333 2010.67L719.667 2011.33L719.333 2010.67M768.333 2010.67L768.667 2011.33L768.333 2010.67M788 2010L789 2011L788 2010M808 2010L809 2011L808 2010M828 2010L829 2011L828 2010M856.667 2010.33L857.333 2010.67L856.667 2010.33z"/>
<path style="fill:#626262; stroke:none;" d="M858.054 2011.01C853 2011.09 853.848 2018.89 858.907 2018.34C863.582 2017.83 862.402 2010.93 858.054 2011.01z"/>
<path style="fill:#aeafb3; stroke:none;" d="M859 2010L860 2011L859 2010M942 2010L943 2011L942 2010M1014.33 2010.67L1014.67 2011.33L1014.33 2010.67M1033 2010L1034 2011L1033 2010M1137 2010L1138 2011L1137 2010M1168 2010L1169 2011L1168 2010M1210 2010L1211 2011L1210 2010M1269 2010L1268 2012L1269 2010z"/>
<path style="fill:#626262; stroke:none;" d="M1270.31 2011.09C1266.26 2013.39 1269.45 2019.28 1273.69 2017.38C1277.83 2015.52 1274.32 2008.81 1270.31 2011.09z"/>
<path style="fill:#aeafb3; stroke:none;" d="M1274 2010L1275 2011L1274 2010M1290 2010L1291 2011L1290 2010M1300 2010L1301 2011L1300 2010M1310 2010L1311 2011L1310 2010M1319 2010L1320 2011L1319 2010M1329 2010L1330 2011L1329 2010M1338 2010L1339 2011L1338 2010M733.333 2011.67L733.667 2012.33L733.333 2011.67M754.333 2011.67L754.667 2012.33L754.333 2011.67M861 2011L862 2012L861 2011M891 2011L892 2012L891 2011M995 2011L996 2012L995 2011M1025 2011L1026 2012L1025 2011M1035 2011L1036 2012L1035 2011M1054 2011L1052 2014L1054 2011z"/>
<path style="fill:#626262; stroke:none;" d="M1055 2011L1049 2016L1049 2017C1052.32 2020.32 1057.72 2028.13 1062.89 2028.13C1073.55 2028.13 1057.23 2012.57 1055 2011z"/>
<path style="fill:#aeafb3; stroke:none;" d="M1138 2011L1139 2012L1138 2011M1275 2011L1276 2012L1275 2011M1281 2011L1282 2012L1281 2011M1292.67 2011.33L1293.33 2011.67L1292.67 2011.33M1297.67 2011.33L1298.33 2011.67L1297.67 2011.33M1321 2011L1322 2012L1321 2011M1327 2011L1328 2012L1327 2011M713 2012L714 2013L713 2012M774 2012L775 2013L774 2012M809.333 2012.67L809.667 2013.33L809.333 2012.67M822.333 2012.67L822.667 2013.33L822.333 2012.67M842 2012L843 2013L842 2012M854 2012L855 2013L854 2012M862 2012L862 2015L863 2015L862 2012M876 2012L877 2013L876 2012M956 2012L957 2013L956 2012M1026 2012L1027 2013L1026 2012M1243 2012L1244 2013L1243 2012M1311 2012L1312 2013L1311 2012M1337 2012L1338 2013L1337 2012M700 2013L701 2014L700 2013M720.333 2013.67L720.667 2014.33L720.333 2013.67M767.333 2013.67L767.667 2014.33L767.333 2013.67M787 2013L788 2014L787 2013M829 2013L830 2014L829 2013M915 2013L916 2014L915 2013M939 2013L940 2014L939 2013M980 2013L981 2014L980 2013M1015.33 2013.67L1015.67 2014.33L1015.33 2013.67M1049 2013L1050 2014L1049 2013M1122 2013L1123 2014L1122 2013M1141 2013L1142 2014L1141 2013M1165 2013L1166 2014L1165 2013M1183 2013L1184 2014L1183 2013M1207 2013L1208 2014L1207 2013M1244 2013L1245 2014L1244 2013M1257 2013L1258 2014L1257 2013M1267 2013L1267 2016L1268 2016L1267 2013M1276.33 2013.67L1276.67 2014.33L1276.33 2013.67M1282 2013L1283 2014L1282 2013M732 2014L733 2015L732 2014M755 2014L756 2015L755 2014M775.333 2014.67L775.667 2015.33L775.333 2014.67M877 2014L878 2015L877 2014M890 2014L891 2015L890 2014M917 2014L918 2015L917 2014M937 2014L938 2015L937 2014M959 2014L960 2015L959 2014M979 2014L980 2015L979 2014M998 2014L999 2015L998 2014M1029 2014L1030 2015L1029 2014M1096 2014L1097 2015L1096 2014M1120 2014L1121 2015L1120 2014M1143 2014L1144 2015L1143 2014M1163 2014L1164 2015L1163 2014M1185 2014L1186 2015L1185 2014M1258 2014L1259 2015L1258 2014M1283 2014L1284 2015L1283 2014M712 2015L713 2016L712 2015M810.333 2015.67L810.667 2016.33L810.333 2015.67M821 2015L822 2016L821 2015M841 2015L842 2016L841 2015M919.667 2015.33L920.333 2015.67L919.667 2015.33M935 2015L936 2016L935 2015M961.667 2015.33L962.333 2015.67L961.667 2015.33M976 2015L977 2016L976 2015M1000 2015L1001 2016L1000 2015M1013 2015L1014 2016L1013 2015M1031 2015L1032 2016L1031 2015M1045 2015L1046 2016L1045 2015M1049 2015L1050 2016L1049 2015M1099.67 2015.33L1100.33 2015.67L1099.67 2015.33M1117.67 2015.33L1118.33 2015.67L1117.67 2015.33M1145.67 2015.33L1146.33 2015.67L1145.67 2015.33M1161 2015L1162 2016L1161 2015M1187.67 2015.33L1188.33 2015.67L1187.67 2015.33M1203 2015L1204 2016L1203 2015M1284 2015L1285 2016L1284 2015M1305 2015L1306 2016L1305 2015M701 2016L702 2017L701 2016M721.333 2016.67L721.667 2017.33L721.333 2016.67M766.333 2016.67L766.667 2017.33L766.333 2016.67M786 2016L787 2017L786 2016M830 2016L831 2017L830 2016M862 2016L863 2017L862 2016M878 2016L878 2017L889 2017L878 2016M924 2016L924 2017L932 2017L924 2016M966 2016L966 2017L974 2017L966 2016M1003 2016L1003 2017L1011 2017L1003 2016M1035 2016L1035 2017L1042 2017L1035 2016M1065 2016L1065 2017L1075 2017L1065 2016M1104 2016L1104 2017L1114 2017L1104 2016M1149 2016L1149 2017L1158 2017L1149 2016M1192 2016L1192 2017L1200 2017L1192 2016M1220 2016L1220 2017L1231 2017L1220 2016M1247 2016L1247 2017L1260 2017L1247 2016M1304 2016L1305 2017L1304 2016M1315 2016L1316 2017L1315 2016M1333 2016L1334 2017L1333 2016M711.333 2017.67L711.667 2018.33L711.333 2017.67M731 2017L732 2018L731 2017M756 2017L757 2018L756 2017M776.333 2017.67L776.667 2018.33L776.333 2017.67M840.333 2017.67L840.667 2018.33L840.333 2017.67M1049 2017L1050 2018L1049 2017M1287 2017L1288 2018L1287 2017M1302 2017L1303 2018L1302 2017M1317 2017L1318 2018L1317 2017M1331 2017L1332 2018L1331 2017M811 2018L812 2019L811 2018M820 2018L821 2019L820 2018M856 2018L857 2019L856 2018M860 2018L861 2019L860 2018M1050 2018L1051 2019L1050 2018M1270 2018L1270 2019L1274 2019L1270 2018M1290 2018L1291 2019L1290 2018M1299.67 2018.33L1300.33 2018.67L1299.67 2018.33M1319.67 2018.33L1320.33 2018.67L1319.67 2018.33M1328.67 2018.33L1329.33 2018.67L1328.67 2018.33M1051 2019L1052 2020L1051 2019M1052 2020L1053 2021L1052 2020M1053 2021L1054 2022L1053 2021M1054 2022L1055 2023L1054 2022M1066 2022L1067 2023L1066 2022M1055 2023L1056 2024L1055 2023M1056 2024L1057 2025L1056 2024M1057 2025L1058 2026L1057 2025M1058 2026L1059 2027L1058 2026M1066 2026L1067 2027L1066 2026M1059 2027L1060 2028L1059 2027M1061 2028L1062 2029L1061 2028M1064 2028L1065 2029L1064 2028z"/>
</svg>
