<?xml version="1.0" encoding="UTF-8"?>
<svg xmlns="http://www.w3.org/2000/svg" xmlns:xlink="http://www.w3.org/1999/xlink" width="100px" height="100px" viewBox="0 0 100 56" version="1.1">
<g id="surface1">
<rect x="0" y="0" width="100" height="56" style="fill:rgb(99.607843%,99.607843%,100%);fill-opacity:1;stroke:none;"/>
<path style=" stroke:none;fill-rule:nonzero;fill:rgb(37.647059%,56.078431%,65.882353%);fill-opacity:1;" d="M 11 17.667969 L 11 19.667969 L 9.332031 19.667969 L 9.332031 20 L 11 20 L 11 22 L 11.667969 22 L 11.667969 20 L 13.332031 20 L 13.332031 19.667969 L 11.667969 19.667969 L 11.667969 17.667969 Z M 11 17.667969 "/>
<path style=" stroke:none;fill-rule:nonzero;fill:rgb(100%,60%,23.529412%);fill-opacity:1;" d="M 5.332031 19.667969 L 5.332031 22.332031 L 2.667969 22.332031 L 2.667969 23.332031 L 5.332031 23.332031 L 5.332031 26 L 6.332031 26 L 6.332031 23.332031 L 9 23.332031 L 9 22.332031 L 6.332031 22.332031 L 6.332031 19.667969 Z M 5.332031 19.667969 "/>
<path style=" stroke:none;fill-rule:nonzero;fill:rgb(4.705882%,25.098039%,50.196078%);fill-opacity:1;" d="M 16.332031 19.667969 L 16.667969 20 Z M 16.332031 19.667969 "/>
<path style=" stroke:none;fill-rule:nonzero;fill:rgb(37.647059%,56.078431%,65.882353%);fill-opacity:1;" d="M 16.667969 19.667969 L 16.332031 22.332031 L 13.667969 22.332031 L 13.667969 23.332031 L 16.332031 23.332031 L 16.667969 26 L 17 26 L 17.332031 23.332031 L 20 23.332031 L 20 22.332031 L 17.332031 22.332031 Z M 16.667969 19.667969 "/>
<path style=" stroke:none;fill-rule:nonzero;fill:rgb(4.705882%,25.098039%,50.196078%);fill-opacity:1;" d="M 17 19.667969 L 17.332031 20 Z M 17 19.667969 "/>
<path style=" stroke:none;fill-rule:nonzero;fill:rgb(37.647059%,56.078431%,65.882353%);fill-opacity:1;" d="M 64.332031 21.667969 L 64.332031 22 L 65.667969 22 Z M 64.332031 21.667969 "/>
<path style=" stroke:none;fill-rule:nonzero;fill:rgb(4.705882%,25.098039%,50.196078%);fill-opacity:1;" d="M 64.332031 22 L 64.332031 33.667969 L 65.667969 33.667969 L 65.667969 22 Z M 64.332031 22 "/>
<path style=" stroke:none;fill-rule:nonzero;fill:rgb(37.647059%,56.078431%,65.882353%);fill-opacity:1;" d="M 53 23 L 53.332031 32.332031 L 53.667969 32.332031 Z M 53 23 "/>
<path style=" stroke:none;fill-rule:nonzero;fill:rgb(4.705882%,25.098039%,50.196078%);fill-opacity:1;" d="M 53.332031 23 C 53.332031 25.023438 52.398438 30.183594 53.675781 31.800781 C 56.316406 35.128906 62.148438 27.988281 56.992188 26.375 C 56.152344 26.109375 55.195312 26.28125 54.332031 26.332031 L 54.332031 23 Z M 53.332031 23 "/>
<path style=" stroke:none;fill-rule:nonzero;fill:rgb(37.647059%,56.078431%,65.882353%);fill-opacity:1;" d="M 54.332031 23 L 54.332031 26.332031 L 54.667969 26.332031 L 54.332031 23 M 30.667969 23.332031 L 30.667969 23.667969 L 32 23.667969 Z M 30.667969 23.332031 "/>
<path style=" stroke:none;fill-rule:nonzero;fill:rgb(4.705882%,25.098039%,50.196078%);fill-opacity:1;" d="M 30.667969 23.667969 L 30.667969 27.332031 L 27 27.332031 L 27 28.332031 L 30.667969 28.332031 L 30.667969 32.667969 L 32 32.667969 L 32 28.332031 L 35.667969 28.332031 L 35.667969 27.332031 L 32 27.332031 L 32 23.667969 Z M 30.667969 23.667969 "/>
<path style=" stroke:none;fill-rule:nonzero;fill:rgb(100%,60%,23.529412%);fill-opacity:1;" d="M 10.667969 24.332031 L 10.667969 27.332031 L 7.667969 27.332031 C 8.152344 28.796875 9.28125 28.660156 10.667969 28.667969 L 10.667969 31.667969 L 12 31.667969 L 12 28.667969 C 13.382812 28.660156 14.515625 28.796875 15 27.332031 L 12 27.332031 L 12 24.332031 Z M 10.667969 24.332031 "/>
<path style=" stroke:none;fill-rule:nonzero;fill:rgb(37.647059%,56.078431%,65.882353%);fill-opacity:1;" d="M 2.332031 25.667969 L 2.332031 27.667969 L 0.667969 27.667969 L 0.667969 28.332031 L 2.332031 28.332031 L 2.332031 30 L 3 30 L 3 28.332031 L 5 28 L 5 27.667969 L 3 27.667969 L 3 25.667969 Z M 2.332031 25.667969 "/>
<path style=" stroke:none;fill-rule:nonzero;fill:rgb(4.705882%,25.098039%,50.196078%);fill-opacity:1;" d="M 16.332031 25.667969 L 16.667969 26 L 16.332031 25.667969 M 17 25.667969 L 17.332031 26 L 17 25.667969 M 19.332031 25.667969 L 19.332031 27.667969 L 17.667969 27.667969 L 17.667969 28.332031 L 19.332031 28.332031 L 19.332031 30.332031 L 19.667969 30.332031 L 20 25.667969 Z M 19.332031 25.667969 "/>
<path style=" stroke:none;fill-rule:nonzero;fill:rgb(37.647059%,56.078431%,65.882353%);fill-opacity:1;" d="M 20 25.667969 L 19.667969 30.332031 C 20.753906 29.382812 20.527344 26.921875 20 25.667969 M 42.890625 26.109375 L 43.109375 26.222656 Z M 42.890625 26.109375 "/>
<path style=" stroke:none;fill-rule:nonzero;fill:rgb(4.705882%,25.098039%,50.196078%);fill-opacity:1;" d="M 46.332031 26 C 45.078125 26.132812 43.5 25.941406 42.347656 26.484375 C 37.675781 28.679688 43.503906 34.941406 45.992188 31.800781 C 46.929688 30.613281 46.332031 27.453125 46.332031 26 Z M 46.332031 26 "/>
<path style=" stroke:none;fill-rule:nonzero;fill:rgb(37.647059%,56.078431%,65.882353%);fill-opacity:1;" d="M 44.222656 26.109375 L 44.445312 26.222656 L 44.222656 26.109375 M 45 26 L 45.332031 26.332031 L 45 26 M 46.332031 26 L 46.332031 32 L 46.667969 32 L 46.332031 26 M 55 26 L 55 26.332031 L 56 26.332031 L 55 26 M 56.554688 26.109375 L 56.777344 26.222656 L 56.554688 26.109375 M 73.332031 26 L 73.332031 26.332031 L 75.332031 26.332031 L 73.332031 26 M 84.332031 26 L 84.332031 26.332031 L 85.332031 26.332031 Z M 84.332031 26 "/>
<path style=" stroke:none;fill-rule:nonzero;fill:rgb(4.705882%,25.098039%,50.196078%);fill-opacity:1;" d="M 88.332031 26 C 87.078125 26.132812 85.5 25.941406 84.347656 26.484375 C 79.632812 28.699219 85.5 34.941406 87.992188 31.800781 C 88.929688 30.613281 88.332031 27.453125 88.332031 26 Z M 88.332031 26 "/>
<path style=" stroke:none;fill-rule:nonzero;fill:rgb(37.647059%,56.078431%,65.882353%);fill-opacity:1;" d="M 86.222656 26.109375 L 86.445312 26.222656 L 86.222656 26.109375 M 87 26 L 87.332031 26.332031 L 87 26 M 93.667969 26 L 93.667969 26.332031 L 95 26.332031 L 93.667969 26 M 98 26 L 98 26.332031 L 99.332031 26.332031 Z M 98 26 "/>
<path style=" stroke:none;fill-rule:nonzero;fill:rgb(4.705882%,25.098039%,50.196078%);fill-opacity:1;" d="M 76.667969 32.332031 L 76.667969 31 C 74.804688 31.441406 73.261719 31.386719 72.667969 29.332031 L 77 29.332031 C 76.566406 21.445312 66.804688 30.988281 73.667969 32.257812 C 74.632812 32.4375 75.6875 32.332031 76.667969 32.332031 Z M 76.667969 32.332031 "/>
<path style=" stroke:none;fill-rule:nonzero;fill:rgb(37.647059%,56.078431%,65.882353%);fill-opacity:1;" d="M 75.667969 26.332031 L 76 26.667969 L 75.667969 26.332031 M 83.667969 26.332031 L 84 26.667969 Z M 83.667969 26.332031 "/>
<path style=" stroke:none;fill-rule:nonzero;fill:rgb(4.705882%,25.098039%,50.196078%);fill-opacity:1;" d="M 93.667969 26.332031 C 94.027344 27.84375 93.511719 30.347656 94.535156 31.5625 C 98.15625 35.859375 99.332031 28.363281 99.332031 26.332031 L 98 26.332031 C 98 32.140625 95 32.132812 95 26.332031 Z M 93.667969 26.332031 "/>
<path style=" stroke:none;fill-rule:nonzero;fill:rgb(37.647059%,56.078431%,65.882353%);fill-opacity:1;" d="M 41.332031 26.667969 L 41.667969 27 L 41.332031 26.667969 M 58 26.667969 L 58.332031 27 L 58 26.667969 M 72 26.667969 L 72.332031 27 L 72 26.667969 M 83.332031 26.667969 L 83.667969 27 L 83.332031 26.667969 M 93.667969 26.667969 L 93.667969 31 L 94 31 L 93.667969 26.667969 M 71.667969 27 L 72 27.332031 L 71.667969 27 M 83 27 L 83.332031 27.332031 L 83 27 M 42.667969 27.332031 L 42 28.332031 Z M 42.667969 27.332031 "/>
<path style=" stroke:none;fill-rule:nonzero;fill:rgb(99.607843%,99.607843%,100%);fill-opacity:1;" d="M 45 31.332031 C 45 30.667969 45.023438 29.996094 44.992188 29.332031 C 44.808594 25.183594 39.929688 29.558594 43.363281 31.085938 C 43.882812 31.316406 44.445312 31.304688 45 31.332031 Z M 45 31.332031 "/>
<path style=" stroke:none;fill-rule:nonzero;fill:rgb(37.647059%,56.078431%,65.882353%);fill-opacity:1;" d="M 44.667969 27.332031 L 45 27.667969 L 44.667969 27.332031 M 54.332031 27.332031 L 55 31.332031 L 55 27.332031 Z M 54.332031 27.332031 "/>
<path style=" stroke:none;fill-rule:nonzero;fill:rgb(99.607843%,99.607843%,100%);fill-opacity:1;" d="M 55.199219 27.683594 C 53.835938 28.675781 54.882812 32.40625 56.855469 30.75 C 58.261719 29.574219 56.855469 26.476562 55.199219 27.683594 Z M 55.199219 27.683594 "/>
<path style=" stroke:none;fill-rule:nonzero;fill:rgb(37.647059%,56.078431%,65.882353%);fill-opacity:1;" d="M 56.667969 27.332031 L 57 27.667969 L 56.667969 27.332031 M 73.332031 27.332031 L 73.667969 27.667969 Z M 73.332031 27.332031 "/>
<path style=" stroke:none;fill-rule:nonzero;fill:rgb(99.607843%,99.607843%,100%);fill-opacity:1;" d="M 73 28.667969 L 75.667969 28.667969 C 74.929688 27.335938 73.5625 27.070312 73 28.667969 Z M 73 28.667969 "/>
<path style=" stroke:none;fill-rule:nonzero;fill:rgb(37.647059%,56.078431%,65.882353%);fill-opacity:1;" d="M 75 27.332031 L 75.332031 27.667969 L 75 27.332031 M 76.667969 27.332031 L 77 27.667969 L 76.667969 27.332031 M 84.667969 27.332031 L 85 27.667969 Z M 84.667969 27.332031 "/>
<path style=" stroke:none;fill-rule:nonzero;fill:rgb(99.607843%,99.607843%,100%);fill-opacity:1;" d="M 87 31.332031 C 87 30.667969 87.023438 29.996094 86.992188 29.332031 C 86.804688 25.097656 81.78125 29.542969 85.34375 31.085938 C 85.871094 31.3125 86.441406 31.300781 87 31.332031 Z M 87 31.332031 "/>
<path style=" stroke:none;fill-rule:nonzero;fill:rgb(37.647059%,56.078431%,65.882353%);fill-opacity:1;" d="M 86.667969 27.332031 L 87 27.667969 Z M 86.667969 27.332031 "/>
<path style=" stroke:none;fill-rule:nonzero;fill:rgb(4.705882%,25.098039%,50.196078%);fill-opacity:1;" d="M 20.332031 27.667969 L 20.332031 28.332031 L 22 28.332031 L 22 27.667969 Z M 20.332031 27.667969 "/>
<path style=" stroke:none;fill-rule:nonzero;fill:rgb(37.647059%,56.078431%,65.882353%);fill-opacity:1;" d="M 40.667969 27.667969 L 41 28 L 40.667969 27.667969 M 45 27.667969 L 45 31.332031 L 45.332031 31.332031 L 45 27.667969 M 57 27.667969 L 57.332031 28 L 57 27.667969 M 58.777344 27.890625 L 58.890625 28.109375 L 58.777344 27.890625 M 71.332031 27.667969 L 71.667969 28 L 71.332031 27.667969 M 75.332031 27.667969 L 75.667969 28 L 75.332031 27.667969 M 82.667969 27.667969 L 83 28 L 82.667969 27.667969 M 87 27.667969 L 87 30.667969 L 87.332031 30.667969 L 87 27.667969 M 72.777344 28.222656 L 72.890625 28.445312 L 72.777344 28.222656 M 84 28 L 84.332031 28.332031 L 84 28 M 27 28.332031 L 27 28.667969 L 30.667969 28.667969 L 27 28.332031 M 32 28.332031 L 32 28.667969 L 35.667969 28.667969 L 32 28.332031 M 57.332031 28.332031 L 57.667969 28.667969 L 57.332031 28.332031 M 77 28.332031 C 76.085938 29.742188 74.191406 29.332031 72.667969 29.332031 L 72.667969 29.667969 L 77.332031 29.667969 L 77 28.332031 M 71 28.667969 L 71 30 L 71.332031 30 L 71 28.667969 M 82.332031 28.667969 L 82.332031 30 L 82.667969 30 L 82.332031 28.667969 M 83.777344 29.222656 L 83.890625 29.445312 Z M 83.777344 29.222656 "/>
<path style=" stroke:none;fill-rule:nonzero;fill:rgb(95.686275%,25.882353%,10.196078%);fill-opacity:1;" d="M 5.332031 29.667969 L 5.332031 32.667969 L 2.667969 32.667969 L 2.667969 33.332031 L 5.332031 33.332031 L 5.332031 36 L 6.332031 36 L 6.332031 33.332031 L 9 33.332031 L 9 32.667969 L 6.332031 32.667969 L 6.332031 29.667969 Z M 5.332031 29.667969 "/>
<path style=" stroke:none;fill-rule:nonzero;fill:rgb(4.705882%,25.098039%,50.196078%);fill-opacity:1;" d="M 16.332031 29.667969 L 16.332031 32.667969 L 13.667969 32.667969 L 13.667969 33.332031 L 16.332031 33.332031 L 16.332031 36 L 17.332031 36 L 17.332031 33.332031 L 20 33.332031 L 20 32.667969 L 17.332031 32.667969 L 17.332031 29.667969 Z M 16.332031 29.667969 "/>
<path style=" stroke:none;fill-rule:nonzero;fill:rgb(37.647059%,56.078431%,65.882353%);fill-opacity:1;" d="M 42 30 L 42.332031 30.332031 L 42 30 M 57.332031 30 L 57.667969 30.332031 L 57.332031 30 M 40.667969 30.332031 L 41 30.667969 L 40.667969 30.332031 M 58.667969 30.332031 L 59 30.667969 L 58.667969 30.332031 M 72.667969 30.332031 L 73 30.667969 L 72.667969 30.332031 M 84 30.332031 L 84.332031 30.667969 L 84 30.332031 M 95.109375 30.554688 L 95.222656 30.777344 L 95.109375 30.554688 M 42.332031 30.667969 L 42.667969 31 L 42.332031 30.667969 M 57 30.667969 L 57.332031 31 L 57 30.667969 M 71.332031 30.667969 L 71.667969 31 L 71.332031 30.667969 M 73 30.667969 L 73.332031 31 L 73 30.667969 M 82.667969 30.667969 L 83 31 L 82.667969 30.667969 M 84.332031 30.667969 L 84.667969 31 L 84.332031 30.667969 M 97.667969 30.667969 L 98 31 L 97.667969 30.667969 M 43 31 L 43.332031 31.332031 L 43 31 M 56.332031 31 L 56.667969 31.332031 L 56.332031 31 M 58.332031 31 L 58.667969 31.332031 L 58.332031 31 M 73.332031 31 L 73.667969 31.332031 L 73.332031 31 M 76 31 L 76.332031 31.332031 L 76 31 M 76.667969 31 L 76.667969 32 L 77 32 L 76.667969 31 M 85 31 L 85.332031 31.332031 L 85 31 M 95.332031 31 L 95.667969 31.332031 L 95.332031 31 M 99 31 L 99.332031 31.332031 L 99 31 M 94 31.332031 L 94.332031 31.667969 L 94 31.332031 M 96 31.332031 L 96 31.667969 L 97.332031 31.667969 L 96 31.332031 M 57.667969 31.667969 L 58 32 L 57.667969 31.667969 M 94.332031 31.667969 L 94.667969 32 L 94.332031 31.667969 M 42 32 L 42.332031 32.332031 L 42 32 M 46 32 L 46.332031 32.332031 L 46 32 M 57.332031 32 L 57.667969 32.332031 L 57.332031 32 M 72.667969 32 L 73 32.332031 L 72.667969 32 M 84 32 L 84.332031 32.332031 L 84 32 M 88 32 L 88.332031 32.332031 L 88 32 M 98 32 L 98.332031 32.332031 Z M 98 32 "/>
<path style=" stroke:none;fill-rule:nonzero;fill:rgb(100%,60%,23.529412%);fill-opacity:1;" d="M 2.667969 32.332031 L 2.667969 32.667969 L 5.332031 32.667969 L 2.667969 32.332031 M 6.332031 32.332031 L 6.332031 32.667969 L 9 32.667969 Z M 6.332031 32.332031 "/>
<path style=" stroke:none;fill-rule:nonzero;fill:rgb(37.647059%,56.078431%,65.882353%);fill-opacity:1;" d="M 13.667969 32.332031 L 13.667969 32.667969 L 16.332031 32.667969 L 13.667969 32.332031 M 17.332031 32.332031 L 17.332031 32.667969 L 20 32.667969 L 17.332031 32.332031 M 31.222656 32.445312 L 31.445312 32.554688 L 31.222656 32.445312 M 43 32.332031 L 43 32.667969 L 45.332031 32.667969 L 43 32.332031 M 54.332031 32.332031 L 54.332031 32.667969 L 56.667969 32.667969 L 54.332031 32.332031 M 73.667969 32.332031 L 73.667969 32.667969 L 76 32.667969 L 73.667969 32.332031 M 85 32.332031 L 85 32.667969 L 87 32.667969 L 85 32.332031 M 96 32.332031 L 96 32.667969 L 97.332031 32.667969 Z M 96 32.332031 "/>
<path style=" stroke:none;fill-rule:nonzero;fill:rgb(4.705882%,25.098039%,50.196078%);fill-opacity:1;" d="M 11 33.667969 L 11 35.667969 L 9.332031 35.667969 L 9.332031 36.332031 L 11 36.332031 L 11 38.332031 L 11.667969 38.332031 L 11.667969 36.332031 L 13.332031 36.332031 L 13.332031 35.667969 L 11.667969 35.667969 L 11.667969 33.667969 Z M 11 33.667969 "/>
<path style=" stroke:none;fill-rule:nonzero;fill:rgb(37.647059%,56.078431%,65.882353%);fill-opacity:1;" d="M 9.109375 35.890625 L 9.222656 36.109375 L 9.109375 35.890625 M 11 35.667969 L 11 36.332031 L 11.667969 36.332031 L 11.667969 35.667969 L 11 35.667969 M 13.445312 35.890625 L 13.554688 36.109375 Z M 13.445312 35.890625 "/>
<path style=" stroke:none;fill-rule:nonzero;fill:rgb(100%,60%,23.529412%);fill-opacity:1;" d="M 5.332031 36 L 5.332031 36.332031 L 6.332031 36.332031 Z M 5.332031 36 "/>
<path style=" stroke:none;fill-rule:nonzero;fill:rgb(37.647059%,56.078431%,65.882353%);fill-opacity:1;" d="M 16.332031 36 L 16.332031 36.332031 L 17.332031 36.332031 L 16.332031 36 M 10.667969 36.332031 L 11 36.667969 L 10.667969 36.332031 M 11.667969 36.332031 L 12 36.667969 Z M 11.667969 36.332031 "/>
</g>
</svg>
