<?xml version="1.0" standalone="no"?>
<!DOCTYPE svg PUBLIC "-//W3C//DTD SVG 20010904//EN"
 "http://www.w3.org/TR/2001/REC-SVG-20010904/DTD/svg10.dtd">
<svg version="1.0" xmlns="http://www.w3.org/2000/svg"
 width="275.000000pt" height="183.000000pt" viewBox="0 0 275.000000 183.000000"
 preserveAspectRatio="xMidYMid meet">

<g transform="translate(0.000000,183.000000) scale(0.100000,-0.100000)"
fill="#000000" stroke="none">
<path d="M1178 1513 c67 -2 177 -2 245 0 67 1 12 3 -123 3 -135 0 -190 -2
-122 -3z"/>
<path d="M1037 1503 c-4 -3 -7 -62 -7 -130 l0 -123 -135 0 c-191 0 -175 31
-175 -339 0 -364 -17 -331 177 -331 l133 0 0 -123 c0 -82 4 -127 12 -135 9 -9
130 -12 484 -12 416 0 474 2 488 16 14 14 16 67 14 457 -1 243 -4 373 -5 290
l-4 -153 -234 0 -235 0 0 150 0 150 -50 0 c-37 0 -50 4 -50 14 0 8 -7 22 -16
30 -13 13 -46 16 -205 16 l-190 0 3 115 c2 63 3 115 2 115 0 0 -4 -3 -7 -7z
m-15 -467 c17 -36 35 -63 40 -60 5 3 22 32 38 65 29 57 32 59 70 59 22 0 40
-3 40 -8 0 -4 -22 -43 -50 -87 -27 -44 -50 -83 -50 -88 0 -4 22 -42 48 -85 27
-42 52 -83 56 -89 5 -10 -5 -13 -38 -13 l-45 0 -37 70 -38 70 -33 -57 c-17
-32 -35 -64 -40 -71 -5 -9 -23 -12 -51 -10 l-43 3 59 90 59 91 -22 34 c-12 19
-36 61 -54 93 l-32 57 45 0 46 0 32 -64z"/>
</g>
</svg>
